SplineFontDB: 1.0
FontName: THChakraPetch-BoldItalic
FullName: THChakraPetch-BoldItalic
FamilyName: TH Chakra Petch
Weight: Bold
Copyright: Copyright (c) 2006 by Department of Intellectual Property (DIP), Ministry of Commerce and Software Industry Promotion Agency (Public Organization) (SIPA). All rights reserved.
Version: 1.1
ItalicAngle: -12
UnderlinePosition: -35
UnderlineWidth: 30
Ascent: 800
Descent: 200
Order2: 1
XUID: [1021 375 425136265 8032488]
FSType: 0
OS2Version: 3
OS2_WeightWidthSlopeOnly: 0
OS2_UseTypoMetrics: 1
CreationTime: 1158666600
ModificationTime: 1174462511
PfmFamily: 17
TTFWeight: 700
TTFWidth: 5
LineGap: 60
VLineGap: 0
Panose: 2 0 5 6 0 0 0 2 0 4
OS2TypoAscent: 0
OS2TypoAOffset: 1
OS2TypoDescent: 0
OS2TypoDOffset: 1
OS2TypoLinegap: 0
OS2WinAscent: -2
OS2WinAOffset: 1
OS2WinDescent: -214
OS2WinDOffset: 1
HheadAscent: -2
HheadAOffset: 1
HheadDescent: 214
HheadDOffset: 1
OS2SubXSize: 700
OS2SubYSize: 650
OS2SubXOff: 0
OS2SubYOff: 140
OS2SupXSize: 700
OS2SupYSize: 650
OS2SupXOff: 0
OS2SupYOff: 477
OS2StrikeYSize: 30
OS2StrikeYPos: 250
OS2FamilyClass: 773
OS2Vendor: 'AS  '
ScriptLang: 2
 1 latn 1 dflt 
 0 
ChainSub: coverage 0 0 'liga' 0 0 0 1
 1 0 1
  Coverage: 64 uni0E48.alt2 uni0E49.alt2 uni0E4A.alt2 uni0E4B.alt2 uni0E4C.alt2
  FCoverage: 7 uni0E33
 1
  SeqLookup: 0 'L027'
EndFPST
ChainSub: coverage 0 0 'liga' 0 0 0 1
 1 1 0
  Coverage: 7 uni0E47
  BCoverage: 12 uni0E2C.alt1
 1
  SeqLookup: 0 'L026'
EndFPST
ChainSub: coverage 0 0 'liga' 0 0 0 1
 1 0 1
  Coverage: 7 uni0E2C
  FCoverage: 39 uni0E34 uni0E35 uni0E36 uni0E37 uni0E47
 1
  SeqLookup: 0 'L026'
EndFPST
ChainSub: coverage 0 0 'liga' 0 0 0 1
 1 0 1
  Coverage: 15 uni0E0E uni0E0F
  FCoverage: 38 uni0E38.alt1 uni0E39.alt1 uni0E3A.alt1
 1
  SeqLookup: 0 'L026'
EndFPST
ChainSub: coverage 0 0 'liga' 0 0 0 1
 1 1 0
  Coverage: 5 a b c
  BCoverage: 23 uni0E1B uni0E1D uni0E1F
 1
  SeqLookup: 0 'L026'
EndFPST
ChainSub: coverage 0 0 'liga' 0 0 0 1
 1 0 1
  Coverage: 5 a b c

StartChar: .notdef
Encoding: 65536 -1 0
Width: 403
Flags: W
Fore
348 0 m 1,0,-1
 26 0 l 1,1,-1
 148 576 l 1,2,-1
 471 576 l 1,3,-1
 348 0 l 1,0,-1
307 54 m 1,4,-1
 406 522 l 1,5,-1
 190 522 l 1,6,-1
 91 54 l 1,7,-1
 307 54 l 1,4,-1
EndSplineSet
EndChar
StartChar: numbersign
Encoding: 35 35 4
Width: 372
Flags: W
Fore
361 224 m 1,0,-1
 307 224 l 1,1,-1
 278 134 l 1,2,-1
 332 134 l 1,3,-1
 315 80 l 1,4,-1
 261 80 l 1,5,-1
 235 0 l 1,6,-1
 181 0 l 1,7,-1
 207 80 l 1,8,-1
 153 80 l 1,9,-1
 127 0 l 1,10,-1
 73 0 l 1,11,-1
 99 80 l 1,12,-1
 45 80 l 1,13,-1
 63 134 l 1,14,-1
 117 134 l 1,15,-1
 145 224 l 1,16,-1
 91 224 l 1,17,-1
 108 278 l 1,18,-1
 162 278 l 1,19,-1
 188 359 l 1,20,-1
 242 359 l 1,21,-1
 216 278 l 1,22,-1
 270 278 l 1,23,-1
 296 359 l 1,24,-1
 350 359 l 1,25,-1
 324 278 l 1,26,-1
 378 278 l 1,27,-1
 361 224 l 1,0,-1
225 134 m 1,28,-1
 253 224 l 1,29,-1
 199 224 l 1,30,-1
 171 134 l 1,31,-1
 225 134 l 1,28,-1
EndSplineSet
EndChar
StartChar: dollar
Encoding: 36 36 5
Width: 385
Flags: W
Fore
343 53 m 1,0,-1
 278 0 l 1,1,-1
 206 0 l 1,2,-1
 198 -36 l 1,3,-1
 144 -36 l 1,4,-1
 152 0 l 1,5,-1
 89 0 l 1,6,-1
 46 53 l 1,7,-1
 55 98 l 1,8,-1
 109 98 l 1,9,-1
 105 76 l 1,10,-1
 122 54 l 1,11,-1
 267 54 l 1,12,-1
 294 76 l 1,13,-1
 309 148 l 1,14,-1
 292 170 l 1,15,-1
 116 170 l 1,16,-1
 73 224 l 1,17,-1
 98 342 l 1,18,-1
 163 395 l 1,19,-1
 235 395 l 1,20,-1
 243 431 l 1,21,-1
 297 431 l 1,22,-1
 289 395 l 1,23,-1
 352 395 l 1,24,-1
 395 341 l 1,25,-1
 385 296 l 1,26,-1
 331 296 l 1,27,-1
 336 319 l 1,28,-1
 319 341 l 1,29,-1
 174 341 l 1,30,-1
 147 319 l 1,31,-1
 132 247 l 1,32,-1
 149 224 l 1,33,-1
 325 224 l 1,34,-1
 368 171 l 1,35,-1
 343 53 l 1,0,-1
EndSplineSet
EndChar
StartChar: percent
Encoding: 37 37 6
Width: 461
Flags: W
Fore
199 233 m 1,0,-1
 121 233 l 1,1,-1
 88 275 l 1,2,-1
 105 353 l 1,3,-1
 156 395 l 1,4,-1
 234 395 l 1,5,-1
 267 353 l 1,6,-1
 250 275 l 1,7,-1
 199 233 l 1,0,-1
146 335 m 1,8,-1
 137 294 l 1,9,-1
 150 279 l 1,10,-1
 190 279 l 1,11,-1
 209 294 l 1,12,-1
 218 335 l 1,13,-1
 205 350 l 1,14,-1
 165 350 l 1,15,-1
 146 335 l 1,8,-1
408 197 m 1,16,-1
 441 155 l 1,17,-1
 424 78 l 1,18,-1
 373 36 l 1,19,-1
 295 36 l 1,20,-1
 262 78 l 1,21,-1
 279 155 l 1,22,-1
 330 197 l 1,23,-1
 408 197 l 1,16,-1
383 96 m 1,24,-1
 392 137 l 1,25,-1
 379 152 l 1,26,-1
 339 152 l 1,27,-1
 320 137 l 1,28,-1
 311 96 l 1,29,-1
 324 81 l 1,30,-1
 364 81 l 1,31,-1
 383 96 l 1,24,-1
402 431 m 1,32,-1
 464 431 l 1,33,-1
 128 0 l 1,34,-1
 66 0 l 1,35,-1
 402 431 l 1,32,-1
EndSplineSet
EndChar
StartChar: ampersand
Encoding: 38 38 7
Width: 421
Flags: W
Fore
418 242 m 1,0,-1
 407 188 l 1,1,-1
 371 188 l 1,2,-1
 342 53 l 1,3,-1
 277 0 l 1,4,-1
 79 0 l 1,5,-1
 37 53 l 1,6,-1
 65 188 l 1,7,-1
 108 224 l 1,8,-1
 94 242 l 1,9,-1
 123 378 l 1,10,-1
 188 431 l 1,11,-1
 350 431 l 1,12,-1
 393 377 l 1,13,-1
 383 332 l 1,14,-1
 329 332 l 1,15,-1
 334 355 l 1,16,-1
 317 377 l 1,17,-1
 199 377 l 1,18,-1
 172 355 l 1,19,-1
 153 265 l 1,20,-1
 170 242 l 1,21,-1
 328 242 l 1,22,-1
 334 269 l 1,23,-1
 388 269 l 1,24,-1
 382 242 l 1,25,-1
 418 242 l 1,0,-1
293 76 m 1,26,-1
 317 188 l 1,27,-1
 141 188 l 1,28,-1
 114 166 l 1,29,-1
 95 76 l 1,30,-1
 112 53 l 1,31,-1
 266 53 l 1,32,-1
 293 76 l 1,26,-1
EndSplineSet
EndChar
StartChar: quotesingle
Encoding: 39 39 8
Width: 136
Flags: W
Fore
109 342 m 1,0,-1
 119 432 l 1,1,-1
 173 432 l 1,2,-1
 145 342 l 1,3,-1
 109 342 l 1,0,-1
EndSplineSet
EndChar
StartChar: parenleft
Encoding: 40 40 9
Width: 187
Flags: W
Fore
171 429 m 1,0,-1
 82 6 l 1,1,-1
 99 -16 l 1,2,-1
 131 -16 l 1,3,-1
 119 -70 l 1,4,-1
 65 -70 l 1,5,-1
 24 -17 l 1,6,-1
 122 451 l 1,7,-1
 188 505 l 1,8,-1
 242 505 l 1,9,-1
 230 451 l 1,10,-1
 198 451 l 1,11,-1
 171 429 l 1,0,-1
EndSplineSet
EndChar
StartChar: parenright
Encoding: 41 41 10
Width: 161
Flags: W
Fore
161 505 m 1,0,-1
 203 451 l 1,1,-1
 104 -17 l 1,2,-1
 39 -70 l 1,3,-1
 -15 -70 l 1,4,-1
 -3 -16 l 1,5,-1
 29 -16 l 1,6,-1
 55 6 l 1,7,-1
 144 429 l 1,8,-1
 127 451 l 1,9,-1
 95 451 l 1,10,-1
 107 505 l 1,11,-1
 161 505 l 1,0,-1
EndSplineSet
EndChar
StartChar: asterisk
Encoding: 42 42 11
Width: 247
Flags: W
Fore
206 334 m 1,0,-1
 169 287 l 1,1,-1
 140 312 l 1,2,-1
 135 270 l 1,3,-1
 81 270 l 1,4,-1
 94 312 l 1,5,-1
 56 287 l 1,6,-1
 39 334 l 1,7,-1
 81 351 l 1,8,-1
 46 368 l 1,9,-1
 83 415 l 1,10,-1
 111 391 l 1,11,-1
 116 432 l 1,12,-1
 170 432 l 1,13,-1
 157 391 l 1,14,-1
 196 415 l 1,15,-1
 213 368 l 1,16,-1
 172 351 l 1,17,-1
 206 334 l 1,0,-1
EndSplineSet
EndChar
StartChar: plus
Encoding: 43 43 12
Width: 439
Flags: W
Fore
377 189 m 1,0,-1
 233 189 l 1,1,-1
 202 45 l 1,2,-1
 148 45 l 1,3,-1
 179 189 l 1,4,-1
 35 189 l 1,5,-1
 46 243 l 1,6,-1
 190 243 l 1,7,-1
 221 386 l 1,8,-1
 275 386 l 1,9,-1
 244 243 l 1,10,-1
 388 243 l 1,11,-1
 377 189 l 1,0,-1
EndSplineSet
EndChar
StartChar: comma
Encoding: 44 44 13
Width: 172
Flags: W
Fore
144 63 m 1,0,-1
 136 26 l 1,1,-1
 65 -54 l 1,2,-1
 29 -54 l 1,3,-1
 71 0 l 1,4,-1
 67 0 l 1,5,-1
 46 26 l 1,6,-1
 54 63 l 1,7,-1
 86 89 l 1,8,-1
 123 89 l 1,9,-1
 144 63 l 1,0,-1
EndSplineSet
EndChar
StartChar: hyphen
Encoding: 45 45 14
Width: 278
Flags: W
Fore
225 135 m 1,0,-1
 27 135 l 1,1,-1
 38 189 l 1,2,-1
 236 189 l 1,3,-1
 225 135 l 1,0,-1
EndSplineSet
EndChar
StartChar: period
Encoding: 46 46 15
Width: 172
Flags: W
Fore
131 63 m 1,0,-1
 124 26 l 1,1,-1
 91 0 l 1,2,-1
 54 0 l 1,3,-1
 34 26 l 1,4,-1
 41 63 l 1,5,-1
 73 89 l 1,6,-1
 110 89 l 1,7,-1
 131 63 l 1,0,-1
EndSplineSet
EndChar
StartChar: slash
Encoding: 47 47 16
Width: 360
Flags: W
Fore
334 432 m 1,0,-1
 396 432 l 1,1,-1
 60 0 l 1,2,-1
 -1 0 l 1,3,-1
 334 432 l 1,0,-1
EndSplineSet
EndChar
StartChar: zero
Encoding: 48 48 17
Width: 367
Flags: W
Fore
351 432 m 1,0,-1
 394 378 l 1,1,-1
 325 54 l 1,2,-1
 260 0 l 1,3,-1
 80 0 l 1,4,-1
 38 54 l 1,5,-1
 106 378 l 1,6,-1
 171 432 l 1,7,-1
 351 432 l 1,0,-1
276 76 m 1,8,-1
 335 356 l 1,9,-1
 317 378 l 1,10,-1
 182 378 l 1,11,-1
 155 356 l 1,12,-1
 96 77 l 1,13,-1
 113 54 l 1,14,-1
 249 54 l 1,15,-1
 276 76 l 1,8,-1
EndSplineSet
EndChar
StartChar: one
Encoding: 49 49 18
Width: 203
Flags: W
Fore
240 432 m 1,0,-1
 149 0 l 1,1,-1
 95 0 l 1,2,-1
 170 356 l 1,3,-1
 140 331 l 1,4,-1
 110 369 l 1,5,-1
 187 432 l 1,6,-1
 240 432 l 1,0,-1
EndSplineSet
EndChar
StartChar: two
Encoding: 50 50 19
Width: 367
Flags: W
Fore
322 54 m 1,0,-1
 311 0 l 1,1,-1
 24 0 l 1,2,-1
 45 99 l 1,3,-1
 311 297 l 1,4,-1
 323 356 l 1,5,-1
 306 378 l 1,6,-1
 179 378 l 1,7,-1
 152 356 l 1,8,-1
 148 334 l 1,9,-1
 94 334 l 1,10,-1
 103 378 l 1,11,-1
 168 432 l 1,12,-1
 339 432 l 1,13,-1
 382 378 l 1,14,-1
 361 279 l 1,15,-1
 94 81 l 1,16,-1
 88 54 l 1,17,-1
 322 54 l 1,0,-1
EndSplineSet
EndChar
StartChar: three
Encoding: 51 51 20
Width: 367
Flags: W
Fore
351 431 m 1,0,-1
 394 377 l 1,1,-1
 369 260 l 1,2,-1
 336 234 l 1,3,-1
 358 207 l 1,4,-1
 325 54 l 1,5,-1
 260 0 l 1,6,-1
 80 0 l 1,7,-1
 38 54 l 1,8,-1
 47 99 l 1,9,-1
 101 99 l 1,10,-1
 96 76 l 1,11,-1
 113 54 l 1,12,-1
 249 54 l 1,13,-1
 276 76 l 1,14,-1
 299 185 l 1,15,-1
 282 207 l 1,16,-1
 160 207 l 1,17,-1
 171 261 l 1,18,-1
 293 261 l 1,19,-1
 320 283 l 1,20,-1
 335 355 l 1,21,-1
 318 377 l 1,22,-1
 191 377 l 1,23,-1
 164 355 l 1,24,-1
 159 333 l 1,25,-1
 105 333 l 1,26,-1
 115 377 l 1,27,-1
 180 431 l 1,28,-1
 351 431 l 1,0,-1
EndSplineSet
EndChar
StartChar: four
Encoding: 52 52 21
Width: 358
Flags: W
Fore
329 117 m 1,0,-1
 318 63 l 1,1,-1
 291 63 l 1,2,-1
 278 0 l 1,3,-1
 224 0 l 1,4,-1
 237 63 l 1,5,-1
 40 63 l 1,6,-1
 56 144 l 1,7,-1
 279 432 l 1,8,-1
 369 432 l 1,9,-1
 302 117 l 1,10,-1
 329 117 l 1,0,-1
104 117 m 1,11,-1
 248 117 l 1,12,-1
 304 378 l 1,13,-1
 294 378 l 1,14,-1
 109 139 l 1,15,-1
 104 117 l 1,11,-1
EndSplineSet
EndChar
StartChar: five
Encoding: 53 53 22
Width: 368
Flags: W
Fore
319 279 m 1,0,-1
 361 226 l 1,1,-1
 324 54 l 1,2,-1
 260 0 l 1,3,-1
 80 0 l 1,4,-1
 38 54 l 1,5,-1
 47 100 l 1,6,-1
 101 100 l 1,7,-1
 96 77 l 1,8,-1
 113 54 l 1,9,-1
 248 54 l 1,10,-1
 275 76 l 1,11,-1
 302 203 l 1,12,-1
 284 225 l 1,13,-1
 73 225 l 1,14,-1
 117 432 l 1,15,-1
 386 432 l 1,16,-1
 375 378 l 1,17,-1
 160 378 l 1,18,-1
 139 279 l 1,19,-1
 319 279 l 1,0,-1
EndSplineSet
EndChar
StartChar: six
Encoding: 54 54 23
Width: 368
Flags: W
Fore
318 280 m 1,0,-1
 361 226 l 1,1,-1
 324 54 l 1,2,-1
 260 0 l 1,3,-1
 79 0 l 1,4,-1
 37 54 l 1,5,-1
 105 378 l 1,6,-1
 170 432 l 1,7,-1
 341 432 l 1,8,-1
 384 378 l 1,9,-1
 375 334 l 1,10,-1
 321 334 l 1,11,-1
 325 356 l 1,12,-1
 308 378 l 1,13,-1
 181 378 l 1,14,-1
 154 356 l 1,15,-1
 138 280 l 1,16,-1
 318 280 l 1,0,-1
275 76 m 1,17,-1
 302 203 l 1,18,-1
 285 226 l 1,19,-1
 149 226 l 1,20,-1
 122 204 l 1,21,-1
 95 77 l 1,22,-1
 113 54 l 1,23,-1
 248 54 l 1,24,-1
 275 76 l 1,17,-1
EndSplineSet
EndChar
StartChar: seven
Encoding: 55 55 24
Width: 370
Flags: W
Fore
118 432 m 1,0,-1
 406 432 l 1,1,-1
 378 297 l 1,2,-1
 241 205 l 1,3,-1
 198 0 l 1,4,-1
 144 0 l 1,5,-1
 191 225 l 1,6,-1
 328 318 l 1,7,-1
 341 378 l 1,8,-1
 161 378 l 1,9,-1
 152 334 l 1,10,-1
 98 334 l 1,11,-1
 118 432 l 1,0,-1
EndSplineSet
EndChar
StartChar: eight
Encoding: 56 56 25
Width: 368
Flags: W
Fore
317 243 m 1,0,-1
 346 207 l 1,1,-1
 313 54 l 1,2,-1
 248 0 l 1,3,-1
 68 0 l 1,4,-1
 26 54 l 1,5,-1
 58 208 l 1,6,-1
 101 243 l 1,7,-1
 87 261 l 1,8,-1
 112 378 l 1,9,-1
 177 432 l 1,10,-1
 321 432 l 1,11,-1
 364 378 l 1,12,-1
 339 261 l 1,13,-1
 317 243 l 1,0,-1
161 356 m 1,14,-1
 146 283 l 1,15,-1
 163 261 l 1,16,-1
 263 261 l 1,17,-1
 290 283 l 1,18,-1
 305 356 l 1,19,-1
 288 378 l 1,20,-1
 188 378 l 1,21,-1
 161 356 l 1,14,-1
264 76 m 1,22,-1
 287 185 l 1,23,-1
 270 207 l 1,24,-1
 134 207 l 1,25,-1
 107 185 l 1,26,-1
 84 77 l 1,27,-1
 101 54 l 1,28,-1
 237 54 l 1,29,-1
 264 76 l 1,22,-1
EndSplineSet
EndChar
StartChar: nine
Encoding: 57 57 26
Width: 368
Flags: W
Fore
350 432 m 1,0,-1
 393 378 l 1,1,-1
 324 54 l 1,2,-1
 260 0 l 1,3,-1
 79 0 l 1,4,-1
 37 54 l 1,5,-1
 46 100 l 1,6,-1
 100 100 l 1,7,-1
 95 77 l 1,8,-1
 113 54 l 1,9,-1
 248 54 l 1,10,-1
 275 76 l 1,11,-1
 291 154 l 1,12,-1
 111 154 l 1,13,-1
 69 208 l 1,14,-1
 105 378 l 1,15,-1
 170 432 l 1,16,-1
 350 432 l 1,0,-1
307 230 m 1,17,-1
 334 356 l 1,18,-1
 317 378 l 1,19,-1
 181 378 l 1,20,-1
 154 356 l 1,21,-1
 127 230 l 1,22,-1
 146 208 l 1,23,-1
 281 208 l 1,24,-1
 307 230 l 1,17,-1
EndSplineSet
EndChar
StartChar: colon
Encoding: 58 58 27
Width: 172
Flags: W
Fore
74 90 m 1,0,-1
 111 90 l 1,1,-1
 132 63 l 1,2,-1
 124 26 l 1,3,-1
 92 0 l 1,4,-1
 55 0 l 1,5,-1
 34 26 l 1,6,-1
 42 63 l 1,7,-1
 74 90 l 1,0,-1
149 270 m 1,8,-1
 170 243 l 1,9,-1
 163 206 l 1,10,-1
 130 180 l 1,11,-1
 93 180 l 1,12,-1
 73 206 l 1,13,-1
 80 243 l 1,14,-1
 112 270 l 1,15,-1
 149 270 l 1,8,-1
EndSplineSet
EndChar
StartChar: semicolon
Encoding: 59 59 28
Width: 172
Flags: W
Fore
160 270 m 1,0,-1
 181 243 l 1,1,-1
 173 206 l 1,2,-1
 141 180 l 1,3,-1
 104 180 l 1,4,-1
 83 206 l 1,5,-1
 91 243 l 1,6,-1
 123 270 l 1,7,-1
 160 270 l 1,0,-1
85 90 m 1,8,-1
 122 90 l 1,9,-1
 143 63 l 1,10,-1
 135 26 l 1,11,-1
 64 -54 l 1,12,-1
 29 -54 l 1,13,-1
 70 0 l 1,14,-1
 66 0 l 1,15,-1
 45 26 l 1,16,-1
 53 63 l 1,17,-1
 85 90 l 1,8,-1
EndSplineSet
EndChar
StartChar: less
Encoding: 60 60 29
Width: 421
Flags: W
Fore
389 301 m 1,0,-1
 110 181 l 1,1,-1
 338 60 l 1,2,-1
 325 1 l 1,3,-1
 34 154 l 1,4,-1
 45 208 l 1,5,-1
 402 360 l 1,6,-1
 389 301 l 1,0,-1
EndSplineSet
EndChar
StartChar: equal
Encoding: 61 61 30
Width: 439
Flags: W
Fore
416 306 m 1,0,-1
 404 252 l 1,1,-1
 63 252 l 1,2,-1
 75 306 l 1,3,-1
 416 306 l 1,0,-1
48 180 m 1,4,-1
 389 180 l 1,5,-1
 377 126 l 1,6,-1
 36 126 l 1,7,-1
 48 180 l 1,4,-1
EndSplineSet
EndChar
StartChar: greater
Encoding: 62 62 31
Width: 421
Flags: W
Fore
402 208 m 1,0,-1
 391 154 l 1,1,-1
 35 1 l 1,2,-1
 47 60 l 1,3,-1
 328 181 l 1,4,-1
 98 301 l 1,5,-1
 111 360 l 1,6,-1
 402 208 l 1,0,-1
EndSplineSet
EndChar
StartChar: question
Encoding: 63 63 32
Width: 368
Flags: W
Fore
394 378 m 1,0,-1
 373 279 l 1,1,-1
 235 182 l 1,2,-1
 216 90 l 1,3,-1
 162 90 l 1,4,-1
 187 207 l 1,5,-1
 324 304 l 1,6,-1
 335 356 l 1,7,-1
 317 378 l 1,8,-1
 182 378 l 1,9,-1
 155 356 l 1,10,-1
 150 333 l 1,11,-1
 96 333 l 1,12,-1
 106 378 l 1,13,-1
 171 432 l 1,14,-1
 351 432 l 1,15,-1
 394 378 l 1,0,-1
170 63 m 1,16,-1
 196 63 l 1,17,-1
 211 45 l 1,18,-1
 206 19 l 1,19,-1
 183 0 l 1,20,-1
 157 0 l 1,21,-1
 143 19 l 1,22,-1
 148 45 l 1,23,-1
 170 63 l 1,16,-1
EndSplineSet
EndChar
StartChar: at
Encoding: 64 64 33
Width: 475
Flags: W
Fore
396 341 m 1,0,-1
 482 233 l 1,1,-1
 453 99 l 1,2,-1
 388 45 l 1,3,-1
 298 45 l 1,4,-1
 303 72 l 1,5,-1
 271 45 l 1,6,-1
 190 45 l 1,7,-1
 147 99 l 1,8,-1
 166 189 l 1,9,-1
 232 243 l 1,10,-1
 340 243 l 1,11,-1
 382 189 l 1,12,-1
 363 99 l 1,13,-1
 377 99 l 1,14,-1
 404 121 l 1,15,-1
 423 211 l 1,16,-1
 363 288 l 1,17,-1
 228 288 l 1,18,-1
 135 211 l 1,19,-1
 106 76 l 1,20,-1
 167 0 l 1,21,-1
 396 0 l 1,22,-1
 385 -54 l 1,23,-1
 133 -54 l 1,24,-1
 47 54 l 1,25,-1
 86 233 l 1,26,-1
 217 341 l 1,27,-1
 396 341 l 1,0,-1
260 99 m 1,28,-1
 319 148 l 1,29,-1
 323 166 l 1,30,-1
 306 189 l 1,31,-1
 242 189 l 1,32,-1
 215 167 l 1,33,-1
 206 121 l 1,34,-1
 224 99 l 1,35,-1
 260 99 l 1,28,-1
EndSplineSet
EndChar
StartChar: A
Encoding: 65 65 34
Width: 385
Flags: W
Fore
306 431 m 1,0,-1
 383 242 l 1,1,-1
 332 0 l 1,2,-1
 278 0 l 1,3,-1
 303 117 l 1,4,-1
 106 117 l 1,5,-1
 81 0 l 1,6,-1
 28 0 l 1,7,-1
 78 242 l 1,8,-1
 235 431 l 1,9,-1
 306 431 l 1,0,-1
117 171 m 1,10,-1
 314 171 l 1,11,-1
 326 227 l 1,12,-1
 265 377 l 1,13,-1
 254 377 l 1,14,-1
 129 227 l 1,15,-1
 117 171 l 1,10,-1
EndSplineSet
EndChar
StartChar: B
Encoding: 66 66 35
Width: 368
Flags: W
Fore
326 224 m 1,0,-1
 355 189 l 1,1,-1
 326 53 l 1,2,-1
 261 0 l 1,3,-1
 28 0 l 1,4,-1
 118 431 l 1,5,-1
 334 431 l 1,6,-1
 377 377 l 1,7,-1
 348 242 l 1,8,-1
 326 224 l 1,0,-1
301 377 m 1,9,-1
 161 377 l 1,10,-1
 132 243 l 1,11,-1
 272 243 l 1,12,-1
 299 265 l 1,13,-1
 318 355 l 1,14,-1
 301 377 l 1,9,-1
277 76 m 1,15,-1
 296 166 l 1,16,-1
 279 189 l 1,17,-1
 121 189 l 1,18,-1
 92 54 l 1,19,-1
 250 54 l 1,20,-1
 277 76 l 1,15,-1
EndSplineSet
EndChar
StartChar: C
Encoding: 67 67 36
Width: 385
Flags: W
Fore
402 332 m 1,0,-1
 348 332 l 1,1,-1
 353 355 l 1,2,-1
 336 377 l 1,3,-1
 182 377 l 1,4,-1
 155 355 l 1,5,-1
 96 76 l 1,6,-1
 113 54 l 1,7,-1
 267 54 l 1,8,-1
 294 76 l 1,9,-1
 299 99 l 1,10,-1
 353 99 l 1,11,-1
 343 53 l 1,12,-1
 278 0 l 1,13,-1
 80 0 l 1,14,-1
 38 54 l 1,15,-1
 106 378 l 1,16,-1
 171 431 l 1,17,-1
 369 431 l 1,18,-1
 412 377 l 1,19,-1
 402 332 l 1,0,-1
EndSplineSet
EndChar
StartChar: D
Encoding: 68 68 37
Width: 385
Flags: W
Fore
367 431 m 1,0,-1
 410 377 l 1,1,-1
 341 54 l 1,2,-1
 276 0 l 1,3,-1
 25 0 l 1,4,-1
 115 431 l 1,5,-1
 367 431 l 1,0,-1
292 76 m 1,6,-1
 351 355 l 1,7,-1
 334 377 l 1,8,-1
 158 377 l 1,9,-1
 89 54 l 1,10,-1
 265 54 l 1,11,-1
 292 76 l 1,6,-1
EndSplineSet
EndChar
StartChar: E
Encoding: 69 69 38
Width: 368
Flags: W
Fore
155 355 m 1,0,-1
 131 243 l 1,1,-1
 347 243 l 1,2,-1
 336 189 l 1,3,-1
 120 189 l 1,4,-1
 96 76 l 1,5,-1
 113 54 l 1,6,-1
 325 54 l 1,7,-1
 314 0 l 1,8,-1
 80 0 l 1,9,-1
 38 54 l 1,10,-1
 106 377 l 1,11,-1
 171 431 l 1,12,-1
 405 431 l 1,13,-1
 394 377 l 1,14,-1
 182 377 l 1,15,-1
 155 355 l 1,0,-1
EndSplineSet
EndChar
StartChar: F
Encoding: 70 70 39
Width: 368
Flags: W
Fore
183 377 m 1,0,-1
 156 355 l 1,1,-1
 132 243 l 1,2,-1
 347 243 l 1,3,-1
 336 189 l 1,4,-1
 121 189 l 1,5,-1
 81 0 l 1,6,-1
 28 0 l 1,7,-1
 107 377 l 1,8,-1
 172 431 l 1,9,-1
 405 431 l 1,10,-1
 394 377 l 1,11,-1
 183 377 l 1,0,-1
EndSplineSet
EndChar
StartChar: G
Encoding: 71 71 40
Width: 386
Flags: W
Fore
402 332 m 1,0,-1
 348 332 l 1,1,-1
 353 355 l 1,2,-1
 336 377 l 1,3,-1
 183 377 l 1,4,-1
 155 355 l 1,5,-1
 96 76 l 1,6,-1
 114 54 l 1,7,-1
 267 54 l 1,8,-1
 294 76 l 1,9,-1
 318 189 l 1,10,-1
 210 189 l 1,11,-1
 221 243 l 1,12,-1
 383 243 l 1,13,-1
 343 53 l 1,14,-1
 279 0 l 1,15,-1
 80 0 l 1,16,-1
 39 54 l 1,17,-1
 107 378 l 1,18,-1
 171 431 l 1,19,-1
 369 431 l 1,20,-1
 412 377 l 1,21,-1
 402 332 l 1,0,-1
EndSplineSet
EndChar
StartChar: H
Encoding: 72 72 41
Width: 385
Flags: W
Fore
368 431 m 1,0,-1
 422 431 l 1,1,-1
 331 0 l 1,2,-1
 277 0 l 1,3,-1
 317 189 l 1,4,-1
 120 189 l 1,5,-1
 80 0 l 1,6,-1
 27 0 l 1,7,-1
 117 431 l 1,8,-1
 171 431 l 1,9,-1
 131 243 l 1,10,-1
 328 243 l 1,11,-1
 368 431 l 1,0,-1
EndSplineSet
EndChar
StartChar: I
Encoding: 73 73 42
Width: 134
Flags: W
Fore
26 0 m 1,0,-1
 116 431 l 1,1,-1
 170 431 l 1,2,-1
 79 0 l 1,3,-1
 26 0 l 1,0,-1
EndSplineSet
EndChar
StartChar: J
Encoding: 74 74 43
Width: 350
Flags: W
Fore
106 126 m 1,0,-1
 96 76 l 1,1,-1
 114 54 l 1,2,-1
 231 54 l 1,3,-1
 258 76 l 1,4,-1
 333 431 l 1,5,-1
 387 431 l 1,6,-1
 307 53 l 1,7,-1
 242 0 l 1,8,-1
 80 0 l 1,9,-1
 38 54 l 1,10,-1
 52 126 l 1,11,-1
 106 126 l 1,0,-1
EndSplineSet
EndChar
StartChar: K
Encoding: 75 75 44
Width: 385
Flags: W
Fore
368 431 m 1,0,-1
 422 431 l 1,1,-1
 396 306 l 1,2,-1
 286 216 l 1,3,-1
 357 125 l 1,4,-1
 331 0 l 1,5,-1
 277 0 l 1,6,-1
 300 109 l 1,7,-1
 237 189 l 1,8,-1
 119 189 l 1,9,-1
 79 0 l 1,10,-1
 26 0 l 1,11,-1
 116 431 l 1,12,-1
 170 431 l 1,13,-1
 130 243 l 1,14,-1
 248 243 l 1,15,-1
 345 322 l 1,16,-1
 368 431 l 1,0,-1
EndSplineSet
EndChar
StartChar: L
Encoding: 76 76 45
Width: 350
Flags: W
Fore
90 54 m 1,0,-1
 306 54 l 1,1,-1
 295 0 l 1,2,-1
 26 0 l 1,3,-1
 116 431 l 1,4,-1
 170 431 l 1,5,-1
 90 54 l 1,0,-1
EndSplineSet
EndChar
StartChar: M
Encoding: 77 77 46
Width: 495
Flags: W
Fore
531 431 m 1,0,-1
 440 0 l 1,1,-1
 387 0 l 1,2,-1
 449 294 l 1,3,-1
 261 0 l 1,4,-1
 207 0 l 1,5,-1
 143 294 l 1,6,-1
 81 0 l 1,7,-1
 28 0 l 1,8,-1
 118 431 l 1,9,-1
 172 431 l 1,10,-1
 249 74 l 1,11,-1
 478 431 l 1,12,-1
 531 431 l 1,13,-1
 531 431 l 1,0,-1
EndSplineSet
EndChar
StartChar: N
Encoding: 78 78 47
Width: 386
Flags: W
Fore
369 431 m 1,0,-1
 423 431 l 1,1,-1
 332 0 l 1,2,-1
 277 0 l 1,3,-1
 149 327 l 1,4,-1
 80 0 l 1,5,-1
 27 0 l 1,6,-1
 117 431 l 1,7,-1
 171 431 l 1,8,-1
 300 103 l 1,9,-1
 369 431 l 1,0,-1
EndSplineSet
EndChar
StartChar: O
Encoding: 79 79 48
Width: 404
Flags: W
Fore
387 431 m 1,0,-1
 430 377 l 1,1,-1
 361 53 l 1,2,-1
 296 0 l 1,3,-1
 80 0 l 1,4,-1
 38 54 l 1,5,-1
 106 378 l 1,6,-1
 171 431 l 1,7,-1
 387 431 l 1,0,-1
312 76 m 1,8,-1
 371 355 l 1,9,-1
 354 377 l 1,10,-1
 182 377 l 1,11,-1
 155 355 l 1,12,-1
 96 76 l 1,13,-1
 113 54 l 1,14,-1
 285 54 l 1,15,-1
 312 76 l 1,8,-1
EndSplineSet
EndChar
StartChar: P
Encoding: 80 80 49
Width: 368
Flags: W
Fore
350 431 m 1,0,-1
 392 377 l 1,1,-1
 363 242 l 1,2,-1
 299 189 l 1,3,-1
 119 189 l 1,4,-1
 79 0 l 1,5,-1
 26 0 l 1,6,-1
 116 431 l 1,7,-1
 350 431 l 1,0,-1
314 265 m 1,8,-1
 333 355 l 1,9,-1
 316 377 l 1,10,-1
 159 377 l 1,11,-1
 130 243 l 1,12,-1
 287 243 l 1,13,-1
 314 265 l 1,8,-1
EndSplineSet
EndChar
StartChar: Q
Encoding: 81 81 50
Width: 405
Flags: W
Fore
365 -19 m 1,0,-1
 323 -54 l 1,1,-1
 280 0 l 1,2,-1
 81 0 l 1,3,-1
 40 54 l 1,4,-1
 108 378 l 1,5,-1
 173 431 l 1,6,-1
 389 431 l 1,7,-1
 432 377 l 1,8,-1
 363 53 l 1,9,-1
 330 26 l 1,10,-1
 365 -19 l 1,0,-1
98 76 m 1,11,-1
 115 54 l 1,12,-1
 287 54 l 1,13,-1
 314 76 l 1,14,-1
 373 355 l 1,15,-1
 356 377 l 1,16,-1
 184 377 l 1,17,-1
 157 355 l 1,18,-1
 98 76 l 1,11,-1
EndSplineSet
EndChar
StartChar: R
Encoding: 82 82 51
Width: 367
Flags: W
Fore
351 431 m 1,0,-1
 394 377 l 1,1,-1
 365 242 l 1,2,-1
 332 215 l 1,3,-1
 354 189 l 1,4,-1
 314 0 l 1,5,-1
 260 0 l 1,6,-1
 295 166 l 1,7,-1
 278 189 l 1,8,-1
 120 189 l 1,9,-1
 80 0 l 1,10,-1
 27 0 l 1,11,-1
 117 431 l 1,12,-1
 351 431 l 1,0,-1
316 265 m 1,13,-1
 335 355 l 1,14,-1
 318 377 l 1,15,-1
 160 377 l 1,16,-1
 131 243 l 1,17,-1
 289 243 l 1,18,-1
 316 265 l 1,13,-1
EndSplineSet
EndChar
StartChar: S
Encoding: 83 83 52
Width: 386
Flags: W
Fore
376 207 m 1,0,-1
 343 53 l 1,1,-1
 278 0 l 1,2,-1
 89 0 l 1,3,-1
 46 54 l 1,4,-1
 56 99 l 1,5,-1
 110 99 l 1,6,-1
 105 76 l 1,7,-1
 122 54 l 1,8,-1
 267 54 l 1,9,-1
 294 76 l 1,10,-1
 317 184 l 1,11,-1
 300 207 l 1,12,-1
 124 207 l 1,13,-1
 81 260 l 1,14,-1
 106 378 l 1,15,-1
 171 431 l 1,16,-1
 360 431 l 1,17,-1
 403 377 l 1,18,-1
 393 332 l 1,19,-1
 339 332 l 1,20,-1
 344 355 l 1,21,-1
 327 377 l 1,22,-1
 182 377 l 1,23,-1
 155 355 l 1,24,-1
 140 283 l 1,25,-1
 157 261 l 1,26,-1
 333 261 l 1,27,-1
 376 207 l 1,0,-1
EndSplineSet
EndChar
StartChar: T
Encoding: 84 84 53
Width: 387
Flags: W
Fore
424 431 m 1,0,-1
 413 377 l 1,1,-1
 288 377 l 1,2,-1
 208 0 l 1,3,-1
 154 0 l 1,4,-1
 234 377 l 1,5,-1
 108 377 l 1,6,-1
 119 431 l 1,7,-1
 424 431 l 1,0,-1
EndSplineSet
EndChar
StartChar: U
Encoding: 85 85 54
Width: 388
Flags: W
Fore
81 0 m 1,0,-1
 39 54 l 1,1,-1
 118 431 l 1,2,-1
 172 431 l 1,3,-1
 97 76 l 1,4,-1
 114 54 l 1,5,-1
 268 54 l 1,6,-1
 295 76 l 1,7,-1
 370 431 l 1,8,-1
 424 431 l 1,9,-1
 344 53 l 1,10,-1
 279 0 l 1,11,-1
 81 0 l 1,0,-1
EndSplineSet
EndChar
StartChar: V
Encoding: 86 86 55
Width: 386
Flags: W
Fore
369 431 m 1,0,-1
 423 431 l 1,1,-1
 372 189 l 1,2,-1
 215 0 l 1,3,-1
 143 0 l 1,4,-1
 66 189 l 1,5,-1
 117 431 l 1,6,-1
 171 431 l 1,7,-1
 123 205 l 1,8,-1
 184 54 l 1,9,-1
 195 54 l 1,10,-1
 321 205 l 1,11,-1
 369 431 l 1,0,-1
EndSplineSet
EndChar
StartChar: W
Encoding: 87 87 56
Width: 529
Flags: W
Fore
513 431 m 1,0,-1
 567 431 l 1,1,-1
 516 188 l 1,2,-1
 386 0 l 1,3,-1
 314 0 l 1,4,-1
 279 132 l 1,5,-1
 188 0 l 1,6,-1
 116 0 l 1,7,-1
 66 189 l 1,8,-1
 117 431 l 1,9,-1
 171 431 l 1,10,-1
 122 201 l 1,11,-1
 162 50 l 1,12,-1
 266 200 l 1,13,-1
 315 431 l 1,14,-1
 369 431 l 1,15,-1
 320 201 l 1,16,-1
 360 50 l 1,17,-1
 464 200 l 1,18,-1
 513 431 l 1,0,-1
EndSplineSet
EndChar
StartChar: X
Encoding: 88 88 57
Width: 386
Flags: W
Fore
369 431 m 1,0,-1
 423 431 l 1,1,-1
 397 307 l 1,2,-1
 287 216 l 1,3,-1
 358 125 l 1,4,-1
 332 0 l 1,5,-1
 278 0 l 1,6,-1
 301 109 l 1,7,-1
 238 189 l 1,8,-1
 200 189 l 1,9,-1
 103 109 l 1,10,-1
 80 0 l 1,11,-1
 27 0 l 1,12,-1
 52 125 l 1,13,-1
 163 216 l 1,14,-1
 91 307 l 1,15,-1
 117 431 l 1,16,-1
 171 431 l 1,17,-1
 148 323 l 1,18,-1
 211 243 l 1,19,-1
 249 243 l 1,20,-1
 346 323 l 1,21,-1
 369 431 l 1,0,-1
EndSplineSet
EndChar
StartChar: Y
Encoding: 89 89 58
Width: 386
Flags: W
Fore
369 431 m 1,0,-1
 423 431 l 1,1,-1
 395 296 l 1,2,-1
 248 197 l 1,3,-1
 206 0 l 1,4,-1
 152 0 l 1,5,-1
 194 198 l 1,6,-1
 89 297 l 1,7,-1
 117 431 l 1,8,-1
 171 431 l 1,9,-1
 148 323 l 1,10,-1
 231 245 l 1,11,-1
 346 323 l 1,12,-1
 369 431 l 1,0,-1
EndSplineSet
EndChar
StartChar: Z
Encoding: 90 90 59
Width: 386
Flags: W
Fore
117 431 m 1,0,-1
 422 431 l 1,1,-1
 401 333 l 1,2,-1
 96 76 l 1,3,-1
 91 54 l 1,4,-1
 342 54 l 1,5,-1
 331 0 l 1,6,-1
 27 0 l 1,7,-1
 47 99 l 1,8,-1
 352 355 l 1,9,-1
 357 377 l 1,10,-1
 106 377 l 1,11,-1
 117 431 l 1,0,-1
EndSplineSet
EndChar
StartChar: bracketleft
Encoding: 91 91 60
Width: 189
Flags: W
Fore
230 450 m 1,0,-1
 176 450 l 1,1,-1
 77 -17 l 1,2,-1
 131 -17 l 1,3,-1
 119 -71 l 1,4,-1
 12 -71 l 1,5,-1
 134 504 l 1,6,-1
 242 504 l 1,7,-1
 230 450 l 1,0,-1
EndSplineSet
EndChar
StartChar: backslash
Encoding: 92 92 61
Width: 360
Flags: W
Fore
91 431 m 1,0,-1
 153 431 l 1,1,-1
 307 0 l 1,2,-1
 245 0 l 1,3,-1
 91 431 l 1,0,-1
EndSplineSet
EndChar
StartChar: bracketright
Encoding: 93 93 62
Width: 161
Flags: W
Fore
107 504 m 1,0,-1
 215 504 l 1,1,-1
 92 -71 l 1,2,-1
 -15 -71 l 1,3,-1
 -3 -17 l 1,4,-1
 50 -17 l 1,5,-1
 149 450 l 1,6,-1
 95 450 l 1,7,-1
 107 504 l 1,0,-1
EndSplineSet
EndChar
StartChar: asciicircum
Encoding: 94 94 63
Width: 444
Flags: W
Fore
307 432 m 1,0,-1
 389 145 l 1,1,-1
 329 145 l 1,2,-1
 262 378 l 1,3,-1
 256 378 l 1,4,-1
 89 145 l 1,5,-1
 30 145 l 1,6,-1
 234 432 l 1,7,-1
 307 432 l 1,0,-1
EndSplineSet
EndChar
StartChar: underscore
Encoding: 95 95 64
Width: 388
Flags: W
Fore
334 -98 m 1,0,-1
 28 -98 l 1,1,-1
 39 -44 l 1,2,-1
 345 -44 l 1,3,-1
 334 -98 l 1,4,-1
 334 -98 l 1,0,-1
EndSplineSet
EndChar
StartChar: grave
Encoding: 96 96 65
Width: 165
Flags: W
Fore
147 343 m 1,0,-1
 112 432 l 1,1,-1
 175 432 l 1,2,-1
 183 343 l 1,3,-1
 147 343 l 1,0,-1
EndSplineSet
EndChar
StartChar: a
Encoding: 97 97 66
Width: 388
Flags: W
Fore
226 1 m 1,0,-1
 226 0 l 1,1,-1
 82 0 l 1,2,-1
 40 54 l 1,3,-1
 82 252 l 1,4,-1
 147 306 l 1,5,-1
 345 306 l 1,6,-1
 388 252 l 1,7,-1
 334 0 l 1,8,-1
 280 0 l 1,9,-1
 292 54 l 1,10,-1
 292 54 l 1,11,-1
 292 55 l 1,12,-1
 226 1 l 1,0,-1
116 54 m 1,13,-1
 221 54 l 1,14,-1
 306 124 l 1,15,-1
 329 230 l 1,16,-1
 311 252 l 1,17,-1
 158 252 l 1,18,-1
 131 230 l 1,19,-1
 99 77 l 1,20,-1
 116 54 l 1,13,-1
EndSplineSet
Substitution: 0 65534 'L026' uni0E38
Substitution: 0 65534 'L026' uni0E38
EndChar
StartChar: b
Encoding: 98 98 67
Width: 388
Flags: W
Fore
387 252 m 1,0,-1
 345 53 l 1,1,-1
 281 0 l 1,2,-1
 83 0 l 1,3,-1
 41 54 l 1,4,-1
 120 431 l 1,5,-1
 174 431 l 1,6,-1
 136 251 l 1,7,-1
 201 305 l 1,8,-1
 345 305 l 1,9,-1
 387 252 l 1,0,-1
269 54 m 1,10,-1
 296 76 l 1,11,-1
 328 229 l 1,12,-1
 311 251 l 1,13,-1
 206 251 l 1,14,-1
 121 181 l 1,15,-1
 99 76 l 1,16,-1
 116 54 l 1,17,-1
 269 54 l 1,10,-1
EndSplineSet
Substitution: 0 65534 'L026' uni0E39
Substitution: 0 65534 'L026' uni0E39
EndChar
StartChar: c
Encoding: 99 99 68
Width: 387
Flags: W
Fore
377 206 m 1,0,-1
 323 206 l 1,1,-1
 328 229 l 1,2,-1
 310 251 l 1,3,-1
 156 251 l 1,4,-1
 130 229 l 1,5,-1
 97 76 l 1,6,-1
 116 54 l 1,7,-1
 269 54 l 1,8,-1
 295 76 l 1,9,-1
 300 99 l 1,10,-1
 354 99 l 1,11,-1
 344 53 l 1,12,-1
 280 0 l 1,13,-1
 81 0 l 1,14,-1
 39 54 l 1,15,-1
 81 252 l 1,16,-1
 146 305 l 1,17,-1
 344 305 l 1,18,-1
 387 252 l 1,19,-1
 377 206 l 1,0,-1
EndSplineSet
Substitution: 0 65534 'L026' uni0E3A
Substitution: 0 65534 'L026' uni0E3A
EndChar
StartChar: d
Encoding: 100 100 69
Width: 387
Flags: W
Fore
370 431 m 1,0,-1
 424 431 l 1,1,-1
 344 54 l 1,2,-1
 279 0 l 1,3,-1
 81 0 l 1,4,-1
 39 53 l 1,5,-1
 80 252 l 1,6,-1
 146 305 l 1,7,-1
 290 305 l 1,8,-1
 332 251 l 1,9,-1
 370 431 l 1,0,-1
268 54 m 1,10,-1
 295 76 l 1,11,-1
 317 181 l 1,12,-1
 262 251 l 1,13,-1
 157 251 l 1,14,-1
 129 229 l 1,15,-1
 97 76 l 1,16,-1
 114 54 l 1,17,-1
 268 54 l 1,10,-1
EndSplineSet
EndChar
StartChar: e
Encoding: 101 101 70
Width: 386
Flags: W
Fore
344 305 m 1,0,-1
 387 252 l 1,1,-1
 362 135 l 1,2,-1
 110 135 l 1,3,-1
 97 76 l 1,4,-1
 115 54 l 1,5,-1
 269 54 l 1,6,-1
 295 76 l 1,7,-1
 300 99 l 1,8,-1
 354 99 l 1,9,-1
 344 53 l 1,10,-1
 279 0 l 1,11,-1
 81 0 l 1,12,-1
 39 54 l 1,13,-1
 81 252 l 1,14,-1
 146 305 l 1,15,-1
 344 305 l 1,0,-1
121 189 m 1,16,-1
 319 189 l 1,17,-1
 328 229 l 1,18,-1
 310 251 l 1,19,-1
 156 251 l 1,20,-1
 130 229 l 1,21,-1
 121 189 l 1,16,-1
EndSplineSet
EndChar
StartChar: f
Encoding: 102 102 71
Width: 224
Flags: W
Fore
183 378 m 1,0,-1
 156 356 l 1,1,-1
 140 279 l 1,2,-1
 230 279 l 1,3,-1
 218 225 l 1,4,-1
 128 225 l 1,5,-1
 53 -126 l 1,6,-1
 -1 -126 l 1,7,-1
 107 378 l 1,8,-1
 172 432 l 1,9,-1
 262 432 l 1,10,-1
 251 378 l 1,11,-1
 183 378 l 1,12,-1
 183 378 l 1,0,-1
EndSplineSet
EndChar
StartChar: g
Encoding: 103 103 72
Width: 390
Flags: W
Fore
391 252 m 1,0,-1
 322 -73 l 1,1,-1
 257 -126 l 1,2,-1
 149 -126 l 1,3,-1
 160 -72 l 1,4,-1
 246 -72 l 1,5,-1
 273 -50 l 1,6,-1
 295 54 l 1,7,-1
 229 0 l 1,8,-1
 85 0 l 1,9,-1
 44 54 l 1,10,-1
 85 252 l 1,11,-1
 150 305 l 1,12,-1
 348 305 l 1,13,-1
 391 252 l 1,0,-1
225 54 m 1,14,-1
 310 124 l 1,15,-1
 332 229 l 1,16,-1
 315 251 l 1,17,-1
 161 251 l 1,18,-1
 134 229 l 1,19,-1
 102 76 l 1,20,-1
 120 54 l 1,21,-1
 225 54 l 1,14,-1
EndSplineSet
EndChar
StartChar: h
Encoding: 104 104 73
Width: 371
Flags: W
Fore
328 305 m 1,0,-1
 370 252 l 1,1,-1
 317 0 l 1,2,-1
 263 0 l 1,3,-1
 311 229 l 1,4,-1
 294 251 l 1,5,-1
 207 251 l 1,6,-1
 121 181 l 1,7,-1
 83 0 l 1,8,-1
 30 0 l 1,9,-1
 120 431 l 1,10,-1
 174 431 l 1,11,-1
 136 251 l 1,12,-1
 202 305 l 1,13,-1
 328 305 l 1,0,-1
EndSplineSet
EndChar
StartChar: i
Encoding: 105 105 74
Width: 137
Flags: W
Fore
30 0 m 1,0,-1
 93 305 l 1,1,-1
 147 305 l 1,2,-1
 83 0 l 1,3,-1
 30 0 l 1,0,-1
150 391 m 1,4,-1
 166 373 l 1,5,-1
 160 347 l 1,6,-1
 137 328 l 1,7,-1
 111 328 l 1,8,-1
 97 347 l 1,9,-1
 103 373 l 1,10,-1
 124 391 l 1,11,-1
 150 391 l 1,4,-1
EndSplineSet
EndChar
StartChar: j
Encoding: 106 106 75
Width: 170
Flags: W
Fore
52 -50 m 1,0,-1
 128 305 l 1,1,-1
 182 305 l 1,2,-1
 101 -73 l 1,3,-1
 36 -126 l 1,4,-1
 -71 -126 l 1,5,-1
 -59 -72 l 1,6,-1
 27 -72 l 1,7,-1
 52 -50 l 1,0,-1
187 391 m 1,8,-1
 202 373 l 1,9,-1
 196 347 l 1,10,-1
 173 328 l 1,11,-1
 147 328 l 1,12,-1
 133 347 l 1,13,-1
 139 373 l 1,14,-1
 161 391 l 1,15,-1
 187 391 l 1,8,-1
EndSplineSet
EndChar
StartChar: k
Encoding: 107 107 76
Width: 371
Flags: W
Fore
329 305 m 1,0,-1
 383 305 l 1,1,-1
 369 243 l 1,2,-1
 259 153 l 1,3,-1
 331 62 l 1,4,-1
 318 0 l 1,5,-1
 264 0 l 1,6,-1
 273 46 l 1,7,-1
 210 126 l 1,8,-1
 110 126 l 1,9,-1
 84 0 l 1,10,-1
 31 0 l 1,11,-1
 121 431 l 1,12,-1
 175 431 l 1,13,-1
 122 180 l 1,14,-1
 222 180 l 1,15,-1
 319 259 l 1,16,-1
 329 305 l 1,0,-1
EndSplineSet
EndChar
StartChar: l
Encoding: 108 108 77
Width: 137
Flags: W
Fore
31 0 m 1,0,-1
 121 431 l 1,1,-1
 175 431 l 1,2,-1
 84 0 l 1,3,-1
 31 0 l 1,0,-1
EndSplineSet
EndChar
StartChar: m
Encoding: 109 109 78
Width: 496
Flags: W
Fore
453 305 m 1,0,-1
 495 252 l 1,1,-1
 441 0 l 1,2,-1
 387 0 l 1,3,-1
 436 229 l 1,4,-1
 418 251 l 1,5,-1
 337 251 l 1,6,-1
 311 229 l 1,7,-1
 262 0 l 1,8,-1
 208 0 l 1,9,-1
 257 229 l 1,10,-1
 238 251 l 1,11,-1
 205 251 l 1,12,-1
 121 181 l 1,13,-1
 82 0 l 1,14,-1
 29 0 l 1,15,-1
 93 305 l 1,16,-1
 147 305 l 1,17,-1
 135 251 l 1,18,-1
 201 305 l 1,19,-1
 273 305 l 1,20,-1
 293 279 l 1,21,-1
 326 305 l 1,22,-1
 453 305 l 1,0,-1
EndSplineSet
EndChar
StartChar: n
Encoding: 110 110 79
Width: 369
Flags: W
Fore
326 305 m 1,0,-1
 369 252 l 1,1,-1
 315 0 l 1,2,-1
 261 0 l 1,3,-1
 310 229 l 1,4,-1
 292 251 l 1,5,-1
 205 251 l 1,6,-1
 120 181 l 1,7,-1
 81 0 l 1,8,-1
 28 0 l 1,9,-1
 92 305 l 1,10,-1
 146 305 l 1,11,-1
 134 251 l 1,12,-1
 200 305 l 1,13,-1
 326 305 l 1,0,-1
EndSplineSet
EndChar
StartChar: o
Encoding: 111 111 80
Width: 401
Flags: W
Fore
351 306 m 1,0,-1
 394 252 l 1,1,-1
 351 54 l 1,2,-1
 286 0 l 1,3,-1
 88 0 l 1,4,-1
 45 54 l 1,5,-1
 88 252 l 1,6,-1
 153 306 l 1,7,-1
 351 306 l 1,0,-1
302 76 m 1,8,-1
 335 230 l 1,9,-1
 317 252 l 1,10,-1
 164 252 l 1,11,-1
 137 230 l 1,12,-1
 104 77 l 1,13,-1
 121 54 l 1,14,-1
 275 54 l 1,15,-1
 302 76 l 1,8,-1
EndSplineSet
EndChar
StartChar: p
Encoding: 112 112 81
Width: 385
Flags: W
Fore
344 305 m 1,0,-1
 387 252 l 1,1,-1
 344 53 l 1,2,-1
 279 0 l 1,3,-1
 81 0 l 1,4,-1
 54 -126 l 1,5,-1
 1 -126 l 1,6,-1
 81 252 l 1,7,-1
 146 305 l 1,8,-1
 344 305 l 1,0,-1
295 76 m 1,9,-1
 328 229 l 1,10,-1
 310 251 l 1,11,-1
 156 251 l 1,12,-1
 130 229 l 1,13,-1
 93 54 l 1,14,-1
 269 54 l 1,15,-1
 295 76 l 1,9,-1
EndSplineSet
EndChar
StartChar: q
Encoding: 113 113 82
Width: 386
Flags: W
Fore
386 252 m 1,0,-1
 306 -126 l 1,1,-1
 252 -126 l 1,2,-1
 278 0 l 1,3,-1
 80 0 l 1,4,-1
 39 53 l 1,5,-1
 81 252 l 1,6,-1
 145 305 l 1,7,-1
 344 305 l 1,8,-1
 386 252 l 1,0,-1
115 54 m 1,9,-1
 290 54 l 1,10,-1
 327 229 l 1,11,-1
 310 251 l 1,12,-1
 157 251 l 1,13,-1
 129 229 l 1,14,-1
 97 76 l 1,15,-1
 115 54 l 1,9,-1
EndSplineSet
EndChar
StartChar: r
Encoding: 114 114 83
Width: 295
Flags: W
Fore
295 251 m 1,0,-1
 203 251 l 1,1,-1
 119 181 l 1,2,-1
 80 0 l 1,3,-1
 27 0 l 1,4,-1
 91 305 l 1,5,-1
 145 305 l 1,6,-1
 133 251 l 1,7,-1
 199 305 l 1,8,-1
 307 305 l 1,9,-1
 295 251 l 1,0,-1
EndSplineSet
EndChar
StartChar: s
Encoding: 115 115 84
Width: 386
Flags: W
Fore
359 126 m 1,0,-1
 343 53 l 1,1,-1
 279 0 l 1,2,-1
 90 0 l 1,3,-1
 48 54 l 1,4,-1
 57 99 l 1,5,-1
 111 99 l 1,6,-1
 106 76 l 1,7,-1
 124 54 l 1,8,-1
 268 54 l 1,9,-1
 294 76 l 1,10,-1
 300 103 l 1,11,-1
 283 126 l 1,12,-1
 108 126 l 1,13,-1
 65 179 l 1,14,-1
 81 252 l 1,15,-1
 145 305 l 1,16,-1
 335 305 l 1,17,-1
 377 252 l 1,18,-1
 367 206 l 1,19,-1
 313 206 l 1,20,-1
 318 229 l 1,21,-1
 300 251 l 1,22,-1
 156 251 l 1,23,-1
 130 229 l 1,24,-1
 124 202 l 1,25,-1
 141 180 l 1,26,-1
 317 180 l 1,27,-1
 359 126 l 1,0,-1
EndSplineSet
EndChar
StartChar: t
Encoding: 116 116 85
Width: 222
Flags: W
Fore
224 260 m 1,0,-1
 136 260 l 1,1,-1
 97 76 l 1,2,-1
 114 54 l 1,3,-1
 180 54 l 1,4,-1
 169 0 l 1,5,-1
 80 0 l 1,6,-1
 39 53 l 1,7,-1
 118 431 l 1,8,-1
 172 431 l 1,9,-1
 147 314 l 1,10,-1
 235 314 l 1,11,-1
 224 260 l 1,0,-1
EndSplineSet
EndChar
StartChar: u
Encoding: 117 117 86
Width: 368
Flags: W
Fore
326 305 m 1,0,-1
 380 305 l 1,1,-1
 315 0 l 1,2,-1
 261 0 l 1,3,-1
 273 54 l 1,4,-1
 207 0 l 1,5,-1
 81 0 l 1,6,-1
 39 54 l 1,7,-1
 92 305 l 1,8,-1
 146 305 l 1,9,-1
 97 76 l 1,10,-1
 115 54 l 1,11,-1
 202 54 l 1,12,-1
 287 124 l 1,13,-1
 326 305 l 1,0,-1
EndSplineSet
EndChar
StartChar: v
Encoding: 118 118 87
Width: 352
Flags: W
Fore
309 305 m 1,0,-1
 362 305 l 1,1,-1
 324 126 l 1,2,-1
 199 0 l 1,3,-1
 127 0 l 1,4,-1
 55 126 l 1,5,-1
 93 305 l 1,6,-1
 147 305 l 1,7,-1
 110 130 l 1,8,-1
 159 45 l 1,9,-1
 186 45 l 1,10,-1
 272 130 l 1,11,-1
 309 305 l 1,0,-1
EndSplineSet
EndChar
StartChar: w
Encoding: 119 119 88
Width: 495
Flags: W
Fore
452 305 m 1,0,-1
 506 305 l 1,1,-1
 468 126 l 1,2,-1
 359 0 l 1,3,-1
 288 0 l 1,4,-1
 252 83 l 1,5,-1
 180 0 l 1,6,-1
 108 0 l 1,7,-1
 54 126 l 1,8,-1
 92 305 l 1,9,-1
 146 305 l 1,10,-1
 108 125 l 1,11,-1
 139 54 l 1,12,-1
 173 54 l 1,13,-1
 234 125 l 1,14,-1
 272 305 l 1,15,-1
 326 305 l 1,16,-1
 287 124 l 1,17,-1
 318 54 l 1,18,-1
 353 54 l 1,19,-1
 414 125 l 1,20,-1
 452 305 l 1,0,-1
EndSplineSet
EndChar
StartChar: x
Encoding: 120 120 89
Width: 386
Flags: W
Fore
344 305 m 1,0,-1
 398 305 l 1,1,-1
 385 243 l 1,2,-1
 275 153 l 1,3,-1
 346 62 l 1,4,-1
 333 0 l 1,5,-1
 279 0 l 1,6,-1
 289 46 l 1,7,-1
 226 126 l 1,8,-1
 188 126 l 1,9,-1
 91 46 l 1,10,-1
 81 0 l 1,11,-1
 28 0 l 1,12,-1
 40 62 l 1,13,-1
 151 153 l 1,14,-1
 79 243 l 1,15,-1
 92 305 l 1,16,-1
 146 305 l 1,17,-1
 136 259 l 1,18,-1
 199 180 l 1,19,-1
 237 180 l 1,20,-1
 334 259 l 1,21,-1
 344 305 l 1,0,-1
EndSplineSet
EndChar
StartChar: y
Encoding: 121 121 90
Width: 386
Flags: W
Fore
397 305 m 1,0,-1
 317 -73 l 1,1,-1
 252 -126 l 1,2,-1
 144 -126 l 1,3,-1
 155 -72 l 1,4,-1
 241 -72 l 1,5,-1
 268 -50 l 1,6,-1
 290 54 l 1,7,-1
 224 0 l 1,8,-1
 80 0 l 1,9,-1
 38 54 l 1,10,-1
 91 305 l 1,11,-1
 145 305 l 1,12,-1
 97 76 l 1,13,-1
 114 54 l 1,14,-1
 220 54 l 1,15,-1
 305 124 l 1,16,-1
 343 305 l 1,17,-1
 397 305 l 1,0,-1
EndSplineSet
EndChar
StartChar: z
Encoding: 122 122 91
Width: 381
Flags: W
Fore
86 305 m 1,0,-1
 392 305 l 1,1,-1
 375 224 l 1,2,-1
 98 67 l 1,3,-1
 96 54 l 1,4,-1
 339 54 l 1,5,-1
 327 0 l 1,6,-1
 22 0 l 1,7,-1
 38 81 l 1,8,-1
 314 237 l 1,9,-1
 317 251 l 1,10,-1
 74 251 l 1,11,-1
 86 305 l 1,0,-1
EndSplineSet
EndChar
StartChar: braceleft
Encoding: 123 123 92
Width: 245
Flags: W
Fore
229 430 m 1,0,-1
 190 250 l 1,1,-1
 152 218 l 1,2,-1
 177 187 l 1,3,-1
 139 7 l 1,4,-1
 156 -16 l 1,5,-1
 188 -16 l 1,6,-1
 176 -70 l 1,7,-1
 122 -70 l 1,8,-1
 80 -16 l 1,9,-1
 118 164 l 1,10,-1
 76 218 l 1,11,-1
 141 272 l 1,12,-1
 179 452 l 1,13,-1
 245 506 l 1,14,-1
 299 506 l 1,15,-1
 287 452 l 1,16,-1
 255 452 l 1,17,-1
 229 430 l 1,0,-1
EndSplineSet
EndChar
StartChar: bar
Encoding: 124 124 93
Width: 134
Flags: W
Fore
1 -124 m 1,0,-1
 137 524 l 1,1,-1
 191 524 l 1,2,-1
 54 -124 l 1,3,-1
 1 -124 l 1,0,-1
EndSplineSet
EndChar
StartChar: braceright
Encoding: 125 125 94
Width: 215
Flags: W
Fore
166 272 m 1,0,-1
 208 218 l 1,1,-1
 143 164 l 1,2,-1
 105 -16 l 1,3,-1
 40 -70 l 1,4,-1
 -14 -70 l 1,5,-1
 -2 -16 l 1,6,-1
 29 -16 l 1,7,-1
 56 7 l 1,8,-1
 94 186 l 1,9,-1
 132 218 l 1,10,-1
 107 250 l 1,11,-1
 146 430 l 1,12,-1
 127 452 l 1,13,-1
 96 452 l 1,14,-1
 108 506 l 1,15,-1
 162 506 l 1,16,-1
 204 452 l 1,17,-1
 166 272 l 1,0,-1
EndSplineSet
EndChar
StartChar: asciitilde
Encoding: 126 126 95
Width: 388
Flags: W
Fore
304 317 m 1,0,-1
 358 317 l 1,1,-1
 347 263 l 1,2,-1
 281 209 l 1,3,-1
 227 209 l 1,4,-1
 135 263 l 1,5,-1
 117 263 l 1,6,-1
 90 241 l 1,7,-1
 83 209 l 1,8,-1
 29 209 l 1,9,-1
 41 263 l 1,10,-1
 106 317 l 1,11,-1
 160 317 l 1,12,-1
 252 263 l 1,13,-1
 271 263 l 1,14,-1
 297 285 l 1,15,-1
 304 317 l 1,0,-1
EndSplineSet
EndChar
StartChar: uni0E33.alt1
Encoding: 65539 -1 96
Width: 368
Flags: W
Fore
-15 544 m 1,0,-1
 -27 492 l 1,1,-1
 -71 455 l 1,2,-1
 -123 455 l 1,3,-1
 -152 492 l 1,4,-1
 -141 544 l 1,5,-1
 -97 581 l 1,6,-1
 -45 581 l 1,7,-1
 -15 544 l 1,0,-1
-68 511 m 1,8,-1
 -64 526 l 1,9,-1
 -73 536 l 1,10,-1
 -88 536 l 1,11,-1
 -100 526 l 1,12,-1
 -104 511 l 1,13,-1
 -95 500 l 1,14,-1
 -80 500 l 1,15,-1
 -68 511 l 1,8,-1
345 396 m 1,16,-1
 387 342 l 1,17,-1
 314 0 l 1,18,-1
 260 0 l 1,19,-1
 328 320 l 1,20,-1
 311 342 l 1,21,-1
 175 342 l 1,22,-1
 148 319 l 1,23,-1
 144 297 l 1,24,-1
 90 297 l 1,25,-1
 99 342 l 1,26,-1
 165 396 l 1,27,-1
 345 396 l 1,16,-1
EndSplineSet
EndChar
StartChar: quotedbl
Encoding: 34 34 97
Width: 216
Flags: W
Fore
109 343 m 1,0,-1
 119 433 l 1,1,-1
 173 433 l 1,2,-1
 145 343 l 1,3,-1
 109 343 l 1,0,-1
200 433 m 1,4,-1
 254 433 l 1,5,-1
 226 343 l 1,6,-1
 190 343 l 1,7,-1
 200 433 l 1,4,-1
EndSplineSet
EndChar
StartChar: exclam
Encoding: 33 33 98
Width: 147
Flags: W
Fore
61 62 m 1,0,-1
 87 62 l 1,1,-1
 102 44 l 1,2,-1
 97 18 l 1,3,-1
 74 0 l 1,4,-1
 48 0 l 1,5,-1
 35 18 l 1,6,-1
 40 44 l 1,7,-1
 61 62 l 1,0,-1
103 89 m 1,8,-1
 58 89 l 1,9,-1
 121 431 l 1,10,-1
 184 431 l 1,11,-1
 103 89 l 1,8,-1
EndSplineSet
EndChar
StartChar: uni0E4E.alt1
Encoding: 65540 -1 99
Width: 0
Flags: W
Fore
47 626 m 1,0,-1
 35 572 l 1,1,-1
 -24 572 l 1,2,-1
 -29 568 l 1,3,-1
 -40 509 l 1,4,-1
 -99 509 l 1,5,-1
 -104 505 l 1,6,-1
 -115 455 l 1,7,-1
 -169 455 l 1,8,-1
 -153 527 l 1,9,-1
 -110 563 l 1,10,-1
 -83 563 l 1,11,-1
 -77 590 l 1,12,-1
 -34 626 l 1,13,-1
 47 626 l 1,0,-1
EndSplineSet
EndChar
StartChar: exclamdown
Encoding: 161 161 100
Width: 145
Flags: W
Fore
136 306 m 1,0,-1
 150 287 l 1,1,-1
 145 261 l 1,2,-1
 123 243 l 1,3,-1
 97 243 l 1,4,-1
 82 261 l 1,5,-1
 87 287 l 1,6,-1
 110 306 l 1,7,-1
 136 306 l 1,0,-1
81 216 m 1,8,-1
 126 216 l 1,9,-1
 63 -126 l 1,10,-1
 1 -126 l 1,11,-1
 81 216 l 1,8,-1
EndSplineSet
EndChar
StartChar: cent
Encoding: 162 162 101
Width: 350
Flags: W
Fore
360 297 m 1,0,-1
 306 297 l 1,1,-1
 310 320 l 1,2,-1
 293 342 l 1,3,-1
 175 342 l 1,4,-1
 148 320 l 1,5,-1
 97 76 l 1,6,-1
 114 54 l 1,7,-1
 232 54 l 1,8,-1
 259 76 l 1,9,-1
 263 99 l 1,10,-1
 317 99 l 1,11,-1
 308 54 l 1,12,-1
 242 0 l 1,13,-1
 188 0 l 1,14,-1
 181 -36 l 1,15,-1
 127 -36 l 1,16,-1
 134 0 l 1,17,-1
 80 0 l 1,18,-1
 39 54 l 1,19,-1
 99 342 l 1,20,-1
 165 396 l 1,21,-1
 219 396 l 1,22,-1
 226 432 l 1,23,-1
 280 432 l 1,24,-1
 273 396 l 1,25,-1
 327 396 l 1,26,-1
 369 342 l 1,27,-1
 360 297 l 1,0,-1
EndSplineSet
EndChar
StartChar: sterling
Encoding: 163 163 102
Width: 403
Flags: W
Fore
114 54 m 1,0,-1
 361 54 l 1,1,-1
 350 0 l 1,2,-1
 27 0 l 1,3,-1
 38 54 l 1,4,-1
 124 126 l 1,5,-1
 138 189 l 1,6,-1
 66 189 l 1,7,-1
 77 243 l 1,8,-1
 149 243 l 1,9,-1
 178 378 l 1,10,-1
 243 432 l 1,11,-1
 369 432 l 1,12,-1
 412 378 l 1,13,-1
 402 333 l 1,14,-1
 348 333 l 1,15,-1
 353 356 l 1,16,-1
 336 378 l 1,17,-1
 254 378 l 1,18,-1
 227 356 l 1,19,-1
 203 243 l 1,20,-1
 275 243 l 1,21,-1
 264 189 l 1,22,-1
 192 189 l 1,23,-1
 174 104 l 1,24,-1
 114 54 l 1,0,-1
EndSplineSet
EndChar
StartChar: currency
Encoding: 164 164 103
Width: 387
Flags: W
Fore
343 126 m 1,0,-1
 326 112 l 1,1,-1
 352 80 l 1,2,-1
 309 45 l 1,3,-1
 284 77 l 1,4,-1
 279 72 l 1,5,-1
 80 72 l 1,6,-1
 76 77 l 1,7,-1
 38 45 l 1,8,-1
 12 80 l 1,9,-1
 48 112 l 1,10,-1
 38 126 l 1,11,-1
 77 306 l 1,12,-1
 93 320 l 1,13,-1
 68 352 l 1,14,-1
 111 387 l 1,15,-1
 135 355 l 1,16,-1
 141 360 l 1,17,-1
 339 360 l 1,18,-1
 343 355 l 1,19,-1
 382 387 l 1,20,-1
 409 352 l 1,21,-1
 371 320 l 1,22,-1
 382 306 l 1,23,-1
 343 126 l 1,0,-1
114 126 m 1,24,-1
 267 126 l 1,25,-1
 294 148 l 1,26,-1
 323 284 l 1,27,-1
 306 306 l 1,28,-1
 153 306 l 1,29,-1
 125 284 l 1,30,-1
 96 148 l 1,31,-1
 114 126 l 1,24,-1
EndSplineSet
EndChar
StartChar: yen
Encoding: 165 165 104
Width: 386
Flags: W
Fore
369 432 m 1,0,-1
 423 432 l 1,1,-1
 395 297 l 1,2,-1
 301 234 l 1,3,-1
 345 234 l 1,4,-1
 334 180 l 1,5,-1
 244 180 l 1,6,-1
 236 144 l 1,7,-1
 326 144 l 1,8,-1
 315 90 l 1,9,-1
 225 90 l 1,10,-1
 206 0 l 1,11,-1
 152 0 l 1,12,-1
 171 90 l 1,13,-1
 81 90 l 1,14,-1
 92 144 l 1,15,-1
 182 144 l 1,16,-1
 190 180 l 1,17,-1
 100 180 l 1,18,-1
 111 234 l 1,19,-1
 155 234 l 1,20,-1
 89 297 l 1,21,-1
 117 432 l 1,22,-1
 171 432 l 1,23,-1
 148 323 l 1,24,-1
 231 245 l 1,25,-1
 346 323 l 1,26,-1
 369 432 l 1,0,-1
EndSplineSet
EndChar
StartChar: brokenbar
Encoding: 166 166 105
Width: 134
Flags: W
Fore
132 504 m 1,0,-1
 186 504 l 1,1,-1
 125 216 l 1,2,-1
 71 216 l 1,3,-1
 132 504 l 1,0,-1
0 -125 m 1,4,-1
 64 181 l 1,5,-1
 118 181 l 1,6,-1
 53 -125 l 1,7,-1
 0 -125 l 1,4,-1
EndSplineSet
EndChar
StartChar: section
Encoding: 167 167 106
Width: 351
Flags: W
Fore
325 99 m 1,0,-1
 307 17 l 1,1,-1
 242 -36 l 1,2,-1
 98 -36 l 1,3,-1
 55 18 l 1,4,-1
 65 63 l 1,5,-1
 119 63 l 1,6,-1
 114 40 l 1,7,-1
 131 18 l 1,8,-1
 231 18 l 1,9,-1
 258 40 l 1,10,-1
 266 76 l 1,11,-1
 249 99 l 1,12,-1
 109 99 l 1,13,-1
 66 153 l 1,14,-1
 85 243 l 1,15,-1
 118 270 l 1,16,-1
 96 296 l 1,17,-1
 114 378 l 1,18,-1
 179 431 l 1,19,-1
 323 431 l 1,20,-1
 366 378 l 1,21,-1
 356 332 l 1,22,-1
 302 332 l 1,23,-1
 307 355 l 1,24,-1
 290 377 l 1,25,-1
 190 377 l 1,26,-1
 163 355 l 1,27,-1
 155 319 l 1,28,-1
 173 297 l 1,29,-1
 313 297 l 1,30,-1
 355 243 l 1,31,-1
 336 152 l 1,32,-1
 303 126 l 1,33,-1
 325 99 l 1,0,-1
143 153 m 1,34,-1
 260 153 l 1,35,-1
 287 175 l 1,36,-1
 296 220 l 1,37,-1
 279 243 l 1,38,-1
 161 243 l 1,39,-1
 134 220 l 1,40,-1
 125 175 l 1,41,-1
 143 153 l 1,34,-1
EndSplineSet
EndChar
StartChar: dieresis
Encoding: 168 168 107
Width: 296
Flags: W
Fore
246 527 m 1,0,-1
 239 493 l 1,1,-1
 210 470 l 1,2,-1
 177 470 l 1,3,-1
 158 493 l 1,4,-1
 165 527 l 1,5,-1
 194 551 l 1,6,-1
 227 551 l 1,7,-1
 246 527 l 1,0,-1
110 551 m 1,8,-1
 129 527 l 1,9,-1
 122 493 l 1,10,-1
 93 470 l 1,11,-1
 60 470 l 1,12,-1
 41 493 l 1,13,-1
 48 527 l 1,14,-1
 77 551 l 1,15,-1
 110 551 l 1,8,-1
EndSplineSet
EndChar
StartChar: copyright
Encoding: 169 169 108
Width: 445
Flags: W
Fore
218 287 m 1,0,-1
 326 287 l 1,1,-1
 369 234 l 1,2,-1
 361 198 l 1,3,-1
 316 198 l 1,4,-1
 321 220 l 1,5,-1
 304 242 l 1,6,-1
 222 242 l 1,7,-1
 195 220 l 1,8,-1
 178 139 l 1,9,-1
 195 117 l 1,10,-1
 277 117 l 1,11,-1
 304 139 l 1,12,-1
 309 162 l 1,13,-1
 354 162 l 1,14,-1
 346 125 l 1,15,-1
 281 72 l 1,16,-1
 173 72 l 1,17,-1
 130 125 l 1,18,-1
 153 234 l 1,19,-1
 218 287 l 1,0,-1
378 359 m 1,20,-1
 449 270 l 1,21,-1
 410 90 l 1,22,-1
 301 0 l 1,23,-1
 121 0 l 1,24,-1
 50 90 l 1,25,-1
 89 270 l 1,26,-1
 198 359 l 1,27,-1
 378 359 l 1,20,-1
369 108 m 1,28,-1
 400 251 l 1,29,-1
 349 314 l 1,30,-1
 206 314 l 1,31,-1
 130 251 l 1,32,-1
 99 108 l 1,33,-1
 150 45 l 1,34,-1
 292 45 l 1,35,-1
 369 108 l 1,28,-1
EndSplineSet
EndChar
StartChar: ordfeminine
Encoding: 170 170 109
Width: 311
Flags: W
Fore
265 400 m 1,0,-1
 298 359 l 1,1,-1
 257 167 l 1,2,-1
 216 167 l 1,3,-1
 224 208 l 1,4,-1
 175 167 l 1,5,-1
 65 167 l 1,6,-1
 32 208 l 1,7,-1
 46 270 l 1,8,-1
 95 311 l 1,9,-1
 246 311 l 1,10,-1
 253 342 l 1,11,-1
 240 359 l 1,12,-1
 123 359 l 1,13,-1
 102 342 l 1,14,-1
 98 324 l 1,15,-1
 57 324 l 1,16,-1
 65 359 l 1,17,-1
 114 400 l 1,18,-1
 265 400 l 1,0,-1
171 208 m 1,19,-1
 236 261 l 1,20,-1
 237 269 l 1,21,-1
 103 269 l 1,22,-1
 83 252 l 1,23,-1
 77 225 l 1,24,-1
 90 208 l 1,25,-1
 171 208 l 1,19,-1
EndSplineSet
EndChar
StartChar: guillemotleft
Encoding: 171 171 110
Width: 317
Flags: W
Fore
50 149 m 1,0,-1
 61 202 l 1,1,-1
 190 302 l 1,2,-1
 175 228 l 1,3,-1
 106 175 l 1,4,-1
 152 123 l 1,5,-1
 137 49 l 1,6,-1
 50 149 l 1,0,-1
316 302 m 1,7,-1
 301 228 l 1,8,-1
 231 175 l 1,9,-1
 278 123 l 1,10,-1
 263 49 l 1,11,-1
 176 149 l 1,12,-1
 187 202 l 1,13,-1
 316 302 l 1,7,-1
EndSplineSet
EndChar
StartChar: logicalnot
Encoding: 172 172 111
Width: 406
Flags: W
Fore
62 243 m 1,0,-1
 386 243 l 1,1,-1
 353 90 l 1,2,-1
 299 90 l 1,3,-1
 320 189 l 1,4,-1
 50 189 l 1,5,-1
 62 243 l 1,0,-1
EndSplineSet
EndChar
StartChar: registered
Encoding: 174 174 112
Width: 349
Flags: W
Fore
334 364 m 1,0,-1
 311 256 l 1,1,-1
 219 180 l 1,2,-1
 111 180 l 1,3,-1
 50 256 l 1,4,-1
 73 364 l 1,5,-1
 166 440 l 1,6,-1
 274 440 l 1,7,-1
 334 364 l 1,0,-1
278 271 m 1,8,-1
 295 349 l 1,9,-1
 251 404 l 1,10,-1
 173 404 l 1,11,-1
 106 349 l 1,12,-1
 89 271 l 1,13,-1
 133 215 l 1,14,-1
 211 215 l 1,15,-1
 278 271 l 1,8,-1
160 369 m 1,16,-1
 232 369 l 1,17,-1
 256 338 l 1,18,-1
 252 316 l 1,19,20
 247 312 247 312 243 308 c 2,21,22
 239 305 239 305 236 302 c 128,-1,23
 233 299 233 299 231 298 c 1,24,25
 232 297 232 297 234.5 294.5 c 128,-1,26
 237 292 237 292 239 289 c 0,27,28
 242 285 242 285 244 281 c 1,29,-1
 237 246 l 1,30,-1
 209 246 l 1,31,32
 210 252 210 252 211 257 c 256,33,34
 212 262 212 262 213 265 c 128,-1,35
 214 268 214 268 214 269 c 1,36,-1
 202 284 l 1,37,-1
 170 284 l 1,38,39
 169 282 169 282 168.5 276.5 c 128,-1,40
 168 271 168 271 166 264 c 0,41,42
 164 256 164 256 162 247 c 1,43,-1
 134 247 l 1,44,-1
 160 369 l 1,16,-1
226 327 m 1,45,46
 225 329 225 329 220.5 334.5 c 128,-1,47
 216 340 216 340 214 341 c 1,48,-1
 182 341 l 1,49,-1
 176 312 l 1,50,-1
 208 312 l 1,51,52
 209 313 209 313 216.5 319 c 128,-1,53
 224 325 224 325 226 327 c 1,45,46
EndSplineSet
EndChar
StartChar: macron
Encoding: 175 175 113
Width: 223
Flags: W
Fore
33 455 m 1,0,-1
 44 509 l 1,1,-1
 187 509 l 1,2,-1
 176 455 l 1,3,-1
 33 455 l 1,0,-1
EndSplineSet
EndChar
StartChar: degree
Encoding: 176 176 114
Width: 260
Flags: W
Fore
244 431 m 1,0,-1
 286 377 l 1,1,-1
 271 305 l 1,2,-1
 206 251 l 1,3,-1
 133 251 l 1,4,-1
 91 305 l 1,5,-1
 106 378 l 1,6,-1
 172 431 l 1,7,-1
 244 431 l 1,0,-1
222 327 m 1,8,-1
 227 355 l 1,9,-1
 210 377 l 1,10,-1
 182 377 l 1,11,-1
 155 355 l 1,12,-1
 150 328 l 1,13,-1
 168 305 l 1,14,-1
 195 305 l 1,15,-1
 222 327 l 1,8,-1
EndSplineSet
EndChar
StartChar: plusminus
Encoding: 177 177 115
Width: 439
Flags: W
Fore
269 171 m 1,0,-1
 244 54 l 1,1,-1
 388 54 l 1,2,-1
 376 0 l 1,3,-1
 36 0 l 1,4,-1
 47 54 l 1,5,-1
 190 54 l 1,6,-1
 215 171 l 1,7,-1
 72 171 l 1,8,-1
 83 225 l 1,9,-1
 226 225 l 1,10,-1
 255 360 l 1,11,-1
 309 360 l 1,12,-1
 280 225 l 1,13,-1
 424 225 l 1,14,-1
 413 171 l 1,15,-1
 269 171 l 1,0,-1
EndSplineSet
EndChar
StartChar: twosuperior
Encoding: 178 178 116
Width: 251
Flags: W
Fore
112 431 m 1,0,-1
 213 431 l 1,1,-1
 239 398 l 1,2,-1
 226 337 l 1,3,4
 186 306 186 306 153 282 c 0,5,6
 125 261 125 261 102 244 c 128,-1,7
 79 227 79 227 78 226 c 1,8,9
 78 225 78 225 77.5 223.5 c 128,-1,10
 77 222 77 222 77 220 c 1,11,-1
 207 220 l 1,12,-1
 198 178 l 1,13,-1
 27 178 l 1,14,-1
 39 242 l 1,15,16
 79 272 79 272 112 297 c 0,17,18
 126 307 126 307 139.5 317 c 128,-1,19
 153 327 153 327 163.5 335 c 128,-1,20
 174 343 174 343 180.5 348 c 128,-1,21
 187 353 187 353 188 353 c 1,22,23
 188 355 188 355 190.5 366.5 c 128,-1,24
 193 378 193 378 194 380 c 1,25,26
 193 381 193 381 190 384 c 128,-1,27
 187 387 187 387 186 389 c 1,28,-1
 121 389 l 1,29,30
 119 387 119 387 115 384 c 128,-1,31
 111 381 111 381 111 380 c 2,32,33
 110 379 110 379 110 376.5 c 128,-1,34
 110 374 110 374 109 371 c 0,35,36
 108 367 108 367 107 364 c 1,37,-1
 65 364 l 1,38,-1
 72 398 l 1,39,-1
 112 431 l 1,0,-1
EndSplineSet
EndChar
StartChar: threesuperior
Encoding: 179 179 117
Width: 251
Flags: W
Fore
117 431 m 1,0,-1
 218 431 l 1,1,-1
 244 398 l 1,2,-1
 229 327 l 1,3,4
 226 325 226 325 223 322 c 0,5,6
 221 320 221 320 218.5 318 c 128,-1,7
 216 316 216 316 215 315 c 1,8,9
 216 313 216 313 217 311.5 c 128,-1,10
 218 310 218 310 220 308 c 0,11,12
 222 305 222 305 224 303 c 1,13,-1
 205 212 l 1,14,-1
 165 178 l 1,15,-1
 59 178 l 1,16,-1
 32 212 l 1,17,-1
 39 246 l 1,18,-1
 82 246 l 1,19,20
 81 243 81 243 80 239 c 0,21,22
 79 236 79 236 79 233.5 c 128,-1,23
 79 231 79 231 79 230 c 256,24,25
 79 229 79 229 81.5 225.5 c 128,-1,26
 84 222 84 222 86 221 c 1,27,-1
 156 221 l 1,28,29
 157 222 157 222 161 225 c 128,-1,30
 165 228 165 228 166 229 c 1,31,32
 166 230 166 230 168 238.5 c 128,-1,33
 170 247 170 247 172.5 257 c 128,-1,34
 175 267 175 267 176.5 275.5 c 128,-1,35
 178 284 178 284 178 285 c 256,36,37
 178 286 178 286 175 289.5 c 128,-1,38
 172 293 172 293 171 294 c 1,39,-1
 100 294 l 1,40,-1
 109 336 l 1,41,-1
 180 336 l 1,42,43
 182 337 182 337 186 340 c 128,-1,44
 190 343 190 343 191 345 c 1,45,46
 191 346 191 346 192.5 351 c 128,-1,47
 194 356 194 356 195 362.5 c 128,-1,48
 196 369 196 369 197.5 374 c 128,-1,49
 199 379 199 379 199 380 c 1,50,51
 198 381 198 381 195.5 384 c 128,-1,52
 193 387 193 387 191 389 c 1,53,-1
 126 389 l 1,54,55
 124 388 124 388 120.5 384.5 c 128,-1,56
 117 381 117 381 116 380 c 256,57,58
 115 379 115 379 115 376.5 c 128,-1,59
 115 374 115 374 114 371 c 0,60,61
 113 367 113 367 112 364 c 1,62,-1
 69 364 l 1,63,-1
 76 398 l 1,64,-1
 117 431 l 1,0,-1
EndSplineSet
EndChar
StartChar: acute
Encoding: 180 180 118
Width: 142
Flags: W
Fore
96 455 m 1,0,-1
 141 545 l 1,1,-1
 204 545 l 1,2,-1
 131 455 l 1,3,-1
 96 455 l 1,4,-1
 96 455 l 1,0,-1
EndSplineSet
EndChar
StartChar: mu
Encoding: 181 181 119
Width: 368
Flags: W
Fore
324 305 m 1,0,-1
 378 305 l 1,1,-1
 313 0 l 1,2,-1
 259 0 l 1,3,-1
 271 54 l 1,4,-1
 205 0 l 1,5,-1
 79 0 l 1,6,-1
 53 -126 l 1,7,-1
 0 -126 l 1,8,-1
 90 305 l 1,9,-1
 144 305 l 1,10,-1
 96 76 l 1,11,-1
 113 54 l 1,12,-1
 201 54 l 1,13,-1
 286 124 l 1,14,-1
 324 305 l 1,15,-1
 324 305 l 1,0,-1
EndSplineSet
EndChar
StartChar: paragraph
Encoding: 182 182 120
Width: 307
Flags: W
Fore
290 431 m 1,0,-1
 344 431 l 1,1,-1
 225 -126 l 1,2,-1
 171 -126 l 1,3,-1
 290 431 l 1,0,-1
264 431 m 1,4,-1
 145 -126 l 1,5,-1
 91 -126 l 1,6,-1
 166 224 l 1,7,-1
 136 224 l 1,8,-1
 89 285 l 1,9,-1
 107 371 l 1,10,-1
 180 431 l 1,11,-1
 264 431 l 1,4,-1
EndSplineSet
EndChar
StartChar: periodcentered
Encoding: 183 183 121
Width: 172
Flags: W
Fore
131 235 m 1,0,-1
 124 198 l 1,1,-1
 92 172 l 1,2,-1
 55 172 l 1,3,-1
 34 198 l 1,4,-1
 41 235 l 1,5,-1
 74 261 l 1,6,-1
 111 261 l 1,7,-1
 131 235 l 1,8,-1
 131 235 l 1,0,-1
EndSplineSet
EndChar
StartChar: cedilla
Encoding: 184 184 122
Width: 205
Flags: W
Fore
163 -75 m 1,0,-1
 151 -131 l 1,1,-1
 104 -170 l 1,2,-1
 35 -170 l 1,3,-1
 44 -126 l 1,4,-1
 94 -126 l 1,5,-1
 111 -113 l 1,6,-1
 115 -94 l 1,7,-1
 103 -81 l 1,8,-1
 53 -81 l 1,9,-1
 59 -53 l 1,10,-1
 139 18 l 1,11,-1
 159 2 l 1,12,-1
 132 -36 l 1,13,-1
 163 -75 l 1,0,-1
EndSplineSet
EndChar
StartChar: onesuperior
Encoding: 185 185 123
Width: 157
Flags: W
Fore
157 431 m 1,0,-1
 104 178 l 1,1,-1
 62 178 l 1,2,3
 72 228 72 228 81 268 c 0,4,5
 85 285 85 285 88.5 302 c 128,-1,6
 92 319 92 319 94.5 332.5 c 128,-1,7
 97 346 97 346 99 355.5 c 128,-1,8
 101 365 101 365 102 368 c 1,9,10
 100 366 100 366 98.5 365.5 c 128,-1,11
 97 365 97 365 95 363 c 2,12,-1
 92 360 l 1,13,-1
 69 390 l 1,14,-1
 119 431 l 1,15,-1
 157 431 l 1,0,-1
EndSplineSet
EndChar
StartChar: ordmasculine
Encoding: 186 186 124
Width: 260
Flags: W
Fore
233 341 m 1,0,-1
 218 269 l 1,1,-1
 153 215 l 1,2,-1
 80 215 l 1,3,-1
 38 269 l 1,4,-1
 53 342 l 1,5,-1
 119 395 l 1,6,-1
 191 395 l 1,7,-1
 233 341 l 1,0,-1
174 319 m 1,8,-1
 157 341 l 1,9,-1
 129 341 l 1,10,-1
 102 319 l 1,11,-1
 97 292 l 1,12,-1
 115 269 l 1,13,-1
 142 269 l 1,14,-1
 169 291 l 1,15,-1
 174 319 l 1,8,-1
EndSplineSet
EndChar
StartChar: guillemotright
Encoding: 187 187 125
Width: 316
Flags: W
Fore
294 202 m 1,0,-1
 283 149 l 1,1,-1
 155 49 l 1,2,-1
 170 123 l 1,3,-1
 238 175 l 1,4,-1
 193 228 l 1,5,-1
 208 302 l 1,6,-1
 294 202 l 1,0,-1
29 49 m 1,7,-1
 44 123 l 1,8,-1
 112 175 l 1,9,-1
 67 228 l 1,10,-1
 82 302 l 1,11,-1
 169 202 l 1,12,-1
 158 149 l 1,13,-1
 29 49 l 1,7,-1
EndSplineSet
EndChar
StartChar: onequarter
Encoding: 188 188 126
Width: 476
Flags: W
Fore
152 370 m 1,0,1
 150 368 150 368 148.5 367.5 c 128,-1,2
 147 367 147 367 145 365 c 2,3,-1
 142 362 l 1,4,-1
 119 392 l 1,5,-1
 170 433 l 1,6,-1
 208 433 l 1,7,-1
 154 180 l 1,8,-1
 112 180 l 1,9,10
 122 230 122 230 131 270 c 0,11,12
 135 287 135 287 138.5 304 c 128,-1,13
 142 321 142 321 144.5 334.5 c 128,-1,14
 147 348 147 348 149 357.5 c 128,-1,15
 151 367 151 367 152 370 c 1,0,1
431 78 m 1,16,-1
 422 35 l 1,17,-1
 407 35 l 1,18,19
 406 33 406 33 405.5 27.5 c 128,-1,20
 405 22 405 22 403 16 c 2,21,-1
 399 0 l 1,22,-1
 357 0 l 1,23,-1
 361 16 l 2,24,25
 363 22 363 22 363.5 27.5 c 128,-1,26
 364 33 364 33 365 35 c 1,27,-1
 254 35 l 1,28,-1
 265 88 l 1,29,-1
 393 253 l 1,30,-1
 453 253 l 1,31,32
 443 206 443 206 435 168 c 0,33,34
 432 152 432 152 428.5 136.5 c 128,-1,35
 425 121 425 121 422 108 c 128,-1,36
 419 95 419 95 417.5 87 c 128,-1,37
 416 79 416 79 416 78 c 1,38,-1
 431 78 l 1,16,-1
401 203 m 1,39,40
 396 197 396 197 381 177.5 c 128,-1,41
 366 158 366 158 349.5 137 c 128,-1,42
 333 116 333 116 320 99 c 128,-1,43
 308 83 308 83 307 82 c 1,44,-1
 306 78 l 1,45,-1
 374 78 l 1,46,-1
 401 203 l 1,39,40
461 432 m 1,47,-1
 125 0 l 1,48,-1
 62 0 l 1,49,-1
 399 432 l 1,50,-1
 461 432 l 1,47,-1
EndSplineSet
Ligature: 0 0 'frac' one fraction four
Ligature: 0 0 'frac' one slash four
EndChar
StartChar: onehalf
Encoding: 189 189 127
Width: 556
Flags: W
Fore
152 370 m 1,0,1
 150 368 150 368 149 367.5 c 128,-1,2
 148 367 148 367 146 365 c 2,3,-1
 143 362 l 1,4,-1
 120 392 l 1,5,-1
 171 433 l 1,6,-1
 209 433 l 1,7,-1
 155 180 l 1,8,-1
 112 180 l 1,9,10
 122 230 122 230 131 270 c 0,11,12
 135 287 135 287 138.5 304 c 128,-1,13
 142 321 142 321 144.5 334.5 c 128,-1,14
 147 348 147 348 149 357.5 c 128,-1,15
 151 367 151 367 152 370 c 1,0,1
503 42 m 1,16,-1
 494 0 l 1,17,-1
 321 0 l 1,18,-1
 336 62 l 1,19,-1
 336 64 l 1,20,21
 376 94 376 94 409 119 c 0,22,23
 423 129 423 129 436.5 139 c 128,-1,24
 450 149 450 149 460.5 157 c 128,-1,25
 471 165 471 165 477.5 170 c 128,-1,26
 484 175 484 175 485 175 c 1,27,-1
 490 202 l 2,28,29
 490 203 490 203 487 206 c 128,-1,30
 484 209 484 209 483 211 c 1,31,-1
 418 211 l 1,32,33
 416 209 416 209 412 206 c 128,-1,34
 408 203 408 203 407 202 c 1,35,36
 407 201 407 201 405 193 c 0,37,38
 404 189 404 189 404 186 c 1,39,-1
 361 186 l 1,40,-1
 368 220 l 1,41,-1
 409 253 l 1,42,-1
 510 253 l 1,43,-1
 536 220 l 1,44,-1
 523 159 l 1,45,46
 483 128 483 128 450 104 c 0,47,48
 422 83 422 83 399 66 c 128,-1,49
 376 49 376 49 375 48 c 1,50,-1
 373 42 l 1,51,-1
 503 42 l 1,16,-1
479 432 m 1,52,-1
 143 0 l 1,53,-1
 81 0 l 1,54,-1
 417 432 l 1,55,-1
 479 432 l 1,52,-1
EndSplineSet
Ligature: 0 0 'frac' one fraction two
Ligature: 0 0 'frac' one slash two
EndChar
StartChar: threequarters
Encoding: 190 190 128
Width: 567
Flags: W
Fore
209 180 m 1,0,-1
 103 180 l 1,1,-1
 76 214 l 1,2,-1
 83 247 l 1,3,-1
 126 247 l 1,4,5
 125 244 125 244 124 240 c 0,6,7
 123 237 123 237 123 234.5 c 128,-1,8
 123 232 123 232 123 231 c 256,9,10
 123 230 123 230 125.5 227 c 128,-1,11
 128 224 128 224 130 222 c 1,12,-1
 200 222 l 1,13,14
 201 224 201 224 205 227 c 128,-1,15
 209 230 209 230 211 231 c 1,16,-1
 222 287 l 2,17,18
 222 288 222 288 219 291 c 128,-1,19
 216 294 216 294 215 295 c 1,20,-1
 144 295 l 1,21,-1
 153 338 l 1,22,-1
 224 338 l 1,23,24
 226 339 226 339 230 342 c 128,-1,25
 234 345 234 345 235 346 c 1,26,-1
 243 382 l 1,27,28
 242 382 242 382 239.5 385.5 c 128,-1,29
 237 389 237 389 235 390 c 1,30,-1
 170 390 l 1,31,32
 168 389 168 389 164.5 386 c 128,-1,33
 161 383 161 383 160 382 c 256,34,35
 159 381 159 381 159 378.5 c 128,-1,36
 159 376 159 376 158 373 c 0,37,38
 157 369 157 369 156 366 c 1,39,-1
 113 366 l 1,40,-1
 120 399 l 1,41,-1
 162 433 l 1,42,-1
 263 433 l 1,43,-1
 288 399 l 1,44,-1
 273 329 l 1,45,46
 270 327 270 327 267 324 c 0,47,48
 265 322 265 322 262.5 320 c 128,-1,49
 260 318 260 318 259 317 c 1,50,51
 260 315 260 315 264 309 c 0,52,53
 266 306 266 306 268 304 c 1,54,-1
 249 214 l 1,55,-1
 209 180 l 1,0,-1
522 78 m 1,56,-1
 513 35 l 1,57,-1
 498 35 l 1,58,59
 497 33 497 33 496.5 27.5 c 128,-1,60
 496 22 496 22 494 16 c 2,61,-1
 490 0 l 1,62,-1
 447 0 l 1,63,-1
 451 16 l 2,64,65
 453 22 453 22 453.5 27.5 c 128,-1,66
 454 33 454 33 455 35 c 1,67,-1
 345 35 l 1,68,-1
 356 88 l 1,69,-1
 484 253 l 1,70,-1
 544 253 l 1,71,72
 534 206 534 206 526 168 c 0,73,74
 523 152 523 152 519.5 136.5 c 128,-1,75
 516 121 516 121 513 108 c 128,-1,76
 510 95 510 95 508.5 87 c 128,-1,77
 507 79 507 79 507 78 c 1,78,-1
 522 78 l 1,56,-1
491 203 m 1,79,80
 486 197 486 197 471 177.5 c 128,-1,81
 456 158 456 158 439.5 137 c 128,-1,82
 423 116 423 116 410 99 c 128,-1,83
 398 83 398 83 397 82 c 1,84,-1
 396 78 l 1,85,-1
 464 78 l 1,86,-1
 491 203 l 1,79,80
553 432 m 1,87,-1
 216 0 l 1,88,-1
 154 0 l 1,89,-1
 491 432 l 1,90,-1
 553 432 l 1,87,-1
EndSplineSet
Ligature: 0 0 'frac' three fraction four
Ligature: 0 0 'frac' three slash four
EndChar
StartChar: questiondown
Encoding: 191 191 129
Width: 368
Flags: W
Fore
280 -27 m 1,0,-1
 334 -27 l 1,1,-1
 324 -73 l 1,2,-1
 260 -126 l 1,3,-1
 80 -126 l 1,4,-1
 38 -72 l 1,5,-1
 58 27 l 1,6,-1
 196 124 l 1,7,-1
 215 215 l 1,8,-1
 268 215 l 1,9,-1
 244 99 l 1,10,-1
 107 1 l 1,11,-1
 96 -50 l 1,12,-1
 113 -72 l 1,13,-1
 248 -72 l 1,14,-1
 275 -50 l 1,15,-1
 280 -27 l 1,0,-1
260 242 m 1,16,-1
 234 242 l 1,17,-1
 220 261 l 1,18,-1
 225 287 l 1,19,-1
 247 305 l 1,20,-1
 273 305 l 1,21,-1
 288 287 l 1,22,-1
 283 261 l 1,23,-1
 260 242 l 1,16,-1
EndSplineSet
EndChar
StartChar: AE
Encoding: 198 198 135
Width: 636
Flags: W
Fore
414 356 m 1,0,-1
 390 243 l 1,1,-1
 606 243 l 1,2,-1
 595 189 l 1,3,-1
 379 189 l 1,4,-1
 355 76 l 1,5,-1
 372 54 l 1,6,-1
 584 54 l 1,7,-1
 573 0 l 1,8,-1
 339 0 l 1,9,-1
 296 54 l 1,10,-1
 309 117 l 1,11,-1
 111 117 l 1,12,-1
 87 0 l 1,13,-1
 34 0 l 1,14,-1
 84 242 l 1,15,-1
 349 432 l 1,16,-1
 664 432 l 1,17,-1
 653 378 l 1,18,-1
 441 378 l 1,19,-1
 414 356 l 1,0,-1
321 171 m 1,20,-1
 365 378 l 1,21,-1
 354 378 l 1,22,-1
 133 218 l 1,23,-1
 123 171 l 1,24,-1
 321 171 l 1,20,-1
EndSplineSet
EndChar
StartChar: Ccedilla
Encoding: 199 199 136
Width: 385
Flags: W
Fore
227 -75 m 1,0,-1
 215 -131 l 1,1,-1
 168 -170 l 1,2,-1
 99 -170 l 1,3,-1
 108 -126 l 1,4,-1
 158 -126 l 1,5,-1
 175 -113 l 1,6,-1
 179 -94 l 1,7,-1
 167 -81 l 1,8,-1
 117 -81 l 1,9,-1
 123 -53 l 1,10,-1
 182 0 l 1,11,-1
 80 0 l 1,12,-1
 38 54 l 1,13,-1
 106 378 l 1,14,-1
 171 431 l 1,15,-1
 369 431 l 1,16,-1
 412 377 l 1,17,-1
 402 332 l 1,18,-1
 348 332 l 1,19,-1
 353 355 l 1,20,-1
 336 377 l 1,21,-1
 182 377 l 1,22,-1
 155 355 l 1,23,-1
 96 76 l 1,24,-1
 113 54 l 1,25,-1
 267 54 l 1,26,-1
 294 76 l 1,27,-1
 299 99 l 1,28,-1
 353 99 l 1,29,-1
 343 53 l 1,30,-1
 278 0 l 1,31,-1
 221 0 l 1,32,-1
 196 -36 l 1,33,-1
 227 -75 l 1,0,-1
EndSplineSet
EndChar
StartChar: Eth
Encoding: 208 208 145
Width: 422
Flags: W
Fore
406 431 m 1,0,-1
 449 377 l 1,1,-1
 380 54 l 1,2,-1
 315 0 l 1,3,-1
 63 0 l 1,4,-1
 103 189 l 1,5,-1
 67 189 l 1,6,-1
 78 242 l 1,7,-1
 114 242 l 1,8,-1
 154 431 l 1,9,-1
 406 431 l 1,0,-1
331 76 m 1,10,-1
 390 355 l 1,11,-1
 372 377 l 1,12,-1
 197 377 l 1,13,-1
 168 242 l 1,14,-1
 276 242 l 1,15,-1
 265 189 l 1,16,-1
 157 189 l 1,17,-1
 128 54 l 1,18,-1
 303 54 l 1,19,-1
 331 76 l 1,10,-1
EndSplineSet
EndChar
StartChar: multiply
Encoding: 215 215 152
Width: 387
Flags: W
Fore
246 215 m 1,0,-1
 332 107 l 1,1,-1
 286 69 l 1,2,-1
 200 177 l 1,3,-1
 74 73 l 1,4,-1
 44 112 l 1,5,-1
 170 215 l 1,6,-1
 89 320 l 1,7,-1
 135 358 l 1,8,-1
 216 253 l 1,9,-1
 349 363 l 1,10,-1
 380 325 l 1,11,-1
 246 215 l 1,0,-1
EndSplineSet
EndChar
StartChar: Oslash
Encoding: 216 216 153
Width: 404
Flags: W
Fore
446 425 m 1,0,-1
 419 392 l 1,1,-1
 430 377 l 1,2,-1
 361 53 l 1,3,-1
 296 0 l 1,4,-1
 92 0 l 1,5,-1
 71 -26 l 1,6,-1
 32 3 l 1,7,-1
 55 31 l 1,8,-1
 39 54 l 1,9,-1
 106 378 l 1,10,-1
 172 431 l 1,11,-1
 388 431 l 1,12,-1
 406 453 l 1,13,-1
 446 425 l 1,0,-1
156 355 m 1,14,-1
 98 83 l 1,15,-1
 343 377 l 1,16,-1
 182 377 l 1,17,-1
 156 355 l 1,14,-1
312 76 m 1,18,-1
 366 328 l 1,19,-1
 138 54 l 1,20,-1
 286 54 l 1,21,-1
 312 76 l 1,18,-1
EndSplineSet
EndChar
StartChar: Thorn
Encoding: 222 222 159
Width: 368
Flags: W
Fore
333 341 m 1,0,-1
 375 288 l 1,1,-1
 344 143 l 1,2,-1
 279 90 l 1,3,-1
 99 90 l 1,4,-1
 80 0 l 1,5,-1
 27 0 l 1,6,-1
 117 431 l 1,7,-1
 171 431 l 1,8,-1
 152 341 l 1,9,-1
 333 341 l 1,0,-1
295 166 m 1,10,-1
 316 265 l 1,11,-1
 299 287 l 1,12,-1
 141 287 l 1,13,-1
 110 144 l 1,14,-1
 268 144 l 1,15,-1
 295 166 l 1,10,-1
EndSplineSet
EndChar
StartChar: uni00DF
Encoding: 223 223 160
Width: 350
Flags: W
Fore
300 211 m 1,0,-1
 353 144 l 1,1,-1
 332 45 l 1,2,-1
 266 -9 l 1,3,-1
 131 -9 l 1,4,-1
 143 45 l 1,5,-1
 256 45 l 1,6,-1
 282 67 l 1,7,-1
 294 121 l 1,8,-1
 223 211 l 1,9,-1
 310 282 l 1,10,-1
 325 355 l 1,11,-1
 308 378 l 1,12,-1
 209 378 l 1,13,-1
 182 356 l 1,14,-1
 79 -126 l 1,15,-1
 26 -126 l 1,16,-1
 132 378 l 1,17,-1
 198 432 l 1,18,-1
 342 432 l 1,19,-1
 384 378 l 1,20,-1
 359 259 l 1,21,-1
 300 211 l 1,0,-1
EndSplineSet
EndChar
StartChar: ae
Encoding: 230 230 167
Width: 638
Flags: W
Fore
594 306 m 1,0,-1
 637 252 l 1,1,-1
 612 135 l 1,2,-1
 360 135 l 1,3,-1
 347 76 l 1,4,-1
 364 54 l 1,5,-1
 522 54 l 1,6,-1
 511 0 l 1,7,-1
 331 0 l 1,8,-1
 289 55 l 1,9,-1
 223 0 l 1,10,-1
 79 0 l 1,11,-1
 36 54 l 1,12,-1
 54 135 l 1,13,-1
 119 189 l 1,14,-1
 317 189 l 1,15,-1
 326 230 l 1,16,-1
 309 252 l 1,17,-1
 155 252 l 1,18,-1
 128 230 l 1,19,-1
 123 207 l 1,20,-1
 69 207 l 1,21,-1
 79 252 l 1,22,-1
 144 306 l 1,23,-1
 342 306 l 1,24,-1
 363 279 l 1,25,-1
 396 306 l 1,26,-1
 594 306 l 1,0,-1
95 76 m 1,27,-1
 112 54 l 1,28,-1
 218 54 l 1,29,-1
 304 125 l 1,30,-1
 306 135 l 1,31,-1
 130 135 l 1,32,-1
 103 113 l 1,33,-1
 95 76 l 1,27,-1
371 189 m 1,34,-1
 569 189 l 1,35,-1
 578 230 l 1,36,-1
 560 252 l 1,37,-1
 407 252 l 1,38,-1
 380 230 l 1,39,-1
 371 189 l 1,34,-1
EndSplineSet
EndChar
StartChar: ccedilla
Encoding: 231 231 168
Width: 388
Flags: W
Fore
229 -68 m 1,0,-1
 217 -124 l 1,1,-1
 170 -163 l 1,2,-1
 101 -163 l 1,3,-1
 110 -119 l 1,4,-1
 160 -119 l 1,5,-1
 177 -106 l 1,6,-1
 181 -87 l 1,7,-1
 169 -74 l 1,8,-1
 119 -74 l 1,9,-1
 125 -46 l 1,10,-1
 177 0 l 1,11,-1
 81 0 l 1,12,-1
 39 54 l 1,13,-1
 81 252 l 1,14,-1
 146 305 l 1,15,-1
 344 305 l 1,16,-1
 387 252 l 1,17,-1
 377 206 l 1,18,-1
 323 206 l 1,19,-1
 328 229 l 1,20,-1
 310 251 l 1,21,-1
 156 251 l 1,22,-1
 130 229 l 1,23,-1
 97 76 l 1,24,-1
 116 54 l 1,25,-1
 269 54 l 1,26,-1
 295 76 l 1,27,-1
 300 99 l 1,28,-1
 354 99 l 1,29,-1
 344 53 l 1,30,-1
 280 0 l 1,31,-1
 218 0 l 1,32,-1
 198 -29 l 1,33,-1
 229 -68 l 1,0,-1
EndSplineSet
EndChar
StartChar: eth
Encoding: 240 240 177
Width: 386
Flags: W
Fore
407 355 m 1,0,-1
 343 54 l 1,1,-1
 278 0 l 1,2,-1
 80 0 l 1,3,-1
 38 53 l 1,4,-1
 80 252 l 1,5,-1
 145 306 l 1,6,-1
 289 306 l 1,7,-1
 289 305 l 1,8,-1
 331 251 l 1,9,-1
 347 324 l 1,10,-1
 312 306 l 1,11,-1
 297 344 l 1,12,-1
 358 376 l 1,13,-1
 369 431 l 1,14,-1
 423 431 l 1,15,-1
 418 407 l 1,16,-1
 457 427 l 1,17,-1
 471 390 l 1,18,-1
 407 355 l 1,0,-1
294 76 m 1,19,-1
 316 181 l 1,20,-1
 261 252 l 1,21,-1
 156 252 l 1,22,-1
 128 229 l 1,23,-1
 96 76 l 1,24,-1
 113 54 l 1,25,-1
 267 54 l 1,26,-1
 294 76 l 1,19,-1
EndSplineSet
EndChar
StartChar: divide
Encoding: 247 247 184
Width: 439
Flags: W
Fore
229 270 m 1,0,-1
 212 291 l 1,1,-1
 219 321 l 1,2,-1
 244 342 l 1,3,-1
 274 342 l 1,4,-1
 291 321 l 1,5,-1
 284 291 l 1,6,-1
 259 270 l 1,7,-1
 229 270 l 1,0,-1
236 162 m 1,8,-1
 253 141 l 1,9,-1
 246 111 l 1,10,-1
 221 90 l 1,11,-1
 191 90 l 1,12,-1
 174 111 l 1,13,-1
 181 141 l 1,14,-1
 206 162 l 1,15,-1
 236 162 l 1,8,-1
410 243 m 1,16,-1
 399 189 l 1,17,-1
 56 189 l 1,18,-1
 67 243 l 1,19,-1
 410 243 l 1,16,-1
EndSplineSet
EndChar
StartChar: oslash
Encoding: 248 248 185
Width: 387
Flags: W
Fore
407 298 m 1,0,-1
 375 268 l 1,1,-1
 387 252 l 1,2,-1
 344 54 l 1,3,-1
 280 0 l 1,4,-1
 82 0 l 1,5,-1
 51 -27 l 1,6,-1
 19 9 l 1,7,-1
 51 38 l 1,8,-1
 39 54 l 1,9,-1
 82 252 l 1,10,-1
 146 306 l 1,11,-1
 344 306 l 1,12,-1
 375 333 l 1,13,-1
 407 298 l 1,0,-1
131 230 m 1,14,-1
 99 82 l 1,15,-1
 286 252 l 1,16,-1
 158 252 l 1,17,-1
 131 230 l 1,14,-1
295 76 m 1,18,-1
 327 224 l 1,19,-1
 140 54 l 1,20,-1
 268 54 l 1,21,-1
 295 76 l 1,18,-1
EndSplineSet
EndChar
StartChar: thorn
Encoding: 254 254 191
Width: 387
Flags: W
Fore
368 306 m 1,0,-1
 411 252 l 1,1,-1
 368 54 l 1,2,-1
 303 0 l 1,3,-1
 105 0 l 1,4,-1
 82 -108 l 1,5,-1
 29 -108 l 1,6,-1
 139 414 l 1,7,-1
 193 414 l 1,8,-1
 170 306 l 1,9,-1
 368 306 l 1,0,-1
319 76 m 1,10,-1
 352 230 l 1,11,-1
 335 252 l 1,12,-1
 181 252 l 1,13,-1
 154 230 l 1,14,-1
 121 76 l 1,15,-1
 139 54 l 1,16,-1
 292 54 l 1,17,-1
 319 76 l 1,10,-1
EndSplineSet
EndChar
StartChar: Lslash
Encoding: 321 321 193
Width: 351
Flags: W
Fore
101 54 m 1,0,-1
 308 54 l 1,1,-1
 297 0 l 1,2,-1
 37 0 l 1,3,-1
 66 143 l 1,4,-1
 23 107 l 1,5,-1
 39 183 l 1,6,-1
 82 219 l 1,7,-1
 127 432 l 1,8,-1
 181 432 l 1,9,-1
 148 273 l 1,10,-1
 213 327 l 1,11,-1
 197 251 l 1,12,-1
 131 197 l 1,13,-1
 101 54 l 1,0,-1
EndSplineSet
EndChar
StartChar: lslash
Encoding: 322 322 194
Width: 180
Flags: W
Fore
193 316 m 1,0,-1
 177 240 l 1,1,-1
 133 204 l 1,2,-1
 90 0 l 1,3,-1
 37 0 l 1,4,-1
 67 150 l 1,5,-1
 25 114 l 1,6,-1
 41 191 l 1,7,-1
 84 227 l 1,8,-1
 127 432 l 1,9,-1
 181 432 l 1,10,-1
 149 280 l 1,11,-1
 193 316 l 1,0,-1
EndSplineSet
EndChar
StartChar: OE
Encoding: 338 338 195
Width: 636
Flags: W
Fore
416 356 m 1,0,-1
 392 243 l 1,1,-1
 608 243 l 1,2,-1
 597 189 l 1,3,-1
 381 189 l 1,4,-1
 357 76 l 1,5,-1
 374 54 l 1,6,-1
 586 54 l 1,7,-1
 575 0 l 1,8,-1
 89 0 l 1,9,-1
 46 54 l 1,10,-1
 115 378 l 1,11,-1
 180 432 l 1,12,-1
 666 432 l 1,13,-1
 655 378 l 1,14,-1
 443 378 l 1,15,-1
 416 356 l 1,0,-1
122 54 m 1,16,-1
 298 54 l 1,17,-1
 367 378 l 1,18,-1
 191 378 l 1,19,-1
 164 356 l 1,20,-1
 105 76 l 1,21,-1
 122 54 l 1,16,-1
EndSplineSet
EndChar
StartChar: oe
Encoding: 339 339 196
Width: 637
Flags: W
Fore
595 306 m 1,0,-1
 637 252 l 1,1,-1
 612 135 l 1,2,-1
 361 135 l 1,3,-1
 348 76 l 1,4,-1
 365 54 l 1,5,-1
 522 54 l 1,6,-1
 511 0 l 1,7,-1
 332 0 l 1,8,-1
 311 27 l 1,9,-1
 278 0 l 1,10,-1
 80 0 l 1,11,-1
 37 54 l 1,12,-1
 80 252 l 1,13,-1
 145 306 l 1,14,-1
 343 306 l 1,15,-1
 364 279 l 1,16,-1
 396 306 l 1,17,-1
 595 306 l 1,0,-1
113 54 m 1,18,-1
 267 54 l 1,19,-1
 294 76 l 1,20,-1
 327 230 l 1,21,-1
 309 252 l 1,22,-1
 156 252 l 1,23,-1
 129 230 l 1,24,-1
 96 76 l 1,25,-1
 113 54 l 1,18,-1
372 189 m 1,26,-1
 569 189 l 1,27,-1
 578 230 l 1,28,-1
 561 252 l 1,29,-1
 408 252 l 1,30,-1
 381 230 l 1,31,-1
 372 189 l 1,26,-1
EndSplineSet
EndChar
StartChar: florin
Encoding: 402 402 202
Width: 387
Flags: W
Fore
345 377 m 1,0,-1
 313 355 l 1,1,-1
 281 278 l 1,2,-1
 353 278 l 1,3,-1
 329 224 l 1,4,-1
 257 224 l 1,5,-1
 185 53 l 1,6,-1
 109 0 l 1,7,-1
 28 0 l 1,8,-1
 39 54 l 1,9,-1
 109 54 l 1,10,-1
 141 76 l 1,11,-1
 203 224 l 1,12,-1
 131 224 l 1,13,-1
 155 278 l 1,14,-1
 227 278 l 1,15,-1
 269 378 l 1,16,-1
 345 431 l 1,17,-1
 424 431 l 1,18,-1
 413 377 l 1,19,-1
 345 377 l 1,0,-1
EndSplineSet
EndChar
StartChar: circumflex
Encoding: 710 710 203
Width: 314
Flags: W
Fore
256 474 m 1,0,-1
 233 455 l 1,1,-1
 155 516 l 1,2,-1
 55 455 l 1,3,-1
 40 474 l 1,4,-1
 148 563 l 1,5,-1
 186 563 l 1,6,-1
 256 474 l 1,0,-1
EndSplineSet
EndChar
StartChar: caron
Encoding: 711 711 204
Width: 313
Flags: W
Fore
270 544 m 1,0,-1
 162 455 l 1,1,-1
 124 455 l 1,2,-1
 54 544 l 1,3,-1
 77 563 l 1,4,-1
 155 502 l 1,5,-1
 255 563 l 1,6,-1
 270 544 l 1,0,-1
EndSplineSet
EndChar
StartChar: breve
Encoding: 728 728 205
Width: 304
Flags: W
Fore
262 549 m 1,0,-1
 188 455 l 1,1,-1
 89 455 l 1,2,-1
 55 549 l 1,3,-1
 82 563 l 1,4,-1
 126 500 l 1,5,-1
 171 500 l 1,6,-1
 240 563 l 1,7,-1
 262 549 l 1,0,-1
EndSplineSet
EndChar
StartChar: dotaccent
Encoding: 729 729 206
Width: 178
Flags: W
Fore
121 479 m 1,0,-1
 92 456 l 1,1,-1
 59 456 l 1,2,-1
 40 479 l 1,3,-1
 47 513 l 1,4,-1
 76 536 l 1,5,-1
 109 536 l 1,6,-1
 128 513 l 1,7,-1
 121 479 l 1,0,-1
EndSplineSet
EndChar
StartChar: ring
Encoding: 730 730 207
Width: 223
Flags: W
Fore
181 544 m 1,0,-1
 170 492 l 1,1,-1
 125 455 l 1,2,-1
 72 455 l 1,3,-1
 44 492 l 1,4,-1
 55 544 l 1,5,-1
 99 581 l 1,6,-1
 152 581 l 1,7,-1
 181 544 l 1,0,-1
101 500 m 1,8,-1
 116 500 l 1,9,-1
 129 511 l 1,10,-1
 132 525 l 1,11,-1
 123 536 l 1,12,-1
 108 536 l 1,13,-1
 96 525 l 1,14,-1
 93 511 l 1,15,-1
 101 500 l 1,8,-1
EndSplineSet
EndChar
StartChar: tilde
Encoding: 732 732 209
Width: 262
Flags: W
Fore
156 409 m 1,0,1
 158 410 158 410 165 416 c 128,-1,2
 172 422 172 422 180 429 c 0,3,4
 190 437 190 437 201 446 c 1,5,-1
 221 421 l 1,6,-1
 153 365 l 1,7,8
 138 374 138 374 127 382 c 0,9,10
 117 389 117 389 108 394.5 c 128,-1,11
 99 400 99 400 98 401 c 1,12,13
 96 399 96 399 89 394 c 128,-1,14
 82 389 82 389 74 382 c 0,15,16
 64 374 64 374 53 365 c 1,17,-1
 33 389 l 1,18,-1
 101 445 l 1,19,20
 116 436 116 436 128 428 c 0,21,22
 138 421 138 421 146.5 415.5 c 128,-1,23
 155 410 155 410 156 409 c 1,0,1
EndSplineSet
EndChar
StartChar: uni0E01
Encoding: 3585 3585 212
Width: 407
Flags: W
Fore
382 395 m 1,0,-1
 425 342 l 1,1,-1
 353 0 l 1,2,-1
 299 0 l 1,3,-1
 366 319 l 1,4,-1
 349 341 l 1,5,-1
 178 341 l 1,6,-1
 224 284 l 1,7,-1
 147 221 l 1,8,-1
 101 0 l 1,9,-1
 47 0 l 1,10,-1
 98 243 l 1,11,-1
 148 284 l 1,12,-1
 101 342 l 1,13,-1
 166 395 l 1,14,-1
 382 395 l 1,0,-1
EndSplineSet
EndChar
StartChar: uni0E02
Encoding: 3586 3586 213
Width: 394
Flags: W
Fore
372 396 m 1,0,-1
 426 396 l 1,1,-1
 353 54 l 1,2,-1
 287 0 l 1,3,-1
 233 0 l 1,4,-1
 191 54 l 1,5,-1
 249 329 l 1,6,-1
 239 342 l 1,7,-1
 192 342 l 1,8,-1
 218 309 l 1,9,-1
 205 249 l 1,10,-1
 154 207 l 1,11,-1
 94 207 l 1,12,-1
 61 249 l 1,13,-1
 81 342 l 1,14,-1
 147 396 l 1,15,-1
 264 396 l 1,16,-1
 306 342 l 1,17,-1
 250 77 l 1,18,-1
 267 54 l 1,19,-1
 277 54 l 1,20,-1
 304 76 l 1,21,-1
 372 396 l 1,0,-1
164 268 m 1,22,-1
 169 290 l 1,23,-1
 156 306 l 1,24,-1
 134 306 l 1,25,-1
 115 290 l 1,26,-1
 110 268 l 1,27,-1
 123 252 l 1,28,-1
 145 252 l 1,29,-1
 164 268 l 1,22,-1
EndSplineSet
EndChar
StartChar: uni0E03
Encoding: 3587 3587 214
Width: 402
Flags: W
Fore
425 396 m 1,0,-1
 352 53 l 1,1,-1
 286 0 l 1,2,-1
 232 0 l 1,3,-1
 190 54 l 1,4,-1
 237 278 l 1,5,-1
 292 323 l 1,6,-1
 296 341 l 1,7,-1
 289 351 l 1,8,-1
 280 351 l 1,9,-1
 247 323 l 1,10,-1
 226 351 l 1,11,-1
 202 351 l 1,12,-1
 228 317 l 1,13,-1
 215 258 l 1,14,-1
 164 216 l 1,15,-1
 104 216 l 1,16,-1
 71 258 l 1,17,-1
 89 342 l 1,18,-1
 155 396 l 1,19,-1
 241 396 l 1,20,-1
 258 374 l 1,21,-1
 284 396 l 1,22,-1
 317 396 l 1,23,-1
 345 360 l 1,24,-1
 333 305 l 1,25,-1
 290 269 l 1,26,-1
 249 76 l 1,27,-1
 266 54 l 1,28,-1
 276 54 l 1,29,-1
 303 76 l 1,30,-1
 371 396 l 1,31,-1
 425 396 l 1,0,-1
179 299 m 1,32,-1
 166 315 l 1,33,-1
 144 315 l 1,34,-1
 125 299 l 1,35,-1
 120 277 l 1,36,-1
 133 261 l 1,37,-1
 155 261 l 1,38,-1
 174 277 l 1,39,-1
 179 299 l 1,32,-1
EndSplineSet
EndChar
StartChar: uni0E04
Encoding: 3588 3588 215
Width: 433
Flags: W
Fore
400 395 m 1,0,-1
 443 341 l 1,1,-1
 371 0 l 1,2,-1
 317 0 l 1,3,-1
 384 319 l 1,4,-1
 367 341 l 1,5,-1
 196 341 l 1,6,-1
 169 319 l 1,7,-1
 144 200 l 1,8,-1
 239 278 l 1,9,-1
 298 278 l 1,10,-1
 331 236 l 1,11,-1
 318 177 l 1,12,-1
 267 134 l 1,13,-1
 208 134 l 1,14,-1
 179 171 l 1,15,-1
 129 130 l 1,16,-1
 102 0 l 1,17,-1
 48 0 l 1,18,-1
 120 342 l 1,19,-1
 184 395 l 1,20,-1
 400 395 l 1,0,-1
229 218 m 1,21,-1
 224 195 l 1,22,-1
 236 180 l 1,23,-1
 259 180 l 1,24,-1
 277 195 l 1,25,-1
 282 218 l 1,26,-1
 270 233 l 1,27,-1
 247 233 l 1,28,-1
 229 218 l 1,21,-1
EndSplineSet
EndChar
StartChar: uni0E05
Encoding: 3589 3589 216
Width: 433
Flags: W
Fore
402 396 m 1,0,-1
 444 342 l 1,1,-1
 371 0 l 1,2,-1
 317 0 l 1,3,-1
 385 319 l 1,4,-1
 368 342 l 1,5,-1
 327 342 l 1,6,-1
 272 296 l 1,7,-1
 237 342 l 1,8,-1
 196 342 l 1,9,-1
 169 320 l 1,10,-1
 144 200 l 1,11,-1
 239 279 l 1,12,-1
 299 279 l 1,13,-1
 332 237 l 1,14,-1
 319 177 l 1,15,-1
 268 135 l 1,16,-1
 208 135 l 1,17,-1
 179 172 l 1,18,-1
 129 130 l 1,19,-1
 101 0 l 1,20,-1
 47 0 l 1,21,-1
 120 342 l 1,22,-1
 186 396 l 1,23,-1
 271 396 l 1,24,-1
 289 373 l 1,25,-1
 317 396 l 1,26,-1
 402 396 l 1,0,-1
229 218 m 1,27,-1
 224 196 l 1,28,-1
 237 180 l 1,29,-1
 259 180 l 1,30,-1
 278 196 l 1,31,-1
 283 218 l 1,32,-1
 270 234 l 1,33,-1
 248 234 l 1,34,-1
 229 218 l 1,27,-1
EndSplineSet
EndChar
StartChar: uni0E06
Encoding: 3590 3590 217
Width: 474
Flags: W
Fore
497 396 m 1,0,-1
 412 0 l 1,1,-1
 358 0 l 1,2,-1
 264 62 l 1,3,-1
 260 43 l 1,4,-1
 208 0 l 1,5,-1
 148 0 l 1,6,-1
 116 43 l 1,7,-1
 128 102 l 1,8,-1
 179 144 l 1,9,-1
 209 144 l 1,10,-1
 238 279 l 1,11,-1
 292 324 l 1,12,-1
 296 342 l 1,13,-1
 289 351 l 1,14,-1
 280 351 l 1,15,-1
 247 324 l 1,16,-1
 226 351 l 1,17,-1
 202 351 l 1,18,-1
 228 318 l 1,19,-1
 215 258 l 1,20,-1
 164 216 l 1,21,-1
 104 216 l 1,22,-1
 71 258 l 1,23,-1
 89 343 l 1,24,-1
 155 396 l 1,25,-1
 242 396 l 1,26,-1
 258 375 l 1,27,-1
 284 396 l 1,28,-1
 317 396 l 1,29,-1
 345 360 l 1,30,-1
 333 305 l 1,31,-1
 290 269 l 1,32,-1
 260 129 l 1,33,-1
 370 57 l 1,34,-1
 443 396 l 1,35,-1
 497 396 l 1,0,-1
179 300 m 1,36,-1
 166 315 l 1,37,-1
 144 315 l 1,38,-1
 125 300 l 1,39,-1
 120 277 l 1,40,-1
 133 262 l 1,41,-1
 155 262 l 1,42,-1
 174 277 l 1,43,-1
 179 300 l 1,36,-1
223 84 m 1,44,-1
 217 92 l 1,45,-1
 205 99 l 1,46,-1
 188 99 l 1,47,-1
 169 84 l 1,48,-1
 164 61 l 1,49,-1
 177 46 l 1,50,-1
 199 46 l 1,51,-1
 218 61 l 1,52,-1
 223 84 l 1,44,-1
EndSplineSet
EndChar
StartChar: uni0E07
Encoding: 3591 3591 218
Width: 335
Flags: W
Fore
324 396 m 1,0,-1
 357 354 l 1,1,-1
 281 0 l 1,2,-1
 227 0 l 1,3,-1
 89 258 l 1,4,-1
 135 288 l 1,5,-1
 245 83 l 1,6,-1
 281 252 l 1,7,-1
 233 252 l 1,8,-1
 200 294 l 1,9,-1
 213 354 l 1,10,-1
 264 396 l 1,11,-1
 324 396 l 1,0,-1
262 297 m 1,12,-1
 284 297 l 1,13,-1
 303 313 l 1,14,-1
 308 335 l 1,15,-1
 295 351 l 1,16,-1
 273 351 l 1,17,-1
 254 335 l 1,18,-1
 249 313 l 1,19,-1
 262 297 l 1,12,-1
EndSplineSet
EndChar
StartChar: uni0E08
Encoding: 3592 3592 219
Width: 405
Flags: W
Fore
382 396 m 1,0,-1
 424 342 l 1,1,-1
 351 0 l 1,2,-1
 297 0 l 1,3,-1
 325 129 l 1,4,-1
 292 172 l 1,5,-1
 247 135 l 1,6,-1
 187 135 l 1,7,-1
 154 177 l 1,8,-1
 167 236 l 1,9,-1
 218 279 l 1,10,-1
 278 279 l 1,11,-1
 340 199 l 1,12,-1
 365 319 l 1,13,-1
 348 342 l 1,14,-1
 176 342 l 1,15,-1
 149 319 l 1,16,-1
 145 297 l 1,17,-1
 91 297 l 1,18,-1
 100 342 l 1,19,-1
 166 396 l 1,20,-1
 382 396 l 1,0,-1
257 196 m 1,21,-1
 262 218 l 1,22,-1
 249 234 l 1,23,-1
 227 234 l 1,24,-1
 208 218 l 1,25,-1
 203 196 l 1,26,-1
 216 180 l 1,27,-1
 238 180 l 1,28,-1
 257 196 l 1,21,-1
EndSplineSet
EndChar
StartChar: uni0E09
Encoding: 3593 3593 220
Width: 437
Flags: W
Fore
393 144 m 1,0,-1
 427 102 l 1,1,-1
 414 42 l 1,2,-1
 362 0 l 1,3,-1
 303 0 l 1,4,-1
 270 42 l 1,5,-1
 272 51 l 1,6,-1
 189 0 l 1,7,-1
 135 0 l 1,8,-1
 164 135 l 1,9,-1
 116 135 l 1,10,-1
 83 177 l 1,11,-1
 96 237 l 1,12,-1
 147 279 l 1,13,-1
 207 279 l 1,14,-1
 240 237 l 1,15,-1
 202 61 l 1,16,-1
 327 138 l 1,17,-1
 365 320 l 1,18,-1
 347 342 l 1,19,-1
 176 342 l 1,20,-1
 149 320 l 1,21,-1
 145 297 l 1,22,-1
 91 297 l 1,23,-1
 100 342 l 1,24,-1
 165 396 l 1,25,-1
 382 396 l 1,26,-1
 424 342 l 1,27,-1
 382 144 l 1,28,-1
 393 144 l 1,0,-1
145 180 m 1,29,-1
 167 180 l 1,30,-1
 185 196 l 1,31,-1
 190 218 l 1,32,-1
 178 234 l 1,33,-1
 156 234 l 1,34,-1
 137 218 l 1,35,-1
 132 196 l 1,36,-1
 145 180 l 1,29,-1
373 61 m 1,37,-1
 378 83 l 1,38,-1
 365 99 l 1,39,-1
 349 99 l 1,40,-1
 324 83 l 1,41,-1
 319 61 l 1,42,-1
 332 45 l 1,43,-1
 354 45 l 1,44,-1
 373 61 l 1,37,-1
EndSplineSet
EndChar
StartChar: uni0E0A
Encoding: 3594 3594 221
Width: 395
Flags: W
Fore
395 351 m 1,0,-1
 411 331 l 1,1,-1
 352 54 l 1,2,-1
 288 0 l 1,3,-1
 233 0 l 1,4,-1
 190 54 l 1,5,-1
 249 329 l 1,6,-1
 238 342 l 1,7,-1
 191 342 l 1,8,-1
 217 309 l 1,9,-1
 205 249 l 1,10,-1
 154 207 l 1,11,-1
 95 207 l 1,12,-1
 62 249 l 1,13,-1
 81 342 l 1,14,-1
 146 396 l 1,15,-1
 263 396 l 1,16,-1
 305 342 l 1,17,-1
 249 76 l 1,18,-1
 267 54 l 1,19,-1
 276 54 l 1,20,-1
 303 76 l 1,21,-1
 354 315 l 1,22,-1
 325 351 l 1,23,-1
 456 459 l 1,24,-1
 484 424 l 1,25,-1
 395 351 l 1,0,-1
164 268 m 1,26,-1
 168 290 l 1,27,-1
 157 306 l 1,28,-1
 134 306 l 1,29,-1
 115 290 l 1,30,-1
 111 268 l 1,31,-1
 122 252 l 1,32,-1
 145 252 l 1,33,-1
 164 268 l 1,26,-1
EndSplineSet
EndChar
StartChar: uni0E0B
Encoding: 3595 3595 222
Width: 401
Flags: W
Fore
394 350 m 1,0,-1
 410 330 l 1,1,-1
 351 53 l 1,2,-1
 286 0 l 1,3,-1
 232 0 l 1,4,-1
 189 54 l 1,5,-1
 237 278 l 1,6,-1
 291 323 l 1,7,-1
 295 341 l 1,8,-1
 288 351 l 1,9,-1
 279 351 l 1,10,-1
 246 323 l 1,11,-1
 224 351 l 1,12,-1
 201 351 l 1,13,-1
 227 317 l 1,14,-1
 215 258 l 1,15,-1
 164 216 l 1,16,-1
 104 216 l 1,17,-1
 71 258 l 1,18,-1
 89 342 l 1,19,-1
 154 395 l 1,20,-1
 240 395 l 1,21,-1
 257 374 l 1,22,-1
 283 395 l 1,23,-1
 316 395 l 1,24,-1
 340 364 l 1,25,-1
 455 458 l 1,26,-1
 483 423 l 1,27,-1
 394 350 l 1,0,-1
178 299 m 1,28,-1
 166 315 l 1,29,-1
 144 315 l 1,30,-1
 124 299 l 1,31,-1
 120 277 l 1,32,-1
 132 261 l 1,33,-1
 154 261 l 1,34,-1
 174 277 l 1,35,-1
 178 299 l 1,28,-1
353 314 m 1,36,-1
 338 332 l 1,37,-1
 333 305 l 1,38,-1
 289 269 l 1,39,-1
 248 76 l 1,40,-1
 265 54 l 1,41,-1
 275 54 l 1,42,-1
 302 76 l 1,43,-1
 353 314 l 1,36,-1
EndSplineSet
EndChar
StartChar: uni0E0C
Encoding: 3596 3596 223
Width: 587
Flags: W
Fore
618 396 m 1,0,-1
 533 0 l 1,1,-1
 479 0 l 1,2,-1
 384 61 l 1,3,-1
 380 42 l 1,4,-1
 329 0 l 1,5,-1
 269 0 l 1,6,-1
 236 42 l 1,7,-1
 249 102 l 1,8,-1
 300 144 l 1,9,-1
 330 144 l 1,10,-1
 367 320 l 1,11,-1
 350 342 l 1,12,-1
 179 342 l 1,13,-1
 225 284 l 1,14,-1
 148 221 l 1,15,-1
 132 144 l 1,16,-1
 180 144 l 1,17,-1
 213 102 l 1,18,-1
 200 42 l 1,19,-1
 149 0 l 1,20,-1
 89 0 l 1,21,-1
 56 42 l 1,22,-1
 99 244 l 1,23,-1
 148 284 l 1,24,-1
 102 342 l 1,25,-1
 168 396 l 1,26,-1
 384 396 l 1,27,-1
 426 342 l 1,28,-1
 381 129 l 1,29,-1
 492 57 l 1,30,-1
 564 396 l 1,31,-1
 618 396 l 1,0,-1
151 99 m 1,32,-1
 129 99 l 1,33,-1
 110 83 l 1,34,-1
 105 61 l 1,35,-1
 118 45 l 1,36,-1
 140 45 l 1,37,-1
 159 61 l 1,38,-1
 164 83 l 1,39,-1
 151 99 l 1,32,-1
344 83 m 1,40,-1
 338 92 l 1,41,-1
 326 99 l 1,42,-1
 309 99 l 1,43,-1
 290 83 l 1,44,-1
 285 61 l 1,45,-1
 298 45 l 1,46,-1
 320 45 l 1,47,-1
 339 61 l 1,48,-1
 344 83 l 1,40,-1
EndSplineSet
EndChar
StartChar: uni0E0D
Encoding: 3597 3597 224
Width: 587
Flags: W
Fore
367 320 m 1,0,-1
 349 342 l 1,1,-1
 178 342 l 1,2,-1
 224 284 l 1,3,-1
 148 221 l 1,4,-1
 131 144 l 1,5,-1
 179 144 l 1,6,-1
 212 102 l 1,7,-1
 200 42 l 1,8,-1
 149 0 l 1,9,-1
 90 0 l 1,10,-1
 56 42 l 1,11,-1
 99 244 l 1,12,-1
 148 284 l 1,13,-1
 102 342 l 1,14,-1
 167 396 l 1,15,-1
 383 396 l 1,16,-1
 425 342 l 1,17,-1
 364 54 l 1,18,-1
 468 54 l 1,19,-1
 495 76 l 1,20,-1
 563 396 l 1,21,-1
 617 396 l 1,22,-1
 544 54 l 1,23,-1
 479 0 l 1,24,-1
 299 0 l 1,25,-1
 367 320 l 1,0,-1
129 99 m 1,26,-1
 109 83 l 1,27,-1
 105 61 l 1,28,-1
 117 45 l 1,29,-1
 139 45 l 1,30,-1
 159 61 l 1,31,-1
 163 83 l 1,32,-1
 151 99 l 1,33,-1
 129 99 l 1,26,-1
480 -72 m 1,34,-1
 510 -110 l 1,35,-1
 425 -181 l 1,36,-1
 297 -181 l 1,37,-1
 268 -144 l 1,38,-1
 279 -92 l 1,39,-1
 324 -55 l 1,40,-1
 376 -55 l 1,41,-1
 405 -92 l 1,42,-1
 398 -127 l 1,43,-1
 415 -127 l 1,44,-1
 480 -72 l 1,34,-1
353 -125 m 1,45,-1
 356 -110 l 1,46,-1
 348 -100 l 1,47,-1
 333 -100 l 1,48,-1
 320 -110 l 1,49,-1
 317 -125 l 1,50,-1
 326 -136 l 1,51,-1
 341 -136 l 1,52,-1
 353 -125 l 1,45,-1
EndSplineSet
Substitution: 0 65534 'L026' uni0E0D.alt1
Substitution: 0 65534 'L026' uni0E0D.alt1
EndChar
StartChar: uni0E0E
Encoding: 3598 3598 225
Width: 456
Flags: W
Fore
433 396 m 1,0,-1
 475 342 l 1,1,-1
 364 -180 l 1,2,-1
 310 -180 l 1,3,-1
 281 -143 l 1,4,-1
 236 -180 l 1,5,-1
 100 -180 l 1,6,-1
 67 -138 l 1,7,-1
 80 -78 l 1,8,-1
 131 -36 l 1,9,-1
 267 -36 l 1,10,-1
 325 -110 l 1,11,-1
 417 320 l 1,12,-1
 399 342 l 1,13,-1
 228 342 l 1,14,-1
 274 284 l 1,15,-1
 198 221 l 1,16,-1
 159 42 l 1,17,-1
 109 0 l 1,18,-1
 49 0 l 1,19,-1
 16 42 l 1,20,-1
 28 102 l 1,21,-1
 79 144 l 1,22,-1
 127 144 l 1,23,-1
 148 244 l 1,24,-1
 197 284 l 1,25,-1
 151 342 l 1,26,-1
 217 396 l 1,27,-1
 433 396 l 1,0,-1
119 61 m 1,28,-1
 123 83 l 1,29,-1
 111 99 l 1,30,-1
 89 99 l 1,31,-1
 69 83 l 1,32,-1
 65 61 l 1,33,-1
 77 45 l 1,34,-1
 99 45 l 1,35,-1
 119 61 l 1,28,-1
223 -126 m 1,36,-1
 245 -108 l 1,37,-1
 230 -90 l 1,38,-1
 141 -90 l 1,39,-1
 129 -100 l 1,40,-1
 126 -115 l 1,41,-1
 134 -126 l 1,42,-1
 223 -126 l 1,36,-1
EndSplineSet
Substitution: 0 65534 'L026' uni0E0E.alt1
Substitution: 0 65534 'L026' uni0E0E.alt1
EndChar
StartChar: uni0E0F
Encoding: 3599 3599 226
Width: 456
Flags: W
Fore
433 396 m 1,0,-1
 474 342 l 1,1,-1
 363 -180 l 1,2,-1
 309 -180 l 1,3,-1
 280 -142 l 1,4,-1
 234 -180 l 1,5,-1
 204 -143 l 1,6,-1
 159 -180 l 1,7,-1
 100 -180 l 1,8,-1
 67 -138 l 1,9,-1
 80 -78 l 1,10,-1
 131 -36 l 1,11,-1
 190 -36 l 1,12,-1
 249 -110 l 1,13,-1
 295 -72 l 1,14,-1
 324 -110 l 1,15,-1
 416 320 l 1,16,-1
 398 342 l 1,17,-1
 227 342 l 1,18,-1
 273 284 l 1,19,-1
 198 221 l 1,20,-1
 159 42 l 1,21,-1
 108 0 l 1,22,-1
 49 0 l 1,23,-1
 16 42 l 1,24,-1
 28 102 l 1,25,-1
 79 144 l 1,26,-1
 127 144 l 1,27,-1
 148 244 l 1,28,-1
 197 284 l 1,29,-1
 151 342 l 1,30,-1
 216 396 l 1,31,-1
 433 396 l 1,0,-1
118 61 m 1,32,-1
 122 83 l 1,33,-1
 111 99 l 1,34,-1
 88 99 l 1,35,-1
 69 83 l 1,36,-1
 65 61 l 1,37,-1
 76 45 l 1,38,-1
 99 45 l 1,39,-1
 118 61 l 1,32,-1
162 -115 m 1,40,-1
 165 -100 l 1,41,-1
 156 -90 l 1,42,-1
 141 -90 l 1,43,-1
 129 -100 l 1,44,-1
 126 -115 l 1,45,-1
 134 -126 l 1,46,-1
 149 -126 l 1,47,-1
 162 -115 l 1,40,-1
EndSplineSet
Substitution: 0 65534 'L026' uni0E0F.alt1
Substitution: 0 65534 'L026' uni0E0F.alt1
EndChar
StartChar: uni0E10
Encoding: 3600 3600 227
Width: 396
Flags: W
Fore
176 342 m 1,0,-1
 164 332 l 1,1,-1
 391 270 l 1,2,-1
 334 0 l 1,3,-1
 280 0 l 1,4,-1
 298 86 l 1,5,-1
 266 127 l 1,6,-1
 221 90 l 1,7,-1
 161 90 l 1,8,-1
 128 133 l 1,9,-1
 140 192 l 1,10,-1
 191 234 l 1,11,-1
 251 234 l 1,12,-1
 313 156 l 1,13,-1
 329 233 l 1,14,-1
 92 297 l 1,15,-1
 91 297 l 1,16,-1
 100 342 l 1,17,-1
 166 396 l 1,18,-1
 436 396 l 1,19,-1
 424 342 l 1,20,-1
 176 342 l 1,0,-1
236 174 m 1,21,-1
 223 189 l 1,22,-1
 201 189 l 1,23,-1
 182 174 l 1,24,-1
 177 151 l 1,25,-1
 189 136 l 1,26,-1
 211 136 l 1,27,-1
 231 151 l 1,28,-1
 236 174 l 1,21,-1
314 -91 m 1,29,-1
 303 -144 l 1,30,-1
 258 -180 l 1,31,-1
 206 -180 l 1,32,-1
 156 -117 l 1,33,-1
 89 -171 l 1,34,-1
 21 -85 l 1,35,-1
 59 -53 l 1,36,-1
 103 -108 l 1,37,-1
 169 -53 l 1,38,-1
 195 -86 l 1,39,-1
 233 -54 l 1,40,-1
 285 -54 l 1,41,-1
 314 -91 l 1,29,-1
265 -110 m 1,42,-1
 257 -99 l 1,43,-1
 243 -99 l 1,44,-1
 229 -110 l 1,45,-1
 226 -125 l 1,46,-1
 235 -135 l 1,47,-1
 249 -135 l 1,48,-1
 262 -125 l 1,49,-1
 265 -110 l 1,42,-1
EndSplineSet
Substitution: 0 65534 'L026' uni0E10.alt1
Substitution: 0 65534 'L026' uni0E10.alt1
EndChar
StartChar: uni0E11
Encoding: 3601 3601 228
Width: 509
Flags: W
Fore
521 342 m 1,0,-1
 448 0 l 1,1,-1
 394 0 l 1,2,-1
 462 320 l 1,3,-1
 444 342 l 1,4,-1
 428 342 l 1,5,-1
 232 0 l 1,6,-1
 178 0 l 1,7,-1
 238 279 l 1,8,-1
 292 324 l 1,9,-1
 296 342 l 1,10,-1
 289 351 l 1,11,-1
 280 351 l 1,12,-1
 247 324 l 1,13,-1
 225 351 l 1,14,-1
 202 351 l 1,15,-1
 228 318 l 1,16,-1
 215 258 l 1,17,-1
 164 216 l 1,18,-1
 104 216 l 1,19,-1
 71 258 l 1,20,-1
 89 343 l 1,21,-1
 155 396 l 1,22,-1
 241 396 l 1,23,-1
 258 375 l 1,24,-1
 284 396 l 1,25,-1
 317 396 l 1,26,-1
 345 360 l 1,27,-1
 333 305 l 1,28,-1
 290 269 l 1,29,-1
 264 147 l 1,30,-1
 407 396 l 1,31,-1
 479 396 l 1,32,-1
 521 342 l 1,0,-1
179 300 m 1,33,-1
 166 315 l 1,34,-1
 144 315 l 1,35,-1
 125 300 l 1,36,-1
 120 277 l 1,37,-1
 133 262 l 1,38,-1
 155 262 l 1,39,-1
 174 277 l 1,40,-1
 179 300 l 1,33,-1
EndSplineSet
EndChar
StartChar: uni0E12
Encoding: 3602 3602 229
Width: 613
Flags: W
Fore
583 396 m 1,0,-1
 637 396 l 1,1,-1
 552 0 l 1,2,-1
 498 0 l 1,3,-1
 403 61 l 1,4,-1
 399 42 l 1,5,-1
 348 0 l 1,6,-1
 288 0 l 1,7,-1
 255 42 l 1,8,-1
 268 102 l 1,9,-1
 319 144 l 1,10,-1
 349 144 l 1,11,-1
 386 319 l 1,12,-1
 368 342 l 1,13,-1
 328 342 l 1,14,-1
 320 335 l 1,15,-1
 273 296 l 1,16,-1
 244 335 l 1,17,-1
 238 342 l 1,18,-1
 197 342 l 1,19,-1
 170 320 l 1,20,-1
 117 69 l 1,21,-1
 205 140 l 1,22,-1
 176 177 l 1,23,-1
 189 237 l 1,24,-1
 240 279 l 1,25,-1
 300 279 l 1,26,-1
 333 237 l 1,27,-1
 320 177 l 1,28,-1
 102 0 l 1,29,-1
 48 0 l 1,30,-1
 121 342 l 1,31,-1
 187 396 l 1,32,-1
 272 396 l 1,33,-1
 290 373 l 1,34,-1
 318 396 l 1,35,-1
 403 396 l 1,36,-1
 445 342 l 1,37,-1
 400 129 l 1,38,-1
 511 57 l 1,39,-1
 583 396 l 1,0,-1
230 218 m 1,40,-1
 225 196 l 1,41,-1
 238 180 l 1,42,-1
 260 180 l 1,43,-1
 279 196 l 1,44,-1
 284 218 l 1,45,-1
 271 234 l 1,46,-1
 249 234 l 1,47,-1
 230 218 l 1,40,-1
363 83 m 1,48,-1
 356 92 l 1,49,-1
 345 99 l 1,50,-1
 328 99 l 1,51,-1
 309 83 l 1,52,-1
 304 61 l 1,53,-1
 317 45 l 1,54,-1
 339 45 l 1,55,-1
 358 61 l 1,56,-1
 363 83 l 1,48,-1
EndSplineSet
EndChar
StartChar: uni0E13
Encoding: 3603 3603 230
Width: 619
Flags: W
Fore
576 144 m 1,0,-1
 609 101 l 1,1,-1
 596 42 l 1,2,-1
 546 0 l 1,3,-1
 486 0 l 1,4,-1
 452 42 l 1,5,-1
 456 59 l 1,6,-1
 352 0 l 1,7,-1
 300 0 l 1,8,-1
 367 319 l 1,9,-1
 350 341 l 1,10,-1
 179 341 l 1,11,-1
 225 283 l 1,12,-1
 148 221 l 1,13,-1
 132 144 l 1,14,-1
 180 144 l 1,15,-1
 213 101 l 1,16,-1
 200 42 l 1,17,-1
 150 0 l 1,18,-1
 90 0 l 1,19,-1
 56 42 l 1,20,-1
 99 243 l 1,21,-1
 148 283 l 1,22,-1
 102 342 l 1,23,-1
 167 395 l 1,24,-1
 383 395 l 1,25,-1
 426 341 l 1,26,-1
 366 59 l 1,27,-1
 510 143 l 1,28,-1
 563 395 l 1,29,-1
 617 395 l 1,30,-1
 564 144 l 1,31,-1
 576 144 l 1,0,-1
152 99 m 1,32,-1
 130 99 l 1,33,-1
 110 83 l 1,34,-1
 105 61 l 1,35,-1
 118 45 l 1,36,-1
 140 45 l 1,37,-1
 159 61 l 1,38,-1
 164 83 l 1,39,-1
 152 99 l 1,32,-1
555 61 m 1,40,-1
 560 83 l 1,41,-1
 548 99 l 1,42,-1
 526 99 l 1,43,-1
 506 83 l 1,44,-1
 501 61 l 1,45,-1
 514 45 l 1,46,-1
 536 45 l 1,47,-1
 555 61 l 1,40,-1
EndSplineSet
EndChar
StartChar: uni0E14
Encoding: 3604 3604 231
Width: 434
Flags: W
Fore
403 396 m 1,0,-1
 445 342 l 1,1,-1
 372 0 l 1,2,-1
 318 0 l 1,3,-1
 386 319 l 1,4,-1
 369 342 l 1,5,-1
 198 342 l 1,6,-1
 170 320 l 1,7,-1
 117 69 l 1,8,-1
 205 140 l 1,9,-1
 176 177 l 1,10,-1
 189 237 l 1,11,-1
 241 279 l 1,12,-1
 300 279 l 1,13,-1
 333 237 l 1,14,-1
 320 177 l 1,15,-1
 103 0 l 1,16,-1
 49 0 l 1,17,-1
 122 342 l 1,18,-1
 187 396 l 1,19,-1
 403 396 l 1,0,-1
231 218 m 1,20,-1
 226 196 l 1,21,-1
 238 180 l 1,22,-1
 261 180 l 1,23,-1
 279 196 l 1,24,-1
 284 218 l 1,25,-1
 272 234 l 1,26,-1
 249 234 l 1,27,-1
 231 218 l 1,20,-1
EndSplineSet
EndChar
StartChar: uni0E15
Encoding: 3605 3605 232
Width: 433
Flags: W
Fore
401 395 m 1,0,-1
 444 341 l 1,1,-1
 372 0 l 1,2,-1
 318 0 l 1,3,-1
 385 319 l 1,4,-1
 367 341 l 1,5,-1
 327 341 l 1,6,-1
 272 296 l 1,7,-1
 237 341 l 1,8,-1
 196 341 l 1,9,-1
 169 319 l 1,10,-1
 116 69 l 1,11,-1
 204 140 l 1,12,-1
 175 177 l 1,13,-1
 188 236 l 1,14,-1
 239 278 l 1,15,-1
 299 278 l 1,16,-1
 332 236 l 1,17,-1
 319 177 l 1,18,-1
 102 0 l 1,19,-1
 48 0 l 1,20,-1
 120 342 l 1,21,-1
 185 395 l 1,22,-1
 270 395 l 1,23,-1
 289 372 l 1,24,-1
 316 395 l 1,25,-1
 401 395 l 1,0,-1
229 218 m 1,26,-1
 224 195 l 1,27,-1
 237 180 l 1,28,-1
 259 180 l 1,29,-1
 278 195 l 1,30,-1
 283 218 l 1,31,-1
 270 233 l 1,32,-1
 248 233 l 1,33,-1
 229 218 l 1,26,-1
EndSplineSet
EndChar
StartChar: uni0E16
Encoding: 3606 3606 233
Width: 406
Flags: W
Fore
383 396 m 1,0,-1
 425 342 l 1,1,-1
 352 0 l 1,2,-1
 298 0 l 1,3,-1
 366 319 l 1,4,-1
 348 342 l 1,5,-1
 178 342 l 1,6,-1
 223 284 l 1,7,-1
 147 221 l 1,8,-1
 131 144 l 1,9,-1
 179 144 l 1,10,-1
 212 102 l 1,11,-1
 199 42 l 1,12,-1
 148 0 l 1,13,-1
 88 0 l 1,14,-1
 55 42 l 1,15,-1
 98 243 l 1,16,-1
 147 284 l 1,17,-1
 101 342 l 1,18,-1
 167 396 l 1,19,-1
 383 396 l 1,0,-1
150 99 m 1,20,-1
 128 99 l 1,21,-1
 109 83 l 1,22,-1
 104 61 l 1,23,-1
 117 45 l 1,24,-1
 139 45 l 1,25,-1
 158 61 l 1,26,-1
 163 83 l 1,27,-1
 150 99 l 1,20,-1
EndSplineSet
EndChar
StartChar: uni0E17
Encoding: 3607 3607 234
Width: 457
Flags: W
Fore
434 396 m 1,0,-1
 476 342 l 1,1,-1
 403 0 l 1,2,-1
 349 0 l 1,3,-1
 417 319 l 1,4,-1
 400 342 l 1,5,-1
 380 342 l 1,6,-1
 151 0 l 1,7,-1
 97 0 l 1,8,-1
 151 252 l 1,9,-1
 104 252 l 1,10,-1
 71 294 l 1,11,-1
 83 353 l 1,12,-1
 135 396 l 1,13,-1
 194 396 l 1,14,-1
 226 353 l 1,15,-1
 177 120 l 1,16,-1
 362 396 l 1,17,-1
 434 396 l 1,0,-1
132 297 m 1,18,-1
 155 297 l 1,19,-1
 173 313 l 1,20,-1
 178 335 l 1,21,-1
 166 351 l 1,22,-1
 143 351 l 1,23,-1
 125 335 l 1,24,-1
 120 313 l 1,25,-1
 132 297 l 1,18,-1
EndSplineSet
EndChar
StartChar: uni0E18
Encoding: 3608 3608 235
Width: 386
Flags: W
Fore
406 342 m 1,0,-1
 176 342 l 1,1,-1
 165 332 l 1,2,-1
 393 279 l 1,3,-1
 345 54 l 1,4,-1
 279 0 l 1,5,-1
 99 0 l 1,6,-1
 57 54 l 1,7,-1
 99 252 l 1,8,-1
 153 252 l 1,9,-1
 116 76 l 1,10,-1
 133 54 l 1,11,-1
 269 54 l 1,12,-1
 296 76 l 1,13,-1
 330 240 l 1,14,-1
 90 296 l 1,15,-1
 100 342 l 1,16,-1
 166 396 l 1,17,-1
 418 396 l 1,18,-1
 406 342 l 1,0,-1
EndSplineSet
EndChar
StartChar: uni0E19
Encoding: 3609 3609 236
Width: 454
Flags: W
Fore
411 144 m 1,0,-1
 444 102 l 1,1,-1
 431 42 l 1,2,-1
 380 0 l 1,3,-1
 320 0 l 1,4,-1
 287 42 l 1,5,-1
 292 65 l 1,6,-1
 152 0 l 1,7,-1
 98 0 l 1,8,-1
 152 252 l 1,9,-1
 105 252 l 1,10,-1
 72 294 l 1,11,-1
 84 353 l 1,12,-1
 136 396 l 1,13,-1
 195 396 l 1,14,-1
 227 353 l 1,15,-1
 164 56 l 1,16,-1
 344 139 l 1,17,-1
 399 396 l 1,18,-1
 453 396 l 1,19,-1
 399 144 l 1,20,-1
 411 144 l 1,0,-1
133 297 m 1,21,-1
 156 297 l 1,22,-1
 174 313 l 1,23,-1
 179 335 l 1,24,-1
 167 351 l 1,25,-1
 144 351 l 1,26,-1
 126 335 l 1,27,-1
 121 313 l 1,28,-1
 133 297 l 1,21,-1
390 61 m 1,29,-1
 395 83 l 1,30,-1
 383 99 l 1,31,-1
 365 99 l 1,32,-1
 354 93 l 1,33,-1
 342 83 l 1,34,-1
 337 61 l 1,35,-1
 349 45 l 1,36,-1
 372 45 l 1,37,-1
 390 61 l 1,29,-1
EndSplineSet
EndChar
StartChar: uni0E1A
Encoding: 3610 3610 237
Width: 440
Flags: W
Fore
417 396 m 1,0,-1
 471 396 l 1,1,-1
 398 54 l 1,2,-1
 333 0 l 1,3,-1
 152 0 l 1,4,-1
 111 54 l 1,5,-1
 153 252 l 1,6,-1
 105 252 l 1,7,-1
 72 294 l 1,8,-1
 84 353 l 1,9,-1
 136 396 l 1,10,-1
 195 396 l 1,11,-1
 228 353 l 1,12,-1
 170 76 l 1,13,-1
 187 54 l 1,14,-1
 322 54 l 1,15,-1
 349 76 l 1,16,-1
 417 396 l 1,0,-1
134 297 m 1,17,-1
 156 297 l 1,18,-1
 175 313 l 1,19,-1
 180 335 l 1,20,-1
 167 351 l 1,21,-1
 145 351 l 1,22,-1
 126 335 l 1,23,-1
 121 313 l 1,24,-1
 134 297 l 1,17,-1
EndSplineSet
EndChar
StartChar: uni0E1B
Encoding: 3611 3611 238
Width: 441
Flags: W
Fore
456 576 m 1,0,-1
 510 576 l 1,1,-1
 399 54 l 1,2,-1
 333 0 l 1,3,-1
 153 0 l 1,4,-1
 111 54 l 1,5,-1
 153 252 l 1,6,-1
 105 252 l 1,7,-1
 72 294 l 1,8,-1
 85 354 l 1,9,-1
 135 396 l 1,10,-1
 195 396 l 1,11,-1
 229 354 l 1,12,-1
 170 77 l 1,13,-1
 187 54 l 1,14,-1
 323 54 l 1,15,-1
 349 76 l 1,16,-1
 456 576 l 1,0,-1
133 297 m 1,17,-1
 155 297 l 1,18,-1
 175 313 l 1,19,-1
 179 335 l 1,20,-1
 167 351 l 1,21,-1
 145 351 l 1,22,-1
 125 335 l 1,23,-1
 121 313 l 1,24,-1
 133 297 l 1,17,-1
EndSplineSet
EndChar
StartChar: uni0E1C
Encoding: 3612 3612 239
Width: 432
Flags: W
Fore
400 395 m 1,0,-1
 454 395 l 1,1,-1
 371 0 l 1,2,-1
 317 0 l 1,3,-1
 234 116 l 1,4,-1
 102 0 l 1,5,-1
 48 0 l 1,6,-1
 123 353 l 1,7,-1
 173 395 l 1,8,-1
 232 395 l 1,9,-1
 266 353 l 1,10,-1
 253 294 l 1,11,-1
 202 251 l 1,12,-1
 155 251 l 1,13,-1
 117 72 l 1,14,-1
 250 189 l 1,15,-1
 332 73 l 1,16,-1
 400 395 l 1,0,-1
164 335 m 1,17,-1
 159 312 l 1,18,-1
 171 297 l 1,19,-1
 194 297 l 1,20,-1
 212 312 l 1,21,-1
 217 335 l 1,22,-1
 205 350 l 1,23,-1
 182 350 l 1,24,-1
 164 335 l 1,17,-1
EndSplineSet
EndChar
StartChar: uni0E1D
Encoding: 3613 3613 240
Width: 432
Flags: W
Fore
494 575 m 1,0,-1
 371 0 l 1,1,-1
 317 0 l 1,2,-1
 235 116 l 1,3,-1
 101 0 l 1,4,-1
 48 0 l 1,5,-1
 122 353 l 1,6,-1
 174 395 l 1,7,-1
 233 395 l 1,8,-1
 266 353 l 1,9,-1
 254 294 l 1,10,-1
 203 251 l 1,11,-1
 155 251 l 1,12,-1
 117 72 l 1,13,-1
 251 189 l 1,14,-1
 333 73 l 1,15,-1
 440 575 l 1,16,-1
 494 575 l 1,0,-1
165 335 m 1,17,-1
 160 312 l 1,18,-1
 172 297 l 1,19,-1
 195 297 l 1,20,-1
 213 312 l 1,21,-1
 218 335 l 1,22,-1
 206 350 l 1,23,-1
 183 350 l 1,24,-1
 165 335 l 1,17,-1
EndSplineSet
EndChar
StartChar: uni0E1E
Encoding: 3614 3614 241
Width: 475
Flags: W
Fore
452 396 m 1,0,-1
 506 396 l 1,1,-1
 421 0 l 1,2,-1
 367 0 l 1,3,-1
 317 265 l 1,4,-1
 152 0 l 1,5,-1
 98 0 l 1,6,-1
 152 252 l 1,7,-1
 104 252 l 1,8,-1
 71 294 l 1,9,-1
 83 353 l 1,10,-1
 135 396 l 1,11,-1
 194 396 l 1,12,-1
 227 353 l 1,13,-1
 180 131 l 1,14,-1
 345 396 l 1,15,-1
 395 131 l 1,16,-1
 452 396 l 1,0,-1
133 297 m 1,17,-1
 155 297 l 1,18,-1
 174 313 l 1,19,-1
 179 335 l 1,20,-1
 166 351 l 1,21,-1
 144 351 l 1,22,-1
 125 335 l 1,23,-1
 120 313 l 1,24,-1
 133 297 l 1,17,-1
EndSplineSet
EndChar
StartChar: uni0E1F
Encoding: 3615 3615 242
Width: 476
Flags: W
Fore
492 575 m 1,0,-1
 546 575 l 1,1,-1
 423 0 l 1,2,-1
 369 0 l 1,3,-1
 318 265 l 1,4,-1
 153 0 l 1,5,-1
 99 0 l 1,6,-1
 153 252 l 1,7,-1
 105 252 l 1,8,-1
 72 294 l 1,9,-1
 84 353 l 1,10,-1
 136 396 l 1,11,-1
 196 396 l 1,12,-1
 228 353 l 1,13,-1
 181 131 l 1,14,-1
 346 396 l 1,15,-1
 397 131 l 1,16,-1
 492 575 l 1,0,-1
134 297 m 1,17,-1
 156 297 l 1,18,-1
 175 313 l 1,19,-1
 180 335 l 1,20,-1
 167 351 l 1,21,-1
 145 351 l 1,22,-1
 126 335 l 1,23,-1
 121 313 l 1,24,-1
 134 297 l 1,17,-1
EndSplineSet
EndChar
StartChar: uni0E20
Encoding: 3616 3616 243
Width: 458
Flags: W
Fore
435 396 m 1,0,-1
 477 342 l 1,1,-1
 404 0 l 1,2,-1
 350 0 l 1,3,-1
 418 319 l 1,4,-1
 401 342 l 1,5,-1
 230 342 l 1,6,-1
 276 284 l 1,7,-1
 199 221 l 1,8,-1
 161 42 l 1,9,-1
 110 0 l 1,10,-1
 50 0 l 1,11,-1
 18 42 l 1,12,-1
 31 102 l 1,13,-1
 81 144 l 1,14,-1
 129 144 l 1,15,-1
 150 243 l 1,16,-1
 199 284 l 1,17,-1
 153 342 l 1,18,-1
 219 396 l 1,19,-1
 435 396 l 1,0,-1
120 61 m 1,20,-1
 125 83 l 1,21,-1
 112 99 l 1,22,-1
 90 99 l 1,23,-1
 71 83 l 1,24,-1
 66 61 l 1,25,-1
 79 45 l 1,26,-1
 101 45 l 1,27,-1
 120 61 l 1,20,-1
EndSplineSet
EndChar
StartChar: uni0E21
Encoding: 3617 3617 244
Width: 421
Flags: W
Fore
399 396 m 1,0,-1
 453 396 l 1,1,-1
 368 0 l 1,2,-1
 314 0 l 1,3,-1
 186 67 l 1,4,-1
 180 42 l 1,5,-1
 129 0 l 1,6,-1
 70 0 l 1,7,-1
 37 42 l 1,8,-1
 49 102 l 1,9,-1
 101 144 l 1,10,-1
 129 144 l 1,11,-1
 152 252 l 1,12,-1
 104 252 l 1,13,-1
 71 294 l 1,14,-1
 83 353 l 1,15,-1
 135 396 l 1,16,-1
 195 396 l 1,17,-1
 227 353 l 1,18,-1
 180 131 l 1,19,-1
 326 55 l 1,20,-1
 399 396 l 1,0,-1
133 297 m 1,21,-1
 155 297 l 1,22,-1
 174 313 l 1,23,-1
 179 335 l 1,24,-1
 166 351 l 1,25,-1
 144 351 l 1,26,-1
 125 335 l 1,27,-1
 120 313 l 1,28,-1
 133 297 l 1,21,-1
144 83 m 1,29,-1
 136 93 l 1,30,-1
 125 99 l 1,31,-1
 109 99 l 1,32,-1
 90 83 l 1,33,-1
 85 61 l 1,34,-1
 98 45 l 1,35,-1
 120 45 l 1,36,-1
 139 61 l 1,37,-1
 144 83 l 1,29,-1
EndSplineSet
EndChar
StartChar: uni0E22
Encoding: 3618 3618 245
Width: 408
Flags: W
Fore
385 396 m 1,0,-1
 439 396 l 1,1,-1
 366 54 l 1,2,-1
 300 0 l 1,3,-1
 102 0 l 1,4,-1
 60 54 l 1,5,-1
 79 144 l 1,6,-1
 122 179 l 1,7,-1
 80 233 l 1,8,-1
 105 353 l 1,9,-1
 157 396 l 1,10,-1
 217 396 l 1,11,-1
 249 353 l 1,12,-1
 237 294 l 1,13,-1
 186 252 l 1,14,-1
 142 252 l 1,15,-1
 198 179 l 1,16,-1
 128 121 l 1,17,-1
 119 76 l 1,18,-1
 136 54 l 1,19,-1
 290 54 l 1,20,-1
 317 76 l 1,21,-1
 385 396 l 1,0,-1
147 335 m 1,22,-1
 142 313 l 1,23,-1
 155 297 l 1,24,-1
 177 297 l 1,25,-1
 196 313 l 1,26,-1
 201 335 l 1,27,-1
 188 351 l 1,28,-1
 166 351 l 1,29,-1
 147 335 l 1,22,-1
EndSplineSet
EndChar
StartChar: uni0E23
Encoding: 3619 3619 246
Width: 332
Flags: W
Fore
175 342 m 1,0,-1
 148 319 l 1,1,-1
 337 279 l 1,2,-1
 286 42 l 1,3,-1
 235 0 l 1,4,-1
 176 0 l 1,5,-1
 142 42 l 1,6,-1
 155 102 l 1,7,-1
 207 144 l 1,8,-1
 254 144 l 1,9,-1
 274 239 l 1,10,-1
 86 279 l 1,11,-1
 99 342 l 1,12,-1
 164 396 l 1,13,-1
 380 396 l 1,14,-1
 368 342 l 1,15,-1
 175 342 l 1,0,-1
245 61 m 1,16,-1
 250 83 l 1,17,-1
 238 99 l 1,18,-1
 215 99 l 1,19,-1
 197 83 l 1,20,-1
 192 61 l 1,21,-1
 204 45 l 1,22,-1
 227 45 l 1,23,-1
 245 61 l 1,16,-1
EndSplineSet
EndChar
StartChar: uni0E24
Encoding: 3620 3620 247
Width: 406
Flags: W
Fore
382 396 m 1,0,-1
 424 342 l 1,1,-1
 313 -180 l 1,2,-1
 259 -180 l 1,3,-1
 365 319 l 1,4,-1
 348 342 l 1,5,-1
 177 342 l 1,6,-1
 223 284 l 1,7,-1
 147 221 l 1,8,-1
 130 144 l 1,9,-1
 178 144 l 1,10,-1
 211 102 l 1,11,-1
 198 42 l 1,12,-1
 148 0 l 1,13,-1
 89 0 l 1,14,-1
 54 42 l 1,15,-1
 97 243 l 1,16,-1
 147 284 l 1,17,-1
 100 342 l 1,18,-1
 166 396 l 1,19,-1
 382 396 l 1,0,-1
151 99 m 1,20,-1
 128 99 l 1,21,-1
 109 83 l 1,22,-1
 105 61 l 1,23,-1
 116 45 l 1,24,-1
 139 45 l 1,25,-1
 158 61 l 1,26,-1
 162 83 l 1,27,-1
 151 99 l 1,20,-1
EndSplineSet
EndChar
StartChar: uni0E25
Encoding: 3621 3621 248
Width: 405
Flags: W
Fore
382 396 m 1,0,-1
 424 342 l 1,1,-1
 351 0 l 1,2,-1
 297 0 l 1,3,-1
 328 146 l 1,4,-1
 266 225 l 1,5,-1
 169 225 l 1,6,-1
 142 202 l 1,7,-1
 130 144 l 1,8,-1
 178 144 l 1,9,-1
 211 102 l 1,10,-1
 198 42 l 1,11,-1
 147 0 l 1,12,-1
 87 0 l 1,13,-1
 54 42 l 1,14,-1
 93 225 l 1,15,-1
 159 279 l 1,16,-1
 294 279 l 1,17,-1
 343 216 l 1,18,-1
 365 320 l 1,19,-1
 348 342 l 1,20,-1
 176 342 l 1,21,-1
 149 319 l 1,22,-1
 145 297 l 1,23,-1
 91 297 l 1,24,-1
 100 342 l 1,25,-1
 166 396 l 1,26,-1
 382 396 l 1,0,-1
149 99 m 1,27,-1
 127 99 l 1,28,-1
 108 83 l 1,29,-1
 103 61 l 1,30,-1
 116 45 l 1,31,-1
 138 45 l 1,32,-1
 157 61 l 1,33,-1
 162 83 l 1,34,-1
 149 99 l 1,27,-1
EndSplineSet
EndChar
StartChar: uni0E26
Encoding: 3622 3622 249
Width: 457
Flags: W
Fore
435 396 m 1,0,-1
 477 342 l 1,1,-1
 366 -180 l 1,2,-1
 312 -180 l 1,3,-1
 418 319 l 1,4,-1
 401 342 l 1,5,-1
 230 342 l 1,6,-1
 276 284 l 1,7,-1
 200 221 l 1,8,-1
 161 42 l 1,9,-1
 111 0 l 1,10,-1
 52 0 l 1,11,-1
 18 42 l 1,12,-1
 30 102 l 1,13,-1
 82 144 l 1,14,-1
 129 144 l 1,15,-1
 150 243 l 1,16,-1
 200 284 l 1,17,-1
 153 342 l 1,18,-1
 219 396 l 1,19,-1
 435 396 l 1,0,-1
121 61 m 1,20,-1
 125 83 l 1,21,-1
 114 99 l 1,22,-1
 91 99 l 1,23,-1
 72 83 l 1,24,-1
 68 61 l 1,25,-1
 79 45 l 1,26,-1
 102 45 l 1,27,-1
 121 61 l 1,20,-1
EndSplineSet
EndChar
StartChar: uni0E27
Encoding: 3623 3623 250
Width: 367
Flags: W
Fore
344 395 m 1,0,-1
 386 342 l 1,1,-1
 322 42 l 1,2,-1
 272 0 l 1,3,-1
 212 0 l 1,4,-1
 178 42 l 1,5,-1
 191 101 l 1,6,-1
 242 143 l 1,7,-1
 290 143 l 1,8,-1
 327 319 l 1,9,-1
 310 341 l 1,10,-1
 175 341 l 1,11,-1
 147 319 l 1,12,-1
 142 296 l 1,13,-1
 88 296 l 1,14,-1
 98 341 l 1,15,-1
 163 395 l 1,16,-1
 344 395 l 1,0,-1
281 60 m 1,17,-1
 286 83 l 1,18,-1
 273 98 l 1,19,-1
 251 98 l 1,20,-1
 232 83 l 1,21,-1
 227 60 l 1,22,-1
 240 45 l 1,23,-1
 262 45 l 1,24,-1
 281 60 l 1,17,-1
EndSplineSet
EndChar
StartChar: uni0E28
Encoding: 3624 3624 251
Width: 433
Flags: W
Fore
476 412 m 1,0,-1
 423 368 l 1,1,-1
 443 342 l 1,2,-1
 371 0 l 1,3,-1
 317 0 l 1,4,-1
 385 320 l 1,5,-1
 367 342 l 1,6,-1
 195 342 l 1,7,-1
 169 320 l 1,8,-1
 143 201 l 1,9,-1
 238 279 l 1,10,-1
 298 279 l 1,11,-1
 331 237 l 1,12,-1
 318 177 l 1,13,-1
 267 135 l 1,14,-1
 207 135 l 1,15,-1
 179 172 l 1,16,-1
 129 131 l 1,17,-1
 101 0 l 1,18,-1
 48 0 l 1,19,-1
 119 342 l 1,20,-1
 185 396 l 1,21,-1
 381 396 l 1,22,-1
 446 450 l 1,23,-1
 476 412 l 1,0,-1
228 218 m 1,24,-1
 223 196 l 1,25,-1
 236 180 l 1,26,-1
 258 180 l 1,27,-1
 277 196 l 1,28,-1
 282 218 l 1,29,-1
 269 234 l 1,30,-1
 247 234 l 1,31,-1
 228 218 l 1,24,-1
EndSplineSet
EndChar
StartChar: uni0E29
Encoding: 3625 3625 252
Width: 440
Flags: W
Fore
417 396 m 1,0,-1
 471 396 l 1,1,-1
 398 54 l 1,2,-1
 332 0 l 1,3,-1
 152 0 l 1,4,-1
 110 54 l 1,5,-1
 152 252 l 1,6,-1
 104 252 l 1,7,-1
 71 294 l 1,8,-1
 83 353 l 1,9,-1
 135 396 l 1,10,-1
 195 396 l 1,11,-1
 227 353 l 1,12,-1
 169 76 l 1,13,-1
 186 54 l 1,14,-1
 322 54 l 1,15,-1
 349 76 l 1,16,-1
 361 135 l 1,17,-1
 241 135 l 1,18,-1
 208 177 l 1,19,-1
 221 236 l 1,20,-1
 272 279 l 1,21,-1
 331 279 l 1,22,-1
 365 237 l 1,23,-1
 353 180 l 1,24,-1
 371 180 l 1,25,-1
 417 396 l 1,0,-1
292 180 m 1,26,-1
 311 196 l 1,27,-1
 316 218 l 1,28,-1
 303 234 l 1,29,-1
 281 234 l 1,30,-1
 262 218 l 1,31,-1
 257 196 l 1,32,-1
 270 180 l 1,33,-1
 292 180 l 1,26,-1
133 297 m 1,34,-1
 155 297 l 1,35,-1
 174 313 l 1,36,-1
 179 335 l 1,37,-1
 166 351 l 1,38,-1
 144 351 l 1,39,-1
 125 335 l 1,40,-1
 120 313 l 1,41,-1
 133 297 l 1,34,-1
EndSplineSet
EndChar
StartChar: uni0E2A
Encoding: 3626 3626 253
Width: 405
Flags: W
Fore
458 414 m 1,0,-1
 403 369 l 1,1,-1
 424 342 l 1,2,-1
 352 0 l 1,3,-1
 298 0 l 1,4,-1
 329 146 l 1,5,-1
 266 224 l 1,6,-1
 169 224 l 1,7,-1
 143 202 l 1,8,-1
 130 143 l 1,9,-1
 178 143 l 1,10,-1
 211 101 l 1,11,-1
 199 42 l 1,12,-1
 148 0 l 1,13,-1
 88 0 l 1,14,-1
 55 42 l 1,15,-1
 93 224 l 1,16,-1
 159 278 l 1,17,-1
 294 278 l 1,18,-1
 344 216 l 1,19,-1
 366 319 l 1,20,-1
 348 341 l 1,21,-1
 176 341 l 1,22,-1
 150 319 l 1,23,-1
 145 297 l 1,24,-1
 91 297 l 1,25,-1
 100 341 l 1,26,-1
 166 395 l 1,27,-1
 365 395 l 1,28,-1
 430 449 l 1,29,-1
 458 414 l 1,0,-1
128 98 m 1,30,-1
 108 83 l 1,31,-1
 104 60 l 1,32,-1
 116 45 l 1,33,-1
 138 45 l 1,34,-1
 158 60 l 1,35,-1
 162 83 l 1,36,-1
 150 98 l 1,37,-1
 128 98 l 1,30,-1
EndSplineSet
EndChar
StartChar: uni0E2B
Encoding: 3627 3627 254
Width: 458
Flags: W
Fore
479 353 m 1,0,-1
 466 293 l 1,1,-1
 417 253 l 1,2,-1
 449 213 l 1,3,-1
 404 0 l 1,4,-1
 350 0 l 1,5,-1
 393 204 l 1,6,-1
 382 216 l 1,7,-1
 152 0 l 1,8,-1
 98 0 l 1,9,-1
 151 251 l 1,10,-1
 103 251 l 1,11,-1
 70 294 l 1,12,-1
 83 353 l 1,13,-1
 133 395 l 1,14,-1
 193 395 l 1,15,-1
 227 353 l 1,16,-1
 168 76 l 1,17,-1
 355 251 l 1,18,-1
 322 294 l 1,19,-1
 335 353 l 1,20,-1
 385 395 l 1,21,-1
 445 395 l 1,22,-1
 479 353 l 1,0,-1
132 297 m 1,23,-1
 154 297 l 1,24,-1
 173 312 l 1,25,-1
 178 335 l 1,26,-1
 165 350 l 1,27,-1
 143 350 l 1,28,-1
 124 335 l 1,29,-1
 119 312 l 1,30,-1
 132 297 l 1,23,-1
376 335 m 1,31,-1
 371 312 l 1,32,-1
 384 297 l 1,33,-1
 406 297 l 1,34,-1
 425 312 l 1,35,-1
 430 335 l 1,36,-1
 417 350 l 1,37,-1
 395 350 l 1,38,-1
 376 335 l 1,31,-1
EndSplineSet
EndChar
StartChar: uni0E2C
Encoding: 3628 3628 255
Width: 457
Flags: W
Fore
470 311 m 1,0,-1
 404 0 l 1,1,-1
 350 0 l 1,2,-1
 284 158 l 1,3,-1
 152 0 l 1,4,-1
 98 0 l 1,5,-1
 151 251 l 1,6,-1
 103 251 l 1,7,-1
 70 294 l 1,8,-1
 83 353 l 1,9,-1
 134 395 l 1,10,-1
 194 395 l 1,11,-1
 227 353 l 1,12,-1
 171 93 l 1,13,-1
 304 251 l 1,14,-1
 369 93 l 1,15,-1
 407 269 l 1,16,-1
 359 269 l 1,17,-1
 326 311 l 1,18,-1
 338 371 l 1,19,-1
 389 413 l 1,20,-1
 448 413 l 1,21,-1
 478 376 l 1,22,-1
 523 413 l 1,23,-1
 551 379 l 1,24,-1
 470 311 l 1,0,-1
388 315 m 1,25,-1
 410 315 l 1,26,-1
 429 330 l 1,27,-1
 434 353 l 1,28,-1
 421 368 l 1,29,-1
 399 368 l 1,30,-1
 380 353 l 1,31,-1
 375 330 l 1,32,-1
 388 315 l 1,25,-1
132 297 m 1,33,-1
 154 297 l 1,34,-1
 173 312 l 1,35,-1
 178 335 l 1,36,-1
 165 350 l 1,37,-1
 143 350 l 1,38,-1
 124 335 l 1,39,-1
 119 312 l 1,40,-1
 132 297 l 1,33,-1
EndSplineSet
Substitution: 0 65534 'L026' uni0E2C.alt1
Substitution: 0 65534 'L026' uni0E2C.alt1
EndChar
StartChar: uni0E2D
Encoding: 3629 3629 256
Width: 406
Flags: W
Fore
381 395 m 1,0,-1
 423 342 l 1,1,-1
 362 54 l 1,2,-1
 297 0 l 1,3,-1
 99 0 l 1,4,-1
 57 54 l 1,5,-1
 94 227 l 1,6,-1
 145 269 l 1,7,-1
 204 269 l 1,8,-1
 237 227 l 1,9,-1
 224 168 l 1,10,-1
 173 125 l 1,11,-1
 125 125 l 1,12,-1
 115 76 l 1,13,-1
 133 54 l 1,14,-1
 286 54 l 1,15,-1
 313 76 l 1,16,-1
 364 319 l 1,17,-1
 347 341 l 1,18,-1
 176 341 l 1,19,-1
 148 319 l 1,20,-1
 143 296 l 1,21,-1
 90 296 l 1,22,-1
 100 341 l 1,23,-1
 164 395 l 1,24,-1
 381 395 l 1,0,-1
135 209 m 1,25,-1
 130 186 l 1,26,-1
 142 171 l 1,27,-1
 165 171 l 1,28,-1
 183 186 l 1,29,-1
 188 209 l 1,30,-1
 176 224 l 1,31,-1
 153 224 l 1,32,-1
 135 209 l 1,25,-1
EndSplineSet
EndChar
StartChar: uni0E2E
Encoding: 3630 3630 257
Width: 401
Flags: W
Fore
453 414 m 1,0,-1
 398 369 l 1,1,-1
 419 342 l 1,2,-1
 358 54 l 1,3,-1
 293 0 l 1,4,-1
 95 0 l 1,5,-1
 52 54 l 1,6,-1
 81 191 l 1,7,-1
 132 233 l 1,8,-1
 192 233 l 1,9,-1
 225 191 l 1,10,-1
 213 132 l 1,11,-1
 162 89 l 1,12,-1
 114 89 l 1,13,-1
 111 76 l 1,14,-1
 128 54 l 1,15,-1
 282 54 l 1,16,-1
 309 76 l 1,17,-1
 361 319 l 1,18,-1
 352 331 l 1,19,-1
 267 260 l 1,20,-1
 123 260 l 1,21,-1
 88 305 l 1,22,-1
 95 341 l 1,23,-1
 161 395 l 1,24,-1
 360 395 l 1,25,-1
 425 449 l 1,26,-1
 453 414 l 1,0,-1
123 173 m 1,27,-1
 118 150 l 1,28,-1
 130 135 l 1,29,-1
 152 135 l 1,30,-1
 172 150 l 1,31,-1
 177 173 l 1,32,-1
 164 188 l 1,33,-1
 142 188 l 1,34,-1
 123 173 l 1,27,-1
251 305 m 1,35,-1
 294 341 l 1,36,-1
 171 341 l 1,37,-1
 149 323 l 1,38,-1
 164 305 l 1,39,-1
 251 305 l 1,35,-1
EndSplineSet
EndChar
StartChar: uni0E2F
Encoding: 3631 3631 258
Width: 354
Flags: W
Fore
332 396 m 1,0,-1
 386 396 l 1,1,-1
 301 0 l 1,2,-1
 247 0 l 1,3,-1
 311 297 l 1,4,-1
 256 252 l 1,5,-1
 127 252 l 1,6,-1
 94 294 l 1,7,-1
 106 353 l 1,8,-1
 158 396 l 1,9,-1
 218 396 l 1,10,-1
 250 353 l 1,11,-1
 240 306 l 1,12,-1
 244 306 l 1,13,-1
 327 373 l 1,14,-1
 332 396 l 1,0,-1
156 297 m 1,15,-1
 178 297 l 1,16,-1
 197 313 l 1,17,-1
 202 335 l 1,18,-1
 189 351 l 1,19,-1
 167 351 l 1,20,-1
 148 335 l 1,21,-1
 143 313 l 1,22,-1
 156 297 l 1,15,-1
EndSplineSet
EndChar
StartChar: uni0E30
Encoding: 3632 3632 259
Width: 332
Flags: W
Fore
274 251 m 1,0,-1
 122 251 l 1,1,-1
 93 288 l 1,2,-1
 104 340 l 1,3,-1
 149 377 l 1,4,-1
 201 377 l 1,5,-1
 230 340 l 1,6,-1
 222 305 l 1,7,-1
 275 305 l 1,8,-1
 320 342 l 1,9,-1
 345 310 l 1,10,-1
 274 251 l 1,0,-1
145 322 m 1,11,-1
 142 307 l 1,12,-1
 150 296 l 1,13,-1
 164 296 l 1,14,-1
 178 307 l 1,15,-1
 181 322 l 1,16,-1
 172 332 l 1,17,-1
 158 332 l 1,18,-1
 145 322 l 1,11,-1
222 54 m 1,19,-1
 267 90 l 1,20,-1
 292 58 l 1,21,-1
 220 0 l 1,22,-1
 68 0 l 1,23,-1
 40 36 l 1,24,-1
 50 89 l 1,25,-1
 95 125 l 1,26,-1
 147 125 l 1,27,-1
 176 89 l 1,28,-1
 169 54 l 1,29,-1
 222 54 l 1,19,-1
124 55 m 1,30,-1
 127 70 l 1,31,-1
 118 80 l 1,32,-1
 104 80 l 1,33,-1
 91 70 l 1,34,-1
 88 55 l 1,35,-1
 97 45 l 1,36,-1
 111 45 l 1,37,-1
 124 55 l 1,30,-1
EndSplineSet
EndChar
StartChar: uni0E31
Encoding: 3633 3633 260
Width: 0
Flags: W
Fore
153 513 m 1,0,-1
 82 455 l 1,1,-1
 -124 455 l 1,2,-1
 -153 492 l 1,3,-1
 -142 544 l 1,4,-1
 -97 581 l 1,5,-1
 -45 581 l 1,6,-1
 -16 544 l 1,7,-1
 -23 509 l 1,8,-1
 84 509 l 1,9,-1
 128 545 l 1,10,-1
 153 513 l 1,0,-1
-68 510 m 1,11,-1
 -65 525 l 1,12,-1
 -73 536 l 1,13,-1
 -88 536 l 1,14,-1
 -101 525 l 1,15,-1
 -104 510 l 1,16,-1
 -96 500 l 1,17,-1
 -81 500 l 1,18,-1
 -68 510 l 1,11,-1
EndSplineSet
Substitution: 0 65534 'L026' uni0E31.alt1
Substitution: 0 65534 'L026' uni0E31.alt1
EndChar
StartChar: uni0E32
Encoding: 3634 3634 261
Width: 368
Flags: W
Fore
345 396 m 1,0,-1
 387 342 l 1,1,-1
 314 0 l 1,2,-1
 260 0 l 1,3,-1
 328 320 l 1,4,-1
 311 342 l 1,5,-1
 175 342 l 1,6,-1
 148 319 l 1,7,-1
 144 297 l 1,8,-1
 90 297 l 1,9,-1
 99 342 l 1,10,-1
 165 396 l 1,11,-1
 345 396 l 1,0,-1
EndSplineSet
EndChar
StartChar: uni0E33
Encoding: 3635 3635 262
Width: 368
Flags: W
Fore
33 581 m 1,0,-1
 62 544 l 1,1,-1
 51 492 l 1,2,-1
 6 455 l 1,3,-1
 -46 455 l 1,4,-1
 -75 492 l 1,5,-1
 -64 544 l 1,6,-1
 -19 581 l 1,7,-1
 33 581 l 1,0,-1
-3 500 m 1,8,-1
 10 510 l 1,9,-1
 13 525 l 1,10,-1
 5 536 l 1,11,-1
 -10 536 l 1,12,-1
 -23 525 l 1,13,-1
 -26 510 l 1,14,-1
 -18 500 l 1,15,-1
 -3 500 l 1,8,-1
345 396 m 1,16,-1
 387 342 l 1,17,-1
 314 0 l 1,18,-1
 260 0 l 1,19,-1
 328 320 l 1,20,-1
 311 342 l 1,21,-1
 175 342 l 1,22,-1
 148 319 l 1,23,-1
 144 297 l 1,24,-1
 90 297 l 1,25,-1
 99 342 l 1,26,-1
 165 396 l 1,27,-1
 345 396 l 1,16,-1
EndSplineSet
Substitution: 0 65534 'L026' uni0E33.alt1
Substitution: 0 65534 'L026' uni0E33.alt1
EndChar
StartChar: uni0E34
Encoding: 3636 3636 263
Width: 0
Flags: W
Fore
13 573 m 1,0,-1
 56 519 l 1,1,-1
 43 456 l 1,2,-1
 -263 456 l 1,3,-1
 -250 519 l 1,4,-1
 -184 573 l 1,5,-1
 13 573 l 1,0,-1
-208 501 m 1,6,-1
 7 501 l 1,7,-1
 -15 528 l 1,8,-1
 -175 528 l 1,9,-1
 -208 501 l 1,6,-1
EndSplineSet
Substitution: 0 65534 'L026' uni0E34.alt1
Substitution: 0 65534 'L026' uni0E34.alt1
EndChar
StartChar: uni0E35
Encoding: 3637 3637 264
Width: 0
Flags: W
Fore
77 618 m 1,0,-1
 43 456 l 1,1,-1
 -263 456 l 1,2,-1
 -250 519 l 1,3,-1
 -184 573 l 1,4,-1
 13 573 l 1,5,-1
 20 564 l 1,6,-1
 32 618 l 1,7,-1
 77 618 l 1,0,-1
-208 501 m 1,8,-1
 6 501 l 1,9,-1
 -15 528 l 1,10,-1
 -175 528 l 1,11,-1
 -208 501 l 1,8,-1
EndSplineSet
Substitution: 0 65534 'L026' uni0E35.alt1
Substitution: 0 65534 'L026' uni0E35.alt1
EndChar
StartChar: uni0E36
Encoding: 3638 3638 265
Width: 0
Flags: W
Fore
72 618 m 1,0,-1
 101 581 l 1,1,-1
 89 529 l 1,2,-1
 51 497 l 1,3,-1
 42 456 l 1,4,-1
 -264 456 l 1,5,-1
 -250 519 l 1,6,-1
 -185 573 l 1,7,-1
 -27 573 l 1,8,-1
 -25 581 l 1,9,-1
 19 618 l 1,10,-1
 72 618 l 1,0,-1
28 573 m 1,11,-1
 19 565 l 1,12,-1
 16 562 l 1,13,-1
 12 547 l 1,14,-1
 21 537 l 1,15,-1
 36 537 l 1,16,-1
 39 540 l 1,17,-1
 48 547 l 1,18,-1
 52 562 l 1,19,-1
 43 573 l 1,20,-1
 28 573 l 1,11,-1
-208 501 m 1,21,-1
 6 501 l 1,22,-1
 -15 528 l 1,23,-1
 -175 528 l 1,24,-1
 -208 501 l 1,21,-1
EndSplineSet
Substitution: 0 65534 'L026' uni0E36.alt1
Substitution: 0 65534 'L026' uni0E36.alt1
EndChar
StartChar: uni0E37
Encoding: 3639 3639 266
Width: 0
Flags: W
Fore
77 618 m 1,0,-1
 42 456 l 1,1,-1
 -263 456 l 1,2,-1
 -250 519 l 1,3,-1
 -184 573 l 1,4,-1
 -50 573 l 1,5,-1
 -40 618 l 1,6,-1
 5 618 l 1,7,-1
 -5 573 l 1,8,-1
 13 573 l 1,9,-1
 20 564 l 1,10,-1
 32 618 l 1,11,-1
 77 618 l 1,0,-1
-208 501 m 1,12,-1
 6 501 l 1,13,-1
 -15 528 l 1,14,-1
 -175 528 l 1,15,-1
 -208 501 l 1,12,-1
EndSplineSet
Substitution: 0 65534 'L026' uni0E37.alt1
Substitution: 0 65534 'L026' uni0E37.alt1
EndChar
StartChar: uni0E38
Encoding: 3640 3640 267
Width: 0
Flags: W
Fore
-97 -30 m 1,0,-1
 -68 -67 l 1,1,-1
 -102 -227 l 1,2,-1
 -156 -227 l 1,3,-1
 -141 -156 l 1,4,-1
 -176 -156 l 1,5,-1
 -205 -119 l 1,6,-1
 -194 -67 l 1,7,-1
 -149 -30 l 1,8,-1
 -97 -30 l 1,0,-1
-147 -111 m 1,9,-1
 -133 -111 l 1,10,-1
 -120 -100 l 1,11,-1
 -117 -85 l 1,12,-1
 -125 -75 l 1,13,-1
 -140 -75 l 1,14,-1
 -153 -85 l 1,15,-1
 -156 -100 l 1,16,-1
 -147 -111 l 1,9,-1
EndSplineSet
Substitution: 0 65534 'L027' a
Substitution: 0 65534 'L026' uni0E38.alt1
Substitution: 0 65534 'L027' a
Substitution: 0 65534 'L026' uni0E38.alt1
EndChar
StartChar: uni0E39
Encoding: 3641 3641 268
Width: 0
Flags: W
Fore
-114 -30 m 1,0,-1
 -60 -30 l 1,1,-1
 -102 -228 l 1,2,-1
 -246 -228 l 1,3,-1
 -231 -156 l 1,4,-1
 -266 -156 l 1,5,-1
 -295 -119 l 1,6,-1
 -284 -67 l 1,7,-1
 -239 -30 l 1,8,-1
 -187 -30 l 1,9,-1
 -158 -67 l 1,10,-1
 -181 -174 l 1,11,-1
 -145 -174 l 1,12,-1
 -114 -30 l 1,0,-1
-238 -111 m 1,13,-1
 -223 -111 l 1,14,-1
 -210 -100 l 1,15,-1
 -207 -85 l 1,16,-1
 -215 -75 l 1,17,-1
 -230 -75 l 1,18,-1
 -243 -85 l 1,19,-1
 -246 -100 l 1,20,-1
 -238 -111 l 1,13,-1
EndSplineSet
Substitution: 0 65534 'L027' b
Substitution: 0 65534 'L026' uni0E39.alt1
Substitution: 0 65534 'L027' b
Substitution: 0 65534 'L026' uni0E39.alt1
EndChar
StartChar: uni0E3A
Encoding: 3642 3642 269
Width: 0
Flags: W
Fore
-66 -55 m 1,0,-1
 -74 -93 l 1,1,-1
 -106 -119 l 1,2,-1
 -144 -119 l 1,3,-1
 -164 -93 l 1,4,-1
 -156 -55 l 1,5,-1
 -124 -29 l 1,6,-1
 -87 -29 l 1,7,-1
 -66 -55 l 1,8,-1
 -66 -55 l 1,0,-1
EndSplineSet
Substitution: 0 65534 'L027' c
Substitution: 0 65534 'L026' uni0E3A.alt1
Substitution: 0 65534 'L027' c
Substitution: 0 65534 'L026' uni0E3A.alt1
EndChar
StartChar: uni0E3F
Encoding: 3647 3647 270
Width: 354
Flags: W
Fore
325 225 m 1,0,-1
 354 189 l 1,1,-1
 325 54 l 1,2,-1
 260 0 l 1,3,-1
 179 0 l 1,4,-1
 171 -36 l 1,5,-1
 117 -36 l 1,6,-1
 125 0 l 1,7,-1
 27 0 l 1,8,-1
 117 432 l 1,9,-1
 216 432 l 1,10,-1
 224 468 l 1,11,-1
 278 468 l 1,12,-1
 270 432 l 1,13,-1
 333 432 l 1,14,-1
 376 378 l 1,15,-1
 347 243 l 1,16,-1
 325 225 l 1,0,-1
299 378 m 1,17,-1
 259 378 l 1,18,-1
 230 243 l 1,19,-1
 271 243 l 1,20,-1
 298 265 l 1,21,-1
 317 356 l 1,22,-1
 299 378 l 1,17,-1
205 378 m 1,23,-1
 160 378 l 1,24,-1
 131 243 l 1,25,-1
 176 243 l 1,26,-1
 205 378 l 1,23,-1
91 54 m 1,27,-1
 136 54 l 1,28,-1
 165 189 l 1,29,-1
 120 189 l 1,30,-1
 91 54 l 1,27,-1
276 76 m 1,31,-1
 295 167 l 1,32,-1
 277 189 l 1,33,-1
 219 189 l 1,34,-1
 190 54 l 1,35,-1
 248 54 l 1,36,-1
 276 76 l 1,31,-1
EndSplineSet
EndChar
StartChar: uni0E40
Encoding: 3648 3648 271
Width: 205
Flags: W
Fore
167 143 m 1,0,-1
 200 101 l 1,1,-1
 187 42 l 1,2,-1
 137 0 l 1,3,-1
 78 0 l 1,4,-1
 43 42 l 1,5,-1
 118 395 l 1,6,-1
 172 395 l 1,7,-1
 119 143 l 1,8,-1
 167 143 l 1,0,-1
146 60 m 1,9,-1
 151 83 l 1,10,-1
 139 98 l 1,11,-1
 116 98 l 1,12,-1
 98 83 l 1,13,-1
 93 60 l 1,14,-1
 105 45 l 1,15,-1
 128 45 l 1,16,-1
 146 60 l 1,9,-1
EndSplineSet
EndChar
StartChar: uni0E41
Encoding: 3649 3649 272
Width: 374
Flags: W
Fore
120 144 m 1,0,-1
 168 144 l 1,1,-1
 201 102 l 1,2,-1
 188 42 l 1,3,-1
 137 0 l 1,4,-1
 77 0 l 1,5,-1
 44 42 l 1,6,-1
 120 396 l 1,7,-1
 174 396 l 1,8,-1
 120 144 l 1,0,-1
147 61 m 1,9,-1
 152 83 l 1,10,-1
 139 99 l 1,11,-1
 117 99 l 1,12,-1
 98 83 l 1,13,-1
 93 61 l 1,14,-1
 106 45 l 1,15,-1
 128 45 l 1,16,-1
 147 61 l 1,9,-1
339 144 m 1,17,-1
 372 102 l 1,18,-1
 359 42 l 1,19,-1
 308 0 l 1,20,-1
 248 0 l 1,21,-1
 215 42 l 1,22,-1
 291 396 l 1,23,-1
 345 396 l 1,24,-1
 291 144 l 1,25,-1
 339 144 l 1,17,-1
318 61 m 1,26,-1
 323 83 l 1,27,-1
 310 99 l 1,28,-1
 288 99 l 1,29,-1
 269 83 l 1,30,-1
 264 61 l 1,31,-1
 277 45 l 1,32,-1
 299 45 l 1,33,-1
 318 61 l 1,26,-1
EndSplineSet
EndChar
StartChar: uni0E42
Encoding: 3650 3650 273
Width: 300
Flags: W
Fore
261 144 m 1,0,-1
 294 102 l 1,1,-1
 281 42 l 1,2,-1
 230 0 l 1,3,-1
 170 0 l 1,4,-1
 137 42 l 1,5,-1
 227 462 l 1,6,-1
 77 522 l 1,7,-1
 85 558 l 1,8,-1
 151 612 l 1,9,-1
 331 612 l 1,10,-1
 319 558 l 1,11,-1
 161 558 l 1,12,-1
 151 550 l 1,13,-1
 288 495 l 1,14,-1
 213 144 l 1,15,-1
 261 144 l 1,0,-1
240 61 m 1,16,-1
 245 83 l 1,17,-1
 233 99 l 1,18,-1
 211 99 l 1,19,-1
 191 83 l 1,20,-1
 186 61 l 1,21,-1
 199 45 l 1,22,-1
 221 45 l 1,23,-1
 240 61 l 1,16,-1
EndSplineSet
EndChar
StartChar: uni0E43
Encoding: 3651 3651 274
Width: 307
Flags: W
Fore
270 144 m 1,0,-1
 303 102 l 1,1,-1
 290 42 l 1,2,-1
 239 0 l 1,3,-1
 179 0 l 1,4,-1
 146 42 l 1,5,-1
 251 536 l 1,6,-1
 234 558 l 1,7,-1
 196 558 l 1,8,-1
 222 525 l 1,9,-1
 209 465 l 1,10,-1
 158 423 l 1,11,-1
 98 423 l 1,12,-1
 66 465 l 1,13,-1
 85 558 l 1,14,-1
 151 612 l 1,15,-1
 268 612 l 1,16,-1
 310 558 l 1,17,-1
 222 144 l 1,18,-1
 270 144 l 1,0,-1
168 484 m 1,19,-1
 173 506 l 1,20,-1
 160 522 l 1,21,-1
 138 522 l 1,22,-1
 119 506 l 1,23,-1
 114 484 l 1,24,-1
 127 468 l 1,25,-1
 149 468 l 1,26,-1
 168 484 l 1,19,-1
249 61 m 1,27,-1
 254 83 l 1,28,-1
 242 99 l 1,29,-1
 220 99 l 1,30,-1
 200 83 l 1,31,-1
 195 61 l 1,32,-1
 208 45 l 1,33,-1
 230 45 l 1,34,-1
 249 61 l 1,27,-1
EndSplineSet
EndChar
StartChar: uni0E44
Encoding: 3652 3652 275
Width: 299
Flags: W
Fore
262 144 m 1,0,-1
 295 102 l 1,1,-1
 282 42 l 1,2,-1
 231 0 l 1,3,-1
 171 0 l 1,4,-1
 138 42 l 1,5,-1
 246 548 l 1,6,-1
 188 500 l 1,7,-1
 142 558 l 1,8,-1
 86 558 l 1,9,-1
 98 612 l 1,10,-1
 164 612 l 1,11,-1
 201 563 l 1,12,-1
 259 611 l 1,13,-1
 260 612 l 1,14,-1
 314 612 l 1,15,-1
 214 144 l 1,16,-1
 262 144 l 1,0,-1
241 61 m 1,17,-1
 246 83 l 1,18,-1
 234 99 l 1,19,-1
 212 99 l 1,20,-1
 192 83 l 1,21,-1
 187 61 l 1,22,-1
 200 45 l 1,23,-1
 222 45 l 1,24,-1
 241 61 l 1,17,-1
EndSplineSet
EndChar
StartChar: uni0E45
Encoding: 3653 3653 276
Width: 368
Flags: W
Fore
345 396 m 1,0,-1
 386 342 l 1,1,-1
 275 -181 l 1,2,-1
 221 -181 l 1,3,-1
 328 320 l 1,4,-1
 310 342 l 1,5,-1
 175 342 l 1,6,-1
 148 320 l 1,7,-1
 143 297 l 1,8,-1
 90 297 l 1,9,-1
 99 342 l 1,10,-1
 164 396 l 1,11,-1
 345 396 l 1,0,-1
EndSplineSet
EndChar
StartChar: uni0E46
Encoding: 3654 3654 277
Width: 355
Flags: W
Fore
333 396 m 1,0,-1
 375 343 l 1,1,-1
 264 -179 l 1,2,-1
 210 -179 l 1,3,-1
 316 320 l 1,4,-1
 299 342 l 1,5,-1
 280 342 l 1,6,-1
 247 315 l 1,7,-1
 226 342 l 1,8,-1
 181 342 l 1,9,-1
 170 333 l 1,10,-1
 204 333 l 1,11,-1
 238 291 l 1,12,-1
 226 232 l 1,13,-1
 174 189 l 1,14,-1
 115 189 l 1,15,-1
 82 232 l 1,16,-1
 105 342 l 1,17,-1
 171 396 l 1,18,-1
 248 396 l 1,19,-1
 261 379 l 1,20,-1
 283 396 l 1,21,-1
 333 396 l 1,0,-1
189 273 m 1,22,-1
 177 288 l 1,23,-1
 155 288 l 1,24,-1
 135 273 l 1,25,-1
 131 250 l 1,26,-1
 143 235 l 1,27,-1
 165 235 l 1,28,-1
 185 250 l 1,29,-1
 189 273 l 1,22,-1
EndSplineSet
EndChar
StartChar: uni0E47
Encoding: 3655 3655 278
Width: 0
Flags: W
Fore
75 604 m 1,0,-1
 39 573 l 1,1,-1
 62 544 l 1,2,-1
 51 492 l 1,3,-1
 6 455 l 1,4,-1
 -101 455 l 1,5,-1
 -115 473 l 1,6,-1
 -137 455 l 1,7,-1
 -191 455 l 1,8,-1
 -170 554 l 1,9,-1
 -104 608 l 1,10,-1
 17 608 l 1,11,-1
 50 635 l 1,12,-1
 75 604 l 1,0,-1
-102 536 m 1,13,-1
 -73 500 l 1,14,-1
 -64 544 l 1,15,-1
 -41 563 l 1,16,-1
 -95 563 l 1,17,-1
 -129 535 l 1,18,-1
 -134 509 l 1,19,-1
 -102 536 l 1,13,-1
10 510 m 1,20,-1
 13 525 l 1,21,-1
 5 536 l 1,22,-1
 -10 536 l 1,23,-1
 -23 525 l 1,24,-1
 -26 510 l 1,25,-1
 -18 500 l 1,26,-1
 -3 500 l 1,27,-1
 10 510 l 1,20,-1
EndSplineSet
Substitution: 0 65534 'L026' uni0E47.alt1
Substitution: 0 65534 'L026' uni0E47.alt1
EndChar
StartChar: uni0E48
Encoding: 3656 3656 279
Width: 0
Flags: W
Fore
37 640 m 1,0,-1
 72 801 l 1,1,-1
 117 801 l 1,2,-1
 82 640 l 1,3,-1
 37 640 l 1,4,-1
 37 640 l 1,0,-1
EndSplineSet
Substitution: 0 65534 'L026' uni0E48.alt2
Substitution: 0 65534 'L026' uni0E48.alt2
EndChar
StartChar: uni0E49
Encoding: 3657 3657 280
Width: 0
Flags: W
Fore
171 767 m 1,0,-1
 196 735 l 1,1,-1
 81 640 l 1,2,-1
 -72 640 l 1,3,-1
 -62 685 l 1,4,-1
 -34 685 l 1,5,-1
 -56 713 l 1,6,-1
 -45 765 l 1,7,-1
 0 802 l 1,8,-1
 52 802 l 1,9,-1
 81 765 l 1,10,-1
 70 713 l 1,11,-1
 36 685 l 1,12,-1
 72 685 l 1,13,-1
 171 767 l 1,0,-1
-4 747 m 1,14,-1
 -7 732 l 1,15,-1
 1 721 l 1,16,-1
 16 721 l 1,17,-1
 29 732 l 1,18,-1
 32 747 l 1,19,-1
 24 757 l 1,20,-1
 9 757 l 1,21,-1
 -4 747 l 1,14,-1
EndSplineSet
Substitution: 0 65534 'L026' uni0E49.alt2
Substitution: 0 65534 'L026' uni0E49.alt2
EndChar
StartChar: uni0E4A
Encoding: 3658 3658 281
Width: 0
Flags: W
Fore
203 771 m 1,0,-1
 226 741 l 1,1,-1
 101 638 l 1,2,-1
 78 667 l 1,3,-1
 112 695 l 1,4,-1
 99 712 l 1,5,-1
 20 647 l 1,6,-1
 -32 647 l 1,7,-1
 -61 684 l 1,8,-1
 -50 736 l 1,9,-1
 -5 773 l 1,10,-1
 47 773 l 1,11,-1
 71 742 l 1,12,-1
 109 773 l 1,13,-1
 147 724 l 1,14,-1
 203 771 l 1,0,-1
-12 703 m 1,15,-1
 -4 692 l 1,16,-1
 11 692 l 1,17,-1
 24 703 l 1,18,-1
 27 718 l 1,19,-1
 19 728 l 1,20,-1
 4 728 l 1,21,-1
 -9 718 l 1,22,-1
 -12 703 l 1,15,-1
EndSplineSet
Substitution: 0 65534 'L026' uni0E4A.alt2
Substitution: 0 65534 'L026' uni0E4A.alt2
EndChar
StartChar: uni0E4B
Encoding: 3659 3659 282
Width: 0
Flags: W
Fore
152 733 m 1,0,-1
 142 688 l 1,1,-1
 93 688 l 1,2,-1
 82 638 l 1,3,-1
 37 638 l 1,4,-1
 48 688 l 1,5,-1
 -2 688 l 1,6,-1
 8 733 l 1,7,-1
 57 733 l 1,8,-1
 68 782 l 1,9,-1
 113 782 l 1,10,-1
 102 733 l 1,11,-1
 152 733 l 1,12,-1
 152 733 l 1,0,-1
EndSplineSet
Substitution: 0 65534 'L026' uni0E4B.alt2
Substitution: 0 65534 'L026' uni0E4B.alt2
EndChar
StartChar: uni0E4C
Encoding: 3660 3660 283
Width: 0
Flags: W
Fore
121 760 m 1,0,-1
 65 714 l 1,1,-1
 90 682 l 1,2,-1
 79 630 l 1,3,-1
 34 593 l 1,4,-1
 -18 593 l 1,5,-1
 -47 630 l 1,6,-1
 -36 682 l 1,7,-1
 96 792 l 1,8,-1
 121 760 l 1,0,-1
32 674 m 1,9,-1
 18 674 l 1,10,-1
 5 664 l 1,11,-1
 2 649 l 1,12,-1
 10 638 l 1,13,-1
 25 638 l 1,14,-1
 38 649 l 1,15,-1
 41 664 l 1,16,-1
 32 674 l 1,9,-1
EndSplineSet
Substitution: 0 65534 'L026' uni0E4C.alt2
Substitution: 0 65534 'L026' uni0E4C.alt2
EndChar
StartChar: uni0E4D
Encoding: 3661 3661 284
Width: 0
Flags: W
Fore
30 581 m 1,0,-1
 59 544 l 1,1,-1
 48 492 l 1,2,-1
 3 455 l 1,3,-1
 -49 455 l 1,4,-1
 -78 492 l 1,5,-1
 -67 544 l 1,6,-1
 -22 581 l 1,7,-1
 30 581 l 1,0,-1
-6 500 m 1,8,-1
 7 510 l 1,9,-1
 10 525 l 1,10,-1
 2 536 l 1,11,-1
 -13 536 l 1,12,-1
 -26 525 l 1,13,-1
 -29 510 l 1,14,-1
 -21 500 l 1,15,-1
 -6 500 l 1,8,-1
EndSplineSet
Substitution: 0 65534 'L026' uni0E4D.alt1
Substitution: 0 65534 'L026' uni0E4D.alt1
EndChar
StartChar: uni0E4E
Encoding: 3662 3662 285
Width: 0
Flags: W
Fore
143 626 m 1,0,-1
 132 572 l 1,1,-1
 73 572 l 1,2,-1
 68 568 l 1,3,-1
 55 509 l 1,4,-1
 -3 509 l 1,5,-1
 -9 505 l 1,6,-1
 -19 455 l 1,7,-1
 -73 455 l 1,8,-1
 -58 527 l 1,9,-1
 -14 563 l 1,10,-1
 13 563 l 1,11,-1
 19 590 l 1,12,-1
 62 626 l 1,13,-1
 143 626 l 1,0,-1
EndSplineSet
Substitution: 0 65534 'L026' uni0E4E.alt1
Substitution: 0 65534 'L026' uni0E4E.alt1
EndChar
StartChar: uni0E4F
Encoding: 3663 3663 286
Width: 388
Flags: W
Fore
199 216 m 1,0,-1
 259 216 l 1,1,-1
 292 174 l 1,2,-1
 279 114 l 1,3,-1
 228 72 l 1,4,-1
 168 72 l 1,5,-1
 135 114 l 1,6,-1
 148 174 l 1,7,-1
 199 216 l 1,0,-1
238 133 m 1,8,-1
 243 155 l 1,9,-1
 230 171 l 1,10,-1
 208 171 l 1,11,-1
 189 155 l 1,12,-1
 184 133 l 1,13,-1
 197 117 l 1,14,-1
 219 117 l 1,15,-1
 238 133 l 1,8,-1
303 288 m 1,16,-1
 370 203 l 1,17,-1
 345 84 l 1,18,-1
 242 0 l 1,19,-1
 123 0 l 1,20,-1
 57 84 l 1,21,-1
 82 203 l 1,22,-1
 184 288 l 1,23,-1
 303 288 l 1,16,-1
304 103 m 1,24,-1
 321 185 l 1,25,-1
 276 243 l 1,26,-1
 194 243 l 1,27,-1
 123 185 l 1,28,-1
 106 103 l 1,29,-1
 151 45 l 1,30,-1
 233 45 l 1,31,-1
 304 103 l 1,24,-1
EndSplineSet
EndChar
StartChar: uni0E50
Encoding: 3664 3664 287
Width: 421
Flags: W
Fore
365 288 m 1,0,-1
 408 234 l 1,1,-1
 369 53 l 1,2,-1
 305 0 l 1,3,-1
 88 0 l 1,4,-1
 45 54 l 1,5,-1
 84 234 l 1,6,-1
 149 288 l 1,7,-1
 365 288 l 1,0,-1
320 76 m 1,8,-1
 349 211 l 1,9,-1
 332 234 l 1,10,-1
 161 234 l 1,11,-1
 133 211 l 1,12,-1
 104 76 l 1,13,-1
 122 54 l 1,14,-1
 293 54 l 1,15,-1
 320 76 l 1,8,-1
EndSplineSet
EndChar
StartChar: uni0E51
Encoding: 3665 3665 288
Width: 405
Flags: W
Fore
358 288 m 1,0,-1
 400 234 l 1,1,-1
 356 27 l 1,2,-1
 280 -36 l 1,3,-1
 250 2 l 1,4,-1
 307 49 l 1,5,-1
 342 211 l 1,6,-1
 324 234 l 1,7,-1
 152 234 l 1,8,-1
 126 212 l 1,9,-1
 97 76 l 1,10,-1
 111 58 l 1,11,-1
 120 102 l 1,12,-1
 171 144 l 1,13,-1
 231 144 l 1,14,-1
 264 102 l 1,15,-1
 252 42 l 1,16,-1
 201 0 l 1,17,-1
 81 0 l 1,18,-1
 38 54 l 1,19,-1
 76 234 l 1,20,-1
 142 288 l 1,21,-1
 358 288 l 1,0,-1
161 83 m 1,22,-1
 157 61 l 1,23,-1
 169 45 l 1,24,-1
 191 45 l 1,25,-1
 211 61 l 1,26,-1
 215 83 l 1,27,-1
 203 99 l 1,28,-1
 181 99 l 1,29,-1
 161 83 l 1,22,-1
EndSplineSet
EndChar
StartChar: uni0E52
Encoding: 3666 3666 289
Width: 476
Flags: W
Fore
472 234 m 1,0,-1
 433 53 l 1,1,-1
 368 0 l 1,2,-1
 80 0 l 1,3,-1
 38 54 l 1,4,-1
 99 342 l 1,5,-1
 153 342 l 1,6,-1
 94 67 l 1,7,-1
 112 45 l 1,8,-1
 356 45 l 1,9,-1
 382 67 l 1,10,-1
 413 211 l 1,11,-1
 396 234 l 1,12,-1
 391 234 l 1,13,-1
 336 189 l 1,14,-1
 301 234 l 1,15,-1
 242 234 l 1,16,-1
 220 216 l 1,17,-1
 264 216 l 1,18,-1
 297 174 l 1,19,-1
 284 114 l 1,20,-1
 233 72 l 1,21,-1
 173 72 l 1,22,-1
 140 114 l 1,23,-1
 166 234 l 1,24,-1
 231 288 l 1,25,-1
 334 288 l 1,26,-1
 352 265 l 1,27,-1
 380 288 l 1,28,-1
 429 288 l 1,29,-1
 472 234 l 1,0,-1
236 171 m 1,30,-1
 214 171 l 1,31,-1
 194 155 l 1,32,-1
 189 133 l 1,33,-1
 202 117 l 1,34,-1
 224 117 l 1,35,-1
 243 133 l 1,36,-1
 248 155 l 1,37,-1
 236 171 l 1,30,-1
EndSplineSet
EndChar
StartChar: uni0E53
Encoding: 3667 3667 290
Width: 459
Flags: W
Fore
412 288 m 1,0,-1
 455 234 l 1,1,-1
 405 0 l 1,2,-1
 351 0 l 1,3,-1
 396 211 l 1,4,-1
 379 234 l 1,5,-1
 333 234 l 1,6,-1
 306 212 l 1,7,-1
 261 0 l 1,8,-1
 207 0 l 1,9,-1
 252 211 l 1,10,-1
 235 234 l 1,11,-1
 154 234 l 1,12,-1
 126 212 l 1,13,-1
 112 144 l 1,14,-1
 160 144 l 1,15,-1
 193 102 l 1,16,-1
 180 42 l 1,17,-1
 129 0 l 1,18,-1
 70 0 l 1,19,-1
 37 42 l 1,20,-1
 78 234 l 1,21,-1
 142 288 l 1,22,-1
 268 288 l 1,23,-1
 289 261 l 1,24,-1
 322 288 l 1,25,-1
 412 288 l 1,0,-1
132 99 m 1,26,-1
 109 99 l 1,27,-1
 91 83 l 1,28,-1
 86 61 l 1,29,-1
 97 45 l 1,30,-1
 120 45 l 1,31,-1
 139 61 l 1,32,-1
 144 83 l 1,33,-1
 132 99 l 1,26,-1
EndSplineSet
EndChar
StartChar: uni0E54
Encoding: 3668 3668 291
Width: 423
Flags: W
Fore
257 68 m 1,0,-1
 268 54 l 1,1,-1
 381 54 l 1,2,-1
 369 0 l 1,3,-1
 81 0 l 1,4,-1
 38 53 l 1,5,-1
 77 234 l 1,6,-1
 142 287 l 1,7,-1
 373 287 l 1,8,-1
 439 342 l 1,9,-1
 470 303 l 1,10,-1
 385 233 l 1,11,-1
 153 233 l 1,12,-1
 126 211 l 1,13,-1
 97 76 l 1,14,-1
 115 54 l 1,15,-1
 198 54 l 1,16,-1
 157 105 l 1,17,-1
 170 165 l 1,18,-1
 221 207 l 1,19,-1
 281 207 l 1,20,-1
 314 165 l 1,21,-1
 301 105 l 1,22,-1
 257 68 l 1,0,-1
211 146 m 1,23,-1
 207 124 l 1,24,-1
 218 108 l 1,25,-1
 241 108 l 1,26,-1
 260 124 l 1,27,-1
 264 146 l 1,28,-1
 253 162 l 1,29,-1
 230 162 l 1,30,-1
 211 146 l 1,23,-1
EndSplineSet
EndChar
StartChar: uni0E55
Encoding: 3669 3669 292
Width: 422
Flags: W
Fore
256 68 m 1,0,-1
 267 54 l 1,1,-1
 380 54 l 1,2,-1
 368 0 l 1,3,-1
 80 0 l 1,4,-1
 39 53 l 1,5,-1
 76 234 l 1,6,-1
 141 287 l 1,7,-1
 195 287 l 1,8,-1
 207 344 l 1,9,-1
 259 387 l 1,10,-1
 319 387 l 1,11,-1
 351 344 l 1,12,-1
 339 287 l 1,13,-1
 373 287 l 1,14,-1
 439 342 l 1,15,-1
 469 303 l 1,16,-1
 384 233 l 1,17,-1
 152 233 l 1,18,-1
 125 211 l 1,19,-1
 97 76 l 1,20,-1
 114 54 l 1,21,-1
 197 54 l 1,22,-1
 157 105 l 1,23,-1
 169 165 l 1,24,-1
 220 207 l 1,25,-1
 280 207 l 1,26,-1
 313 165 l 1,27,-1
 301 105 l 1,28,-1
 256 68 l 1,0,-1
210 146 m 1,29,-1
 206 124 l 1,30,-1
 218 108 l 1,31,-1
 240 108 l 1,32,-1
 260 124 l 1,33,-1
 264 146 l 1,34,-1
 252 162 l 1,35,-1
 230 162 l 1,36,-1
 210 146 l 1,29,-1
249 326 m 1,37,-1
 244 304 l 1,38,-1
 257 288 l 1,39,-1
 279 288 l 1,40,-1
 298 304 l 1,41,-1
 303 326 l 1,42,-1
 290 342 l 1,43,-1
 268 342 l 1,44,-1
 249 326 l 1,37,-1
EndSplineSet
EndChar
StartChar: uni0E56
Encoding: 3670 3670 293
Width: 464
Flags: W
Fore
418 287 m 1,0,-1
 460 234 l 1,1,-1
 422 54 l 1,2,-1
 356 0 l 1,3,-1
 147 0 l 1,4,-1
 113 42 l 1,5,-1
 126 101 l 1,6,-1
 178 144 l 1,7,-1
 237 144 l 1,8,-1
 270 101 l 1,9,-1
 260 54 l 1,10,-1
 346 54 l 1,11,-1
 372 76 l 1,12,-1
 401 211 l 1,13,-1
 384 233 l 1,14,-1
 154 233 l 1,15,-1
 100 303 l 1,16,-1
 146 342 l 1,17,-1
 188 287 l 1,18,-1
 418 287 l 1,0,-1
198 45 m 1,19,-1
 216 61 l 1,20,-1
 221 83 l 1,21,-1
 209 99 l 1,22,-1
 186 99 l 1,23,-1
 168 83 l 1,24,-1
 163 61 l 1,25,-1
 175 45 l 1,26,-1
 198 45 l 1,19,-1
EndSplineSet
EndChar
StartChar: uni0E57
Encoding: 3671 3671 294
Width: 512
Flags: W
Fore
477 341 m 1,0,-1
 531 341 l 1,1,-1
 477 90 l 1,2,-1
 367 0 l 1,3,-1
 314 0 l 1,4,-1
 359 211 l 1,5,-1
 341 234 l 1,6,-1
 292 234 l 1,7,-1
 237 189 l 1,8,-1
 202 234 l 1,9,-1
 152 234 l 1,10,-1
 125 212 l 1,11,-1
 111 144 l 1,12,-1
 159 144 l 1,13,-1
 192 102 l 1,14,-1
 179 42 l 1,15,-1
 128 0 l 1,16,-1
 68 0 l 1,17,-1
 36 42 l 1,18,-1
 76 234 l 1,19,-1
 141 288 l 1,20,-1
 235 288 l 1,21,-1
 254 265 l 1,22,-1
 280 288 l 1,23,-1
 375 288 l 1,24,-1
 418 234 l 1,25,-1
 384 76 l 1,26,-1
 428 112 l 1,27,-1
 477 341 l 1,0,-1
130 99 m 1,28,-1
 108 99 l 1,29,-1
 89 83 l 1,30,-1
 84 61 l 1,31,-1
 97 45 l 1,32,-1
 119 45 l 1,33,-1
 138 61 l 1,34,-1
 143 83 l 1,35,-1
 130 99 l 1,28,-1
EndSplineSet
EndChar
StartChar: uni0E58
Encoding: 3672 3672 295
Width: 456
Flags: W
Fore
160 233 m 1,0,-1
 133 211 l 1,1,-1
 104 76 l 1,2,-1
 175 134 l 1,3,-1
 239 54 l 1,4,-1
 262 54 l 1,5,-1
 272 101 l 1,6,-1
 323 144 l 1,7,-1
 383 144 l 1,8,-1
 416 101 l 1,9,-1
 403 42 l 1,10,-1
 352 0 l 1,11,-1
 204 0 l 1,12,-1
 158 58 l 1,13,-1
 88 0 l 1,14,-1
 45 53 l 1,15,-1
 84 234 l 1,16,-1
 149 288 l 1,17,-1
 379 288 l 1,18,-1
 445 342 l 1,19,-1
 475 303 l 1,20,-1
 390 234 l 1,21,-1
 390 233 l 1,22,-1
 390 234 l 1,23,-1
 390 233 l 1,24,-1
 160 233 l 1,0,-1
308 61 m 1,25,-1
 321 45 l 1,26,-1
 343 45 l 1,27,-1
 362 61 l 1,28,-1
 367 83 l 1,29,-1
 354 99 l 1,30,-1
 332 99 l 1,31,-1
 313 83 l 1,32,-1
 308 61 l 1,25,-1
EndSplineSet
EndChar
StartChar: uni0E59
Encoding: 3673 3673 296
Width: 432
Flags: W
Fore
127 212 m 1,0,-1
 98 76 l 1,1,-1
 111 60 l 1,2,-1
 120 102 l 1,3,-1
 171 144 l 1,4,-1
 230 144 l 1,5,-1
 264 102 l 1,6,-1
 251 42 l 1,7,-1
 199 0 l 1,8,-1
 82 0 l 1,9,-1
 40 54 l 1,10,-1
 78 234 l 1,11,-1
 143 288 l 1,12,-1
 222 288 l 1,13,-1
 261 238 l 1,14,-1
 321 288 l 1,15,-1
 370 288 l 1,16,-1
 436 342 l 1,17,-1
 466 303 l 1,18,-1
 381 234 l 1,19,-1
 332 234 l 1,20,-1
 291 200 l 1,21,-1
 421 35 l 1,22,-1
 378 0 l 1,23,-1
 195 234 l 1,24,-1
 154 234 l 1,25,-1
 127 212 l 1,0,-1
161 83 m 1,26,-1
 156 61 l 1,27,-1
 169 45 l 1,28,-1
 191 45 l 1,29,-1
 210 61 l 1,30,-1
 215 83 l 1,31,-1
 202 99 l 1,32,-1
 180 99 l 1,33,-1
 161 83 l 1,26,-1
EndSplineSet
EndChar
StartChar: uni0E5A
Encoding: 3674 3674 297
Width: 457
Flags: W
Fore
434 396 m 1,0,-1
 488 396 l 1,1,-1
 403 0 l 1,2,-1
 349 0 l 1,3,-1
 413 297 l 1,4,-1
 358 252 l 1,5,-1
 331 252 l 1,6,-1
 277 0 l 1,7,-1
 223 0 l 1,8,-1
 287 297 l 1,9,-1
 232 252 l 1,10,-1
 104 252 l 1,11,-1
 70 294 l 1,12,-1
 83 354 l 1,13,-1
 135 396 l 1,14,-1
 194 396 l 1,15,-1
 227 354 l 1,16,-1
 216 306 l 1,17,-1
 221 306 l 1,18,-1
 303 373 l 1,19,-1
 308 396 l 1,20,-1
 362 396 l 1,21,-1
 342 306 l 1,22,-1
 347 306 l 1,23,-1
 429 373 l 1,24,-1
 434 396 l 1,0,-1
132 297 m 1,25,-1
 155 297 l 1,26,-1
 173 313 l 1,27,-1
 178 335 l 1,28,-1
 166 351 l 1,29,-1
 143 351 l 1,30,-1
 125 335 l 1,31,-1
 120 313 l 1,32,-1
 132 297 l 1,25,-1
EndSplineSet
EndChar
StartChar: uni0E5B
Encoding: 3675 3675 298
Width: 745
Flags: W
Fore
654 231 m 1,0,-1
 730 225 l 1,1,-1
 726 207 l 1,2,-1
 615 190 l 1,3,-1
 555 141 l 1,4,-1
 516 191 l 1,5,-1
 455 141 l 1,6,-1
 417 191 l 1,7,-1
 356 141 l 1,8,-1
 353 146 l 1,9,-1
 345 108 l 1,10,-1
 269 45 l 1,11,-1
 80 45 l 1,12,-1
 37 99 l 1,13,-1
 76 279 l 1,14,-1
 141 332 l 1,15,-1
 258 332 l 1,16,-1
 301 279 l 1,17,-1
 275 159 l 1,18,-1
 224 117 l 1,19,-1
 164 117 l 1,20,-1
 131 159 l 1,21,-1
 144 218 l 1,22,-1
 195 261 l 1,23,-1
 239 261 l 1,24,-1
 225 279 l 1,25,-1
 152 279 l 1,26,-1
 125 256 l 1,27,-1
 96 121 l 1,28,-1
 113 99 l 1,29,-1
 258 99 l 1,30,-1
 296 130 l 1,31,-1
 326 269 l 1,32,-1
 371 211 l 1,33,-1
 432 260 l 1,34,-1
 470 211 l 1,35,-1
 531 260 l 1,36,-1
 570 211 l 1,37,-1
 630 260 l 1,38,-1
 654 231 l 1,0,-1
239 200 m 1,39,-1
 226 215 l 1,40,-1
 204 215 l 1,41,-1
 185 200 l 1,42,-1
 180 177 l 1,43,-1
 193 162 l 1,44,-1
 215 162 l 1,45,-1
 234 177 l 1,46,-1
 239 200 l 1,39,-1
EndSplineSet
EndChar
StartChar: zerowidthnonjoiner
Encoding: 8204 8204 299
Width: 0
Flags: W
Fore
56 240 m 1,0,-1
 101 240 l 1,1,-1
 -15 -308 l 1,2,-1
 -60 -308 l 1,3,-1
 56 240 l 1,4,-1
 56 240 l 1,0,-1
EndSplineSet
EndChar
StartChar: zerowidthjoiner
Encoding: 8205 8205 300
Width: 0
Flags: W
Fore
40 241 m 1,0,1
 47 232 47 232 53 224 c 0,2,3
 58 217 58 217 62.5 211 c 128,-1,4
 67 205 67 205 69 203 c 1,5,6
 71 205 71 205 79 211 c 128,-1,7
 87 217 87 217 95 224 c 0,8,9
 105 232 105 232 115 241 c 1,10,-1
 135 217 l 1,11,12
 124 208 124 208 114 200 c 0,13,14
 106 193 106 193 98 186.5 c 128,-1,15
 90 180 90 180 88 178 c 1,16,17
 90 176 90 176 95 170 c 128,-1,18
 100 164 100 164 105 157 c 0,19,20
 111 149 111 149 118 140 c 1,21,-1
 88 116 l 1,22,23
 85 118 85 118 83 121 c 0,24,25
 81 123 81 123 79.5 126 c 128,-1,26
 78 129 78 129 76 131 c 1,27,28
 75 126 75 126 70.5 105 c 128,-1,29
 66 84 66 84 59.5 52.5 c 128,-1,30
 53 21 53 21 44.5 -18 c 128,-1,31
 36 -57 36 -57 28 -97 c 0,32,33
 8 -191 8 -191 -16 -308 c 1,34,-1
 -61 -308 l 1,35,36
 -37 -191 -37 -191 -17 -97 c 0,37,38
 -9 -57 -9 -57 -0.5 -18 c 128,-1,39
 8 21 8 21 14.5 52.5 c 128,-1,40
 21 84 21 84 25.5 105 c 128,-1,41
 30 126 30 126 31 131 c 1,42,43
 28 129 28 129 25 126 c 128,-1,44
 22 123 22 123 20 121 c 0,45,46
 17 118 17 118 14 116 c 1,47,-1
 -6 140 l 1,48,49
 5 149 5 149 14 157 c 0,50,51
 22 164 22 164 29 170 c 128,-1,52
 36 176 36 176 39 178 c 1,53,54
 37 180 37 180 32.5 186.5 c 128,-1,55
 28 193 28 193 23 200 c 0,56,57
 17 208 17 208 11 217 c 1,58,-1
 40 241 l 1,0,1
EndSplineSet
EndChar
StartChar: lefttorightmark
Encoding: 8206 8206 301
Width: 0
Flags: W
Fore
193 246 m 1,0,-1
 241 186 l 1,1,-1
 168 125 l 1,2,-1
 150 151 l 1,3,4
 152 152 152 152 155 155 c 0,5,6
 157 157 157 157 160 159 c 128,-1,7
 163 161 163 161 165 163 c 1,8,-1
 83 163 l 1,9,10
 83 161 83 161 78.5 140 c 128,-1,11
 74 119 74 119 67 85.5 c 128,-1,12
 60 52 60 52 51 9.5 c 128,-1,13
 42 -33 42 -33 33 -76 c 0,14,15
 11 -179 11 -179 -16 -308 c 1,16,-1
 -61 -308 l 1,17,-1
 48 209 l 1,18,-1
 175 209 l 1,19,20
 173 211 173 211 169 217 c 0,21,22
 167 220 167 220 165 222 c 1,23,-1
 193 246 l 1,0,-1
EndSplineSet
EndChar
StartChar: righttoleftmark
Encoding: 8207 8207 302
Width: 0
Flags: W
Fore
-36 247 m 1,0,-1
 -18 223 l 1,1,-1
 -23 218 l 2,2,3
 -27 214 -27 214 -33 210 c 1,4,-1
 94 210 l 1,5,-1
 -15 -308 l 1,6,-1
 -60 -308 l 1,7,8
 -33 -179 -33 -179 -11 -76 c 0,9,10
 -2 -32 -2 -32 7 10 c 128,-1,11
 16 52 16 52 23 86 c 128,-1,12
 30 120 30 120 34.5 141 c 128,-1,13
 39 162 39 162 39 164 c 1,14,-1
 -42 164 l 1,15,-1
 -33 152 l 1,16,-1
 -61 126 l 1,17,-1
 -108 187 l 1,18,-1
 -36 247 l 1,0,-1
EndSplineSet
EndChar
StartChar: endash
Encoding: 8211 8211 303
Width: 353
Flags: W
Fore
30 189 m 1,0,-1
 41 243 l 1,1,-1
 311 243 l 1,2,-1
 300 189 l 1,3,-1
 30 189 l 1,0,-1
EndSplineSet
EndChar
StartChar: emdash
Encoding: 8212 8212 304
Width: 532
Flags: W
Fore
29 189 m 1,0,-1
 40 243 l 1,1,-1
 489 243 l 1,2,-1
 478 189 l 1,3,-1
 29 189 l 1,0,-1
EndSplineSet
EndChar
StartChar: quoteleft
Encoding: 8216 8216 305
Width: 173
Flags: W
Fore
99 332 m 1,0,-1
 107 369 l 1,1,-1
 178 450 l 1,2,-1
 214 450 l 1,3,-1
 172 396 l 1,4,-1
 175 396 l 1,5,-1
 197 369 l 1,6,-1
 189 332 l 1,7,-1
 156 306 l 1,8,-1
 119 306 l 1,9,-1
 99 332 l 1,10,-1
 99 332 l 1,0,-1
EndSplineSet
EndChar
StartChar: quoteright
Encoding: 8217 8217 306
Width: 173
Flags: W
Fore
210 423 m 1,0,-1
 202 386 l 1,1,-1
 131 306 l 1,2,-1
 95 306 l 1,3,-1
 137 360 l 1,4,-1
 134 360 l 1,5,-1
 112 386 l 1,6,-1
 120 423 l 1,7,-1
 153 450 l 1,8,-1
 190 450 l 1,9,-1
 210 423 l 1,10,-1
 210 423 l 1,0,-1
EndSplineSet
EndChar
StartChar: quotesinglbase
Encoding: 8218 8218 307
Width: 172
Flags: W
Fore
144 63 m 1,0,-1
 136 26 l 1,1,-1
 65 -54 l 1,2,-1
 29 -54 l 1,3,-1
 71 0 l 1,4,-1
 67 0 l 1,5,-1
 46 26 l 1,6,-1
 54 63 l 1,7,-1
 86 89 l 1,8,-1
 123 89 l 1,9,-1
 144 63 l 1,0,-1
EndSplineSet
EndChar
StartChar: quotedblleft
Encoding: 8220 8220 308
Width: 298
Flags: W
Fore
179 450 m 1,0,-1
 214 450 l 1,1,-1
 173 396 l 1,2,-1
 176 396 l 1,3,-1
 197 369 l 1,4,-1
 189 332 l 1,5,-1
 157 306 l 1,6,-1
 120 306 l 1,7,-1
 100 332 l 1,8,-1
 108 369 l 1,9,-1
 179 450 l 1,0,-1
298 396 m 1,10,-1
 302 396 l 1,11,-1
 323 369 l 1,12,-1
 315 332 l 1,13,-1
 283 306 l 1,14,-1
 246 306 l 1,15,-1
 225 332 l 1,16,-1
 233 369 l 1,17,-1
 304 450 l 1,18,-1
 340 450 l 1,19,-1
 298 396 l 1,10,-1
EndSplineSet
EndChar
StartChar: quotedblright
Encoding: 8221 8221 309
Width: 298
Flags: W
Fore
313 450 m 1,0,-1
 334 423 l 1,1,-1
 326 386 l 1,2,-1
 255 306 l 1,3,-1
 219 306 l 1,4,-1
 261 360 l 1,5,-1
 257 360 l 1,6,-1
 236 386 l 1,7,-1
 244 423 l 1,8,-1
 276 450 l 1,9,-1
 313 450 l 1,0,-1
150 450 m 1,10,-1
 187 450 l 1,11,-1
 208 423 l 1,12,-1
 200 386 l 1,13,-1
 129 306 l 1,14,-1
 93 306 l 1,15,-1
 135 360 l 1,16,-1
 131 360 l 1,17,-1
 110 386 l 1,18,-1
 118 423 l 1,19,-1
 150 450 l 1,10,-1
EndSplineSet
EndChar
StartChar: quotedblbase
Encoding: 8222 8222 310
Width: 298
Flags: W
Fore
85 89 m 1,0,-1
 122 89 l 1,1,-1
 142 63 l 1,2,-1
 134 26 l 1,3,-1
 63 -54 l 1,4,-1
 27 -54 l 1,5,-1
 69 0 l 1,6,-1
 66 0 l 1,7,-1
 44 26 l 1,8,-1
 52 63 l 1,9,-1
 85 89 l 1,0,-1
248 89 m 1,10,-1
 268 63 l 1,11,-1
 260 26 l 1,12,-1
 189 -54 l 1,13,-1
 153 -54 l 1,14,-1
 195 0 l 1,15,-1
 192 0 l 1,16,-1
 170 26 l 1,17,-1
 178 63 l 1,18,-1
 211 89 l 1,19,-1
 248 89 l 1,10,-1
EndSplineSet
EndChar
StartChar: dagger
Encoding: 8224 8224 311
Width: 332
Flags: W
Fore
343 297 m 1,0,-1
 331 243 l 1,1,-1
 232 243 l 1,2,-1
 154 -126 l 1,3,-1
 100 -126 l 1,4,-1
 178 243 l 1,5,-1
 79 243 l 1,6,-1
 91 297 l 1,7,-1
 190 297 l 1,8,-1
 211 396 l 1,9,-1
 265 396 l 1,10,-1
 244 297 l 1,11,-1
 343 297 l 1,0,-1
EndSplineSet
EndChar
StartChar: daggerdbl
Encoding: 8225 8225 312
Width: 332
Flags: W
Fore
329 243 m 1,0,-1
 231 243 l 1,1,-1
 212 153 l 1,2,-1
 310 153 l 1,3,-1
 299 99 l 1,4,-1
 201 99 l 1,5,-1
 153 -126 l 1,6,-1
 99 -126 l 1,7,-1
 147 99 l 1,8,-1
 48 99 l 1,9,-1
 59 153 l 1,10,-1
 158 153 l 1,11,-1
 177 243 l 1,12,-1
 78 243 l 1,13,-1
 90 297 l 1,14,-1
 189 297 l 1,15,-1
 210 396 l 1,16,-1
 264 396 l 1,17,-1
 243 297 l 1,18,-1
 341 297 l 1,19,-1
 329 243 l 1,0,-1
EndSplineSet
EndChar
StartChar: bullet
Encoding: 8226 8226 313
Width: 244
Flags: W
Fore
215 249 m 1,0,-1
 200 182 l 1,1,-1
 143 135 l 1,2,-1
 76 135 l 1,3,-1
 39 182 l 1,4,-1
 54 249 l 1,5,-1
 111 297 l 1,6,-1
 178 297 l 1,7,-1
 215 249 l 1,0,-1
EndSplineSet
EndChar
StartChar: ellipsis
Encoding: 8230 8230 314
Width: 495
Flags: W
Fore
73 89 m 1,0,-1
 110 89 l 1,1,-1
 131 63 l 1,2,-1
 124 26 l 1,3,-1
 91 0 l 1,4,-1
 54 0 l 1,5,-1
 34 26 l 1,6,-1
 41 63 l 1,7,-1
 73 89 l 1,0,-1
235 89 m 1,8,-1
 272 89 l 1,9,-1
 292 63 l 1,10,-1
 285 26 l 1,11,-1
 253 0 l 1,12,-1
 216 0 l 1,13,-1
 196 26 l 1,14,-1
 203 63 l 1,15,-1
 235 89 l 1,8,-1
434 89 m 1,16,-1
 454 63 l 1,17,-1
 447 26 l 1,18,-1
 415 0 l 1,19,-1
 378 0 l 1,20,-1
 357 26 l 1,21,-1
 364 63 l 1,22,-1
 397 89 l 1,23,-1
 434 89 l 1,16,-1
EndSplineSet
EndChar
StartChar: perthousand
Encoding: 8240 8240 315
Width: 650
Flags: W
Fore
322 198 m 1,0,-1
 400 198 l 1,1,-1
 433 156 l 1,2,-1
 416 78 l 1,3,-1
 365 36 l 1,4,-1
 287 36 l 1,5,-1
 254 78 l 1,6,-1
 271 156 l 1,7,-1
 322 198 l 1,0,-1
375 97 m 1,8,-1
 384 137 l 1,9,-1
 371 153 l 1,10,-1
 331 153 l 1,11,-1
 313 137 l 1,12,-1
 304 97 l 1,13,-1
 316 81 l 1,14,-1
 356 81 l 1,15,-1
 375 97 l 1,8,-1
589 198 m 1,16,-1
 622 156 l 1,17,-1
 605 78 l 1,18,-1
 554 36 l 1,19,-1
 476 36 l 1,20,-1
 443 78 l 1,21,-1
 460 156 l 1,22,-1
 511 198 l 1,23,-1
 589 198 l 1,16,-1
564 97 m 1,24,-1
 573 137 l 1,25,-1
 560 153 l 1,26,-1
 520 153 l 1,27,-1
 501 137 l 1,28,-1
 492 97 l 1,29,-1
 505 81 l 1,30,-1
 545 81 l 1,31,-1
 564 97 l 1,24,-1
394 432 m 1,32,-1
 456 432 l 1,33,-1
 120 0 l 1,34,-1
 58 0 l 1,35,-1
 394 432 l 1,32,-1
259 354 m 1,36,-1
 242 276 l 1,37,-1
 191 234 l 1,38,-1
 113 234 l 1,39,-1
 80 276 l 1,40,-1
 97 354 l 1,41,-1
 148 396 l 1,42,-1
 226 396 l 1,43,-1
 259 354 l 1,36,-1
210 335 m 1,44,-1
 197 351 l 1,45,-1
 157 351 l 1,46,-1
 138 335 l 1,47,-1
 129 295 l 1,48,-1
 142 279 l 1,49,-1
 182 279 l 1,50,-1
 201 295 l 1,51,-1
 210 335 l 1,44,-1
EndSplineSet
EndChar
StartChar: minute
Encoding: 8242 8242 316
Width: 136
Flags: W
Fore
83 341 m 1,0,-1
 120 431 l 1,1,-1
 174 431 l 1,2,-1
 119 341 l 1,3,-1
 83 341 l 1,0,-1
EndSplineSet
EndChar
StartChar: second
Encoding: 8243 8243 317
Width: 218
Flags: W
Fore
84 341 m 1,0,-1
 121 431 l 1,1,-1
 175 431 l 1,2,-1
 120 341 l 1,3,-1
 84 341 l 1,0,-1
202 431 m 1,4,-1
 256 431 l 1,5,-1
 201 341 l 1,6,-1
 165 341 l 1,7,-1
 202 431 l 1,4,-1
EndSplineSet
EndChar
StartChar: guilsinglleft
Encoding: 8249 8249 318
Width: 191
Flags: W
Fore
190 301 m 1,0,-1
 175 228 l 1,1,-1
 107 175 l 1,2,-1
 152 122 l 1,3,-1
 137 49 l 1,4,-1
 50 148 l 1,5,-1
 61 201 l 1,6,-1
 190 301 l 1,0,-1
EndSplineSet
EndChar
StartChar: guilsinglright
Encoding: 8250 8250 319
Width: 190
Flags: W
Fore
81 301 m 1,0,-1
 168 201 l 1,1,-1
 157 148 l 1,2,-1
 28 49 l 1,3,-1
 43 122 l 1,4,-1
 113 175 l 1,5,-1
 66 228 l 1,6,-1
 81 301 l 1,0,-1
EndSplineSet
EndChar
StartChar: fraction
Encoding: 8260 8260 320
Width: 382
Flags: W
Fore
357 432 m 1,0,-1
 419 432 l 1,1,-1
 83 0 l 1,2,-1
 22 0 l 1,3,-1
 357 432 l 1,0,-1
EndSplineSet
EndChar
StartChar: Euro
Encoding: 8364 8364 321
Width: 458
Flags: W
Fore
474 333 m 1,0,-1
 420 333 l 1,1,-1
 425 355 l 1,2,-1
 408 378 l 1,3,-1
 219 378 l 1,4,-1
 192 356 l 1,5,-1
 180 298 l 1,6,-1
 368 298 l 1,7,-1
 356 244 l 1,8,-1
 168 244 l 1,9,-1
 157 190 l 1,10,-1
 345 190 l 1,11,-1
 333 136 l 1,12,-1
 145 136 l 1,13,-1
 133 76 l 1,14,-1
 150 54 l 1,15,-1
 339 54 l 1,16,-1
 366 76 l 1,17,-1
 371 99 l 1,18,-1
 425 99 l 1,19,-1
 415 54 l 1,20,-1
 351 0 l 1,21,-1
 117 0 l 1,22,-1
 74 54 l 1,23,-1
 91 136 l 1,24,-1
 57 136 l 1,25,-1
 69 190 l 1,26,-1
 103 190 l 1,27,-1
 114 244 l 1,28,-1
 80 244 l 1,29,-1
 92 298 l 1,30,-1
 126 298 l 1,31,-1
 143 378 l 1,32,-1
 207 432 l 1,33,-1
 441 432 l 1,34,-1
 484 378 l 1,35,-1
 474 333 l 1,0,-1
EndSplineSet
EndChar
StartChar: uni2113
Encoding: 8467 8467 322
Width: 268
Flags: W
Fore
158 54 m 1,0,-1
 225 54 l 1,1,-1
 214 0 l 1,2,-1
 124 0 l 1,3,-1
 81 54 l 1,4,-1
 94 117 l 1,5,-1
 90 113 l 1,6,-1
 60 151 l 1,7,-1
 111 194 l 1,8,-1
 161 432 l 1,9,-1
 243 432 l 1,10,-1
 285 378 l 1,11,-1
 258 252 l 1,12,-1
 160 171 l 1,13,-1
 140 77 l 1,14,-1
 158 54 l 1,0,-1
209 378 m 1,15,-1
 204 378 l 1,16,-1
 177 252 l 1,17,-1
 182 252 l 1,18,-1
 209 275 l 1,19,-1
 226 356 l 1,20,-1
 209 378 l 1,15,-1
EndSplineSet
EndChar
StartChar: trademark
Encoding: 8482 8482 323
Width: 550
Flags: W
Fore
72 387 m 1,0,-1
 81 432 l 1,1,-1
 252 432 l 1,2,-1
 243 387 l 1,3,-1
 180 387 l 1,4,-1
 136 181 l 1,5,-1
 91 181 l 1,6,-1
 135 387 l 1,7,-1
 72 387 l 1,0,-1
549 432 m 1,8,-1
 496 181 l 1,9,-1
 451 181 l 1,10,-1
 481 322 l 1,11,-1
 388 181 l 1,12,-1
 343 181 l 1,13,-1
 310 322 l 1,14,-1
 280 181 l 1,15,-1
 235 181 l 1,16,-1
 288 432 l 1,17,-1
 334 432 l 1,18,-1
 379 241 l 1,19,-1
 504 432 l 1,20,-1
 549 432 l 1,8,-1
EndSplineSet
EndChar
StartChar: Ohm
Encoding: 8486 8486 324
Width: 441
Flags: W
Fore
308 54 m 1,0,-1
 398 54 l 1,1,-1
 386 0 l 1,2,-1
 242 0 l 1,3,-1
 262 91 l 1,4,-1
 348 159 l 1,5,-1
 383 322 l 1,6,-1
 365 344 l 1,7,-1
 194 344 l 1,8,-1
 167 322 l 1,9,-1
 132 159 l 1,10,-1
 190 91 l 1,11,-1
 170 0 l 1,12,-1
 28 0 l 1,13,-1
 40 54 l 1,14,-1
 128 54 l 1,15,-1
 131 68 l 1,16,-1
 74 135 l 1,17,-1
 118 344 l 1,18,-1
 183 398 l 1,19,-1
 399 398 l 1,20,-1
 441 344 l 1,21,-1
 397 135 l 1,22,-1
 311 68 l 1,23,-1
 308 54 l 1,0,-1
EndSplineSet
EndChar
StartChar: estimated
Encoding: 8494 8494 325
Width: 242
Flags: W
Fore
208 342 m 1,0,-1
 249 288 l 1,1,-1
 221 153 l 1,2,-1
 114 153 l 1,3,-1
 98 77 l 1,4,-1
 115 54 l 1,5,-1
 124 54 l 1,6,-1
 151 77 l 1,7,-1
 155 99 l 1,8,-1
 209 99 l 1,9,-1
 200 54 l 1,10,-1
 135 0 l 1,11,-1
 80 0 l 1,12,-1
 39 54 l 1,13,-1
 88 288 l 1,14,-1
 153 342 l 1,15,-1
 208 342 l 1,0,-1
125 207 m 1,16,-1
 178 207 l 1,17,-1
 191 266 l 1,18,-1
 173 288 l 1,19,-1
 164 288 l 1,20,-1
 138 266 l 1,21,-1
 125 207 l 1,16,-1
EndSplineSet
EndChar
StartChar: partialdiff
Encoding: 8706 8706 326
Width: 242
Flags: W
Fore
207 342 m 1,0,-1
 249 288 l 1,1,-1
 200 54 l 1,2,-1
 135 0 l 1,3,-1
 80 0 l 1,4,-1
 38 54 l 1,5,-1
 51 117 l 1,6,-1
 63 171 l 1,7,-1
 128 225 l 1,8,-1
 182 225 l 1,9,-1
 191 266 l 1,10,-1
 173 288 l 1,11,-1
 163 288 l 1,12,-1
 137 266 l 1,13,-1
 132 243 l 1,14,-1
 78 243 l 1,15,-1
 88 289 l 1,16,-1
 153 342 l 1,17,-1
 207 342 l 1,0,-1
151 77 m 1,18,-1
 171 171 l 1,19,-1
 140 171 l 1,20,-1
 112 149 l 1,21,-1
 97 77 l 1,22,-1
 115 54 l 1,23,-1
 124 54 l 1,24,-1
 151 77 l 1,18,-1
EndSplineSet
EndChar
StartChar: Delta
Encoding: 8710 8710 327
Width: 437
Flags: W
Fore
310 333 m 1,0,-1
 394 49 l 1,1,-1
 383 0 l 1,2,-1
 24 0 l 1,3,-1
 35 54 l 1,4,-1
 238 333 l 1,5,-1
 310 333 l 1,0,-1
96 54 m 1,6,-1
 332 54 l 1,7,-1
 265 279 l 1,8,-1
 259 279 l 1,9,-1
 96 54 l 1,6,-1
EndSplineSet
EndChar
StartChar: product
Encoding: 8719 8719 328
Width: 394
Flags: W
Fore
117 432 m 1,0,-1
 432 432 l 1,1,-1
 313 -126 l 1,2,-1
 259 -126 l 1,3,-1
 366 378 l 1,4,-1
 159 378 l 1,5,-1
 52 -126 l 1,6,-1
 -1 -126 l 1,7,-1
 117 432 l 1,0,-1
EndSplineSet
EndChar
StartChar: summation
Encoding: 8721 8721 329
Width: 386
Flags: W
Fore
116 432 m 1,0,-1
 421 432 l 1,1,-1
 410 378 l 1,2,-1
 159 378 l 1,3,-1
 154 355 l 1,4,-1
 261 216 l 1,5,-1
 95 77 l 1,6,-1
 90 54 l 1,7,-1
 341 54 l 1,8,-1
 330 0 l 1,9,-1
 26 0 l 1,10,-1
 46 99 l 1,11,-1
 186 216 l 1,12,-1
 95 333 l 1,13,-1
 116 432 l 1,0,-1
EndSplineSet
EndChar
StartChar: minus
Encoding: 8722 8722 330
Width: 439
Flags: W
Fore
35 189 m 1,0,-1
 46 243 l 1,1,-1
 389 243 l 1,2,-1
 378 189 l 1,3,-1
 35 189 l 1,0,-1
EndSplineSet
EndChar
StartChar: radical
Encoding: 8730 8730 331
Width: 404
Flags: W
Fore
384 432 m 1,0,-1
 441 432 l 1,1,-1
 190 0 l 1,2,-1
 136 0 l 1,3,-1
 114 135 l 1,4,-1
 56 135 l 1,5,-1
 68 189 l 1,6,-1
 163 189 l 1,7,-1
 180 83 l 1,8,-1
 384 432 l 1,0,-1
EndSplineSet
EndChar
StartChar: infinity
Encoding: 8734 8734 332
Width: 565
Flags: W
Fore
507 333 m 1,0,-1
 549 279 l 1,1,-1
 522 153 l 1,2,-1
 458 99 l 1,3,-1
 332 99 l 1,4,-1
 285 174 l 1,5,-1
 206 99 l 1,6,-1
 80 99 l 1,7,-1
 37 153 l 1,8,-1
 64 279 l 1,9,-1
 129 333 l 1,10,-1
 255 333 l 1,11,-1
 302 258 l 1,12,-1
 381 333 l 1,13,-1
 507 333 l 1,0,-1
192 153 m 1,14,-1
 259 216 l 1,15,-1
 219 279 l 1,16,-1
 140 279 l 1,17,-1
 113 257 l 1,18,-1
 96 175 l 1,19,-1
 113 153 l 1,20,-1
 192 153 l 1,14,-1
474 175 m 1,21,-1
 491 257 l 1,22,-1
 473 279 l 1,23,-1
 395 279 l 1,24,-1
 329 216 l 1,25,-1
 368 153 l 1,26,-1
 446 153 l 1,27,-1
 474 175 l 1,21,-1
EndSplineSet
EndChar
StartChar: integral
Encoding: 8747 8747 333
Width: 359
Flags: W
Fore
317 378 m 1,0,-1
 285 356 l 1,1,-1
 157 54 l 1,2,-1
 81 0 l 1,3,-1
 1 0 l 1,4,-1
 12 54 l 1,5,-1
 81 54 l 1,6,-1
 113 76 l 1,7,-1
 241 378 l 1,8,-1
 317 432 l 1,9,-1
 396 432 l 1,10,-1
 385 378 l 1,11,-1
 317 378 l 1,0,-1
EndSplineSet
EndChar
StartChar: approxequal
Encoding: 8776 8776 334
Width: 424
Flags: W
Fore
83 222 m 1,0,-1
 66 269 l 1,1,-1
 157 316 l 1,2,-1
 305 274 l 1,3,-1
 375 310 l 1,4,-1
 392 263 l 1,5,-1
 300 216 l 1,6,-1
 152 258 l 1,7,-1
 83 222 l 1,0,-1
355 212 m 1,8,-1
 372 165 l 1,9,-1
 279 117 l 1,10,-1
 131 159 l 1,11,-1
 62 124 l 1,12,-1
 45 171 l 1,13,-1
 136 217 l 1,14,-1
 284 175 l 1,15,-1
 355 212 l 1,8,-1
EndSplineSet
EndChar
StartChar: notequal
Encoding: 8800 8800 335
Width: 294
Flags: W
Fore
286 216 m 1,0,-1
 206 216 l 1,1,-1
 179 153 l 1,2,-1
 273 153 l 1,3,-1
 261 99 l 1,4,-1
 156 99 l 1,5,-1
 114 0 l 1,6,-1
 60 0 l 1,7,-1
 102 99 l 1,8,-1
 45 99 l 1,9,-1
 57 153 l 1,10,-1
 126 153 l 1,11,-1
 152 216 l 1,12,-1
 70 216 l 1,13,-1
 82 270 l 1,14,-1
 175 270 l 1,15,-1
 214 360 l 1,16,-1
 267 360 l 1,17,-1
 229 270 l 1,18,-1
 298 270 l 1,19,-1
 286 216 l 1,0,-1
EndSplineSet
EndChar
StartChar: lessequal
Encoding: 8804 8804 336
Width: 421
Flags: W
Fore
46 54 m 1,0,-1
 370 54 l 1,1,-1
 358 0 l 1,2,-1
 35 0 l 1,3,-1
 46 54 l 1,0,-1
423 303 m 1,4,-1
 164 216 l 1,5,-1
 386 130 l 1,6,-1
 374 72 l 1,7,-1
 74 189 l 1,8,-1
 86 243 l 1,9,-1
 435 360 l 1,10,-1
 423 303 l 1,4,-1
EndSplineSet
EndChar
StartChar: greaterequal
Encoding: 8805 8805 337
Width: 421
Flags: W
Fore
47 54 m 1,0,-1
 370 54 l 1,1,-1
 358 0 l 1,2,-1
 36 0 l 1,3,-1
 47 54 l 1,0,-1
410 243 m 1,4,-1
 398 189 l 1,5,-1
 51 72 l 1,6,-1
 63 130 l 1,7,-1
 320 216 l 1,8,-1
 100 303 l 1,9,-1
 112 360 l 1,10,-1
 410 243 l 1,4,-1
EndSplineSet
EndChar
StartChar: lozenge
Encoding: 9674 9674 338
Width: 361
Flags: W
Fore
287 414 m 1,0,-1
 350 207 l 1,1,-1
 200 0 l 1,2,-1
 127 0 l 1,3,-1
 67 207 l 1,4,-1
 214 414 l 1,5,-1
 287 414 l 1,0,-1
178 54 m 1,6,-1
 290 207 l 1,7,-1
 243 360 l 1,8,-1
 236 360 l 1,9,-1
 127 207 l 1,10,-1
 171 54 l 1,11,-1
 178 54 l 1,6,-1
EndSplineSet
EndChar
StartChar: dottedcircle
Encoding: 9676 9676 339
Width: 526
Flags: W
Fore
327 442 m 1,0,-1
 361 442 l 1,1,-1
 380 418 l 1,2,-1
 373 384 l 1,3,-1
 344 360 l 1,4,-1
 310 360 l 1,5,-1
 291 384 l 1,6,-1
 298 418 l 1,7,-1
 327 442 l 1,0,-1
443 389 m 1,8,-1
 477 389 l 1,9,-1
 496 365 l 1,10,-1
 489 331 l 1,11,-1
 460 307 l 1,12,-1
 426 307 l 1,13,-1
 407 331 l 1,14,-1
 414 365 l 1,15,-1
 443 389 l 1,8,-1
189 389 m 1,16,-1
 223 389 l 1,17,-1
 242 365 l 1,18,-1
 235 331 l 1,19,-1
 206 307 l 1,20,-1
 172 307 l 1,21,-1
 153 331 l 1,22,-1
 160 365 l 1,23,-1
 189 389 l 1,16,-1
469 262 m 1,24,-1
 503 262 l 1,25,-1
 522 238 l 1,26,-1
 515 204 l 1,27,-1
 486 180 l 1,28,-1
 452 180 l 1,29,-1
 433 204 l 1,30,-1
 440 238 l 1,31,-1
 469 262 l 1,24,-1
109 262 m 1,32,-1
 143 262 l 1,33,-1
 162 238 l 1,34,-1
 155 204 l 1,35,-1
 126 180 l 1,36,-1
 92 180 l 1,37,-1
 73 204 l 1,38,-1
 80 238 l 1,39,-1
 109 262 l 1,32,-1
389 135 m 1,40,-1
 423 135 l 1,41,-1
 442 111 l 1,42,-1
 435 77 l 1,43,-1
 406 53 l 1,44,-1
 372 53 l 1,45,-1
 353 77 l 1,46,-1
 360 111 l 1,47,-1
 389 135 l 1,40,-1
135 135 m 1,48,-1
 169 135 l 1,49,-1
 188 111 l 1,50,-1
 181 77 l 1,51,-1
 152 53 l 1,52,-1
 118 53 l 1,53,-1
 99 77 l 1,54,-1
 106 111 l 1,55,-1
 135 135 l 1,48,-1
251 82 m 1,56,-1
 285 82 l 1,57,-1
 304 58 l 1,58,-1
 297 24 l 1,59,-1
 268 0 l 1,60,-1
 234 0 l 1,61,-1
 215 24 l 1,62,-1
 222 58 l 1,63,-1
 251 82 l 1,56,-1
EndSplineSet
EndChar
StartChar: uni0E10.alt1
Encoding: 63232 63232 340
Width: 381
Flags: W
Fore
418 342 m 1,0,-1
 170 342 l 1,1,-1
 158 332 l 1,2,-1
 385 270 l 1,3,-1
 327 0 l 1,4,-1
 273 0 l 1,5,-1
 292 86 l 1,6,-1
 259 127 l 1,7,-1
 215 90 l 1,8,-1
 155 90 l 1,9,-1
 121 132 l 1,10,-1
 134 192 l 1,11,-1
 185 234 l 1,12,-1
 245 234 l 1,13,-1
 307 156 l 1,14,-1
 323 233 l 1,15,-1
 86 297 l 1,16,-1
 85 297 l 1,17,-1
 94 342 l 1,18,-1
 160 396 l 1,19,-1
 430 396 l 1,20,-1
 418 342 l 1,0,-1
225 151 m 1,21,-1
 229 174 l 1,22,-1
 217 189 l 1,23,-1
 195 189 l 1,24,-1
 175 174 l 1,25,-1
 171 151 l 1,26,-1
 183 136 l 1,27,-1
 205 136 l 1,28,-1
 225 151 l 1,21,-1
EndSplineSet
EndChar
StartChar: uni0E34.alt1
Encoding: 63233 63233 341
Width: 0
Flags: W
Fore
-64 571 m 1,0,-1
 -21 517 l 1,1,-1
 -35 454 l 1,2,-1
 -341 454 l 1,3,-1
 -327 517 l 1,4,-1
 -262 571 l 1,5,-1
 -64 571 l 1,0,-1
-285 499 m 1,6,-1
 -71 499 l 1,7,-1
 -92 526 l 1,8,-1
 -252 526 l 1,9,-1
 -285 499 l 1,6,-1
EndSplineSet
EndChar
StartChar: uni0E35.alt1
Encoding: 63234 63234 342
Width: 0
Flags: W
Fore
-1 616 m 1,0,-1
 -35 454 l 1,1,-1
 -341 454 l 1,2,-1
 -328 517 l 1,3,-1
 -262 571 l 1,4,-1
 -64 571 l 1,5,-1
 -57 562 l 1,6,-1
 -46 616 l 1,7,-1
 -1 616 l 1,0,-1
-285 499 m 1,8,-1
 -71 499 l 1,9,-1
 -93 526 l 1,10,-1
 -253 526 l 1,11,-1
 -285 499 l 1,8,-1
EndSplineSet
EndChar
StartChar: uni0E36.alt1
Encoding: 63235 63235 343
Width: 0
Flags: W
Fore
-23 616 m 1,0,-1
 6 579 l 1,1,-1
 -5 527 l 1,2,-1
 -44 495 l 1,3,-1
 -52 454 l 1,4,-1
 -358 454 l 1,5,-1
 -345 517 l 1,6,-1
 -279 571 l 1,7,-1
 -122 571 l 1,8,-1
 -120 579 l 1,9,-1
 -75 616 l 1,10,-1
 -23 616 l 1,0,-1
-66 571 m 1,11,-1
 -79 560 l 1,12,-1
 -82 545 l 1,13,-1
 -74 535 l 1,14,-1
 -59 535 l 1,15,-1
 -46 545 l 1,16,-1
 -43 560 l 1,17,-1
 -51 571 l 1,18,-1
 -66 571 l 1,11,-1
-303 499 m 1,19,-1
 -89 499 l 1,20,-1
 -110 526 l 1,21,-1
 -270 526 l 1,22,-1
 -303 499 l 1,19,-1
EndSplineSet
EndChar
StartChar: uni0E37.alt1
Encoding: 63236 63236 344
Width: 0
Flags: W
Fore
-1 616 m 1,0,-1
 -35 454 l 1,1,-1
 -341 454 l 1,2,-1
 -328 517 l 1,3,-1
 -262 571 l 1,4,-1
 -127 571 l 1,5,-1
 -118 616 l 1,6,-1
 -73 616 l 1,7,-1
 -82 571 l 1,8,-1
 -65 571 l 1,9,-1
 -57 562 l 1,10,-1
 -46 616 l 1,11,-1
 -1 616 l 1,0,-1
-286 499 m 1,12,-1
 -72 499 l 1,13,-1
 -93 526 l 1,14,-1
 -253 526 l 1,15,-1
 -286 499 l 1,12,-1
EndSplineSet
EndChar
StartChar: uni0E48.alt1
Encoding: 63237 63237 345
Width: 0
Flags: W
Fore
-79 454 m 1,0,-1
 -45 616 l 1,1,-1
 0 616 l 1,2,-1
 -34 454 l 1,3,-1
 -79 454 l 1,4,-1
 -79 454 l 1,0,-1
EndSplineSet
Substitution: 0 65534 'L026' uni0E48.alt3
Substitution: 0 65534 'L026' uni0E48.alt3
EndChar
StartChar: uni0E49.alt1
Encoding: 63238 63238 346
Width: 0
Flags: W
Fore
-38 581 m 1,0,-1
 -13 550 l 1,1,-1
 -128 455 l 1,2,-1
 -281 455 l 1,3,-1
 -271 500 l 1,4,-1
 -243 500 l 1,5,-1
 -265 528 l 1,6,-1
 -254 580 l 1,7,-1
 -209 617 l 1,8,-1
 -157 617 l 1,9,-1
 -128 580 l 1,10,-1
 -139 528 l 1,11,-1
 -173 500 l 1,12,-1
 -137 500 l 1,13,-1
 -38 581 l 1,0,-1
-213 562 m 1,14,-1
 -216 547 l 1,15,-1
 -208 536 l 1,16,-1
 -193 536 l 1,17,-1
 -180 547 l 1,18,-1
 -177 562 l 1,19,-1
 -185 572 l 1,20,-1
 -200 572 l 1,21,-1
 -213 562 l 1,14,-1
EndSplineSet
Substitution: 0 65534 'L026' uni0E49.alt3
Substitution: 0 65534 'L026' uni0E49.alt3
EndChar
StartChar: uni0E4A.alt1
Encoding: 63239 63239 347
Width: 0
Flags: W
Fore
-33 588 m 1,0,-1
 -11 558 l 1,1,-1
 -136 455 l 1,2,-1
 -158 484 l 1,3,-1
 -124 512 l 1,4,-1
 -138 529 l 1,5,-1
 -217 464 l 1,6,-1
 -269 464 l 1,7,-1
 -298 501 l 1,8,-1
 -287 553 l 1,9,-1
 -242 590 l 1,10,-1
 -190 590 l 1,11,-1
 -165 559 l 1,12,-1
 -128 590 l 1,13,-1
 -89 541 l 1,14,-1
 -33 588 l 1,0,-1
-249 520 m 1,15,-1
 -240 509 l 1,16,-1
 -225 509 l 1,17,-1
 -213 520 l 1,18,-1
 -210 535 l 1,19,-1
 -217 545 l 1,20,-1
 -232 545 l 1,21,-1
 -246 535 l 1,22,-1
 -249 520 l 1,15,-1
EndSplineSet
Substitution: 0 65534 'L026' uni0E4A.alt3
Substitution: 0 65534 'L026' uni0E4A.alt3
EndChar
StartChar: uni0E4B.alt1
Encoding: 63240 63240 348
Width: 0
Flags: W
Fore
-15 550 m 1,0,-1
 -25 505 l 1,1,-1
 -74 505 l 1,2,-1
 -85 455 l 1,3,-1
 -130 455 l 1,4,-1
 -119 505 l 1,5,-1
 -169 505 l 1,6,-1
 -159 550 l 1,7,-1
 -110 550 l 1,8,-1
 -99 599 l 1,9,-1
 -54 599 l 1,10,-1
 -65 550 l 1,11,-1
 -15 550 l 1,12,-1
 -15 550 l 1,0,-1
EndSplineSet
Substitution: 0 65534 'L026' uni0E4B.alt3
Substitution: 0 65534 'L026' uni0E4B.alt3
EndChar
StartChar: uni0E4C.alt1
Encoding: 63241 63241 349
Width: 0
Flags: W
Fore
16 622 m 1,0,-1
 -40 575 l 1,1,-1
 -15 544 l 1,2,-1
 -27 492 l 1,3,-1
 -71 455 l 1,4,-1
 -123 455 l 1,5,-1
 -152 492 l 1,6,-1
 -141 544 l 1,7,-1
 -9 653 l 1,8,-1
 16 622 l 1,0,-1
-73 536 m 1,9,-1
 -88 536 l 1,10,-1
 -100 525 l 1,11,-1
 -104 511 l 1,12,-1
 -95 500 l 1,13,-1
 -80 500 l 1,14,-1
 -68 511 l 1,15,-1
 -64 526 l 1,16,-1
 -73 536 l 1,9,-1
EndSplineSet
Substitution: 0 65534 'L026' uni0E4C.alt3
Substitution: 0 65534 'L026' uni0E4C.alt3
EndChar
StartChar: uni0E48.alt2
Encoding: 63242 63242 350
Width: 0
Flags: W
Fore
-3 455 m 1,0,-1
 32 617 l 1,1,-1
 77 617 l 1,2,-1
 42 455 l 1,3,-1
 -3 455 l 1,4,-1
 -3 455 l 1,0,-1
EndSplineSet
Substitution: 0 65534 'L028' uni0E48.alt3
Substitution: 0 65534 'L027' uni0E48
Substitution: 0 65534 'L026' uni0E48.alt1
Substitution: 0 65534 'L028' uni0E48.alt3
Substitution: 0 65534 'L027' uni0E48
Substitution: 0 65534 'L026' uni0E48.alt1
EndChar
StartChar: uni0E49.alt2
Encoding: 63243 63243 351
Width: 0
Flags: W
Fore
131 582 m 1,0,-1
 156 550 l 1,1,-1
 42 456 l 1,2,-1
 -111 456 l 1,3,-1
 -102 501 l 1,4,-1
 -74 501 l 1,5,-1
 -96 529 l 1,6,-1
 -85 581 l 1,7,-1
 -40 618 l 1,8,-1
 12 618 l 1,9,-1
 41 581 l 1,10,-1
 30 529 l 1,11,-1
 -4 501 l 1,12,-1
 32 501 l 1,13,-1
 131 582 l 1,0,-1
-44 562 m 1,14,-1
 -47 547 l 1,15,-1
 -39 537 l 1,16,-1
 -24 537 l 1,17,-1
 -11 547 l 1,18,-1
 -8 562 l 1,19,-1
 -16 573 l 1,20,-1
 -31 573 l 1,21,-1
 -44 562 l 1,14,-1
EndSplineSet
Substitution: 0 65534 'L028' uni0E49.alt3
Substitution: 0 65534 'L027' uni0E49
Substitution: 0 65534 'L026' uni0E49.alt1
Substitution: 0 65534 'L028' uni0E49.alt3
Substitution: 0 65534 'L027' uni0E49
Substitution: 0 65534 'L026' uni0E49.alt1
EndChar
StartChar: uni0E4A.alt2
Encoding: 63244 63244 352
Width: 0
Flags: W
Fore
188 559 m 1,0,-1
 63 455 l 1,1,-1
 40 485 l 1,2,-1
 74 513 l 1,3,-1
 61 529 l 1,4,-1
 -18 465 l 1,5,-1
 -70 465 l 1,6,-1
 -99 501 l 1,7,-1
 -88 554 l 1,8,-1
 -43 590 l 1,9,-1
 9 590 l 1,10,-1
 33 559 l 1,11,-1
 71 590 l 1,12,-1
 109 542 l 1,13,-1
 165 588 l 1,14,-1
 188 559 l 1,0,-1
-42 509 m 1,15,-1
 -27 509 l 1,16,-1
 -14 520 l 1,17,-1
 -11 535 l 1,18,-1
 -19 545 l 1,19,-1
 -34 545 l 1,20,-1
 -47 535 l 1,21,-1
 -50 520 l 1,22,-1
 -42 509 l 1,15,-1
EndSplineSet
Substitution: 0 65534 'L028' uni0E4A.alt3
Substitution: 0 65534 'L027' uni0E4A
Substitution: 0 65534 'L026' uni0E4A.alt1
Substitution: 0 65534 'L028' uni0E4A.alt3
Substitution: 0 65534 'L027' uni0E4A
Substitution: 0 65534 'L026' uni0E4A.alt1
EndChar
StartChar: uni0E4B.alt2
Encoding: 63245 63245 353
Width: 0
Flags: W
Fore
112 550 m 1,0,-1
 102 505 l 1,1,-1
 53 505 l 1,2,-1
 42 456 l 1,3,-1
 -2 456 l 1,4,-1
 8 505 l 1,5,-1
 -41 505 l 1,6,-1
 -32 550 l 1,7,-1
 18 550 l 1,8,-1
 28 600 l 1,9,-1
 73 600 l 1,10,-1
 63 550 l 1,11,-1
 112 550 l 1,12,-1
 112 550 l 1,0,-1
EndSplineSet
Substitution: 0 65534 'L028' uni0E4B.alt3
Substitution: 0 65534 'L027' uni0E4B
Substitution: 0 65534 'L026' uni0E4B.alt1
Substitution: 0 65534 'L028' uni0E4B.alt3
Substitution: 0 65534 'L027' uni0E4B
Substitution: 0 65534 'L026' uni0E4B.alt1
EndChar
StartChar: uni0E4C.alt2
Encoding: 63246 63246 354
Width: 0
Flags: W
Fore
93 622 m 1,0,-1
 36 576 l 1,1,-1
 61 545 l 1,2,-1
 50 493 l 1,3,-1
 5 456 l 1,4,-1
 -47 456 l 1,5,-1
 -76 493 l 1,6,-1
 -65 545 l 1,7,-1
 67 654 l 1,8,-1
 93 622 l 1,0,-1
4 537 m 1,9,-1
 -11 537 l 1,10,-1
 -24 526 l 1,11,-1
 -27 511 l 1,12,-1
 -19 501 l 1,13,-1
 -4 501 l 1,14,-1
 9 511 l 1,15,-1
 12 526 l 1,16,-1
 4 537 l 1,9,-1
EndSplineSet
Substitution: 0 65534 'L028' uni0E4C.alt3
Substitution: 0 65534 'L027' uni0E4C
Substitution: 0 65534 'L026' uni0E4C.alt1
Substitution: 0 65534 'L028' uni0E4C.alt3
Substitution: 0 65534 'L027' uni0E4C
Substitution: 0 65534 'L026' uni0E4C.alt1
EndChar
StartChar: uni0E0D.alt1
Encoding: 63247 63247 355
Width: 590
Flags: W
Fore
368 320 m 1,0,-1
 350 342 l 1,1,-1
 179 342 l 1,2,-1
 225 284 l 1,3,-1
 150 222 l 1,4,-1
 133 144 l 1,5,-1
 180 144 l 1,6,-1
 214 102 l 1,7,-1
 202 43 l 1,8,-1
 149 0 l 1,9,-1
 90 0 l 1,10,-1
 58 43 l 1,11,-1
 100 244 l 1,12,-1
 149 284 l 1,13,-1
 103 342 l 1,14,-1
 168 396 l 1,15,-1
 385 396 l 1,16,-1
 426 342 l 1,17,-1
 365 54 l 1,18,-1
 469 54 l 1,19,-1
 496 77 l 1,20,-1
 564 396 l 1,21,-1
 618 396 l 1,22,-1
 545 54 l 1,23,-1
 479 0 l 1,24,-1
 300 0 l 1,25,-1
 368 320 l 1,0,-1
129 99 m 1,26,-1
 111 84 l 1,27,-1
 106 61 l 1,28,-1
 118 46 l 1,29,-1
 141 46 l 1,30,-1
 159 61 l 1,31,-1
 164 84 l 1,32,-1
 152 99 l 1,33,-1
 129 99 l 1,26,-1
EndSplineSet
EndChar
StartChar: uni0E31.alt1
Encoding: 63248 63248 356
Width: 0
Flags: W
Fore
-46 545 m 1,0,-1
 -21 513 l 1,1,-1
 -92 454 l 1,2,-1
 -298 454 l 1,3,-1
 -327 491 l 1,4,-1
 -316 543 l 1,5,-1
 -271 580 l 1,6,-1
 -219 580 l 1,7,-1
 -190 543 l 1,8,-1
 -198 508 l 1,9,-1
 -90 508 l 1,10,-1
 -46 545 l 1,0,-1
-255 499 m 1,11,-1
 -242 510 l 1,12,-1
 -239 525 l 1,13,-1
 -247 535 l 1,14,-1
 -262 535 l 1,15,-1
 -275 525 l 1,16,-1
 -278 510 l 1,17,-1
 -270 499 l 1,18,-1
 -255 499 l 1,11,-1
EndSplineSet
EndChar
StartChar: uni0E4D.alt1
Encoding: 63249 63249 357
Width: 0
Flags: W
Fore
-45 580 m 1,0,-1
 -15 543 l 1,1,-1
 -27 491 l 1,2,-1
 -71 454 l 1,3,-1
 -123 454 l 1,4,-1
 -152 491 l 1,5,-1
 -141 543 l 1,6,-1
 -97 580 l 1,7,-1
 -45 580 l 1,0,-1
-80 499 m 1,8,-1
 -68 510 l 1,9,-1
 -64 525 l 1,10,-1
 -73 535 l 1,11,-1
 -88 535 l 1,12,-1
 -100 525 l 1,13,-1
 -104 510 l 1,14,-1
 -95 499 l 1,15,-1
 -80 499 l 1,8,-1
EndSplineSet
EndChar
StartChar: uni0E47.alt1
Encoding: 63250 63250 358
Width: 0
Flags: W
Fore
-2 603 m 1,0,-1
 -39 573 l 1,1,-1
 -15 543 l 1,2,-1
 -27 491 l 1,3,-1
 -71 454 l 1,4,-1
 -179 454 l 1,5,-1
 -192 472 l 1,6,-1
 -214 454 l 1,7,-1
 -268 454 l 1,8,-1
 -247 553 l 1,9,-1
 -182 607 l 1,10,-1
 -61 607 l 1,11,-1
 -27 635 l 1,12,-1
 -2 603 l 1,0,-1
-179 536 m 1,13,-1
 -151 500 l 1,14,-1
 -141 543 l 1,15,-1
 -118 562 l 1,16,-1
 -173 562 l 1,17,-1
 -206 535 l 1,18,-1
 -212 509 l 1,19,-1
 -179 536 l 1,13,-1
-68 510 m 1,20,-1
 -64 525 l 1,21,-1
 -73 535 l 1,22,-1
 -88 535 l 1,23,-1
 -100 525 l 1,24,-1
 -104 510 l 1,25,-1
 -95 499 l 1,26,-1
 -80 499 l 1,27,-1
 -68 510 l 1,20,-1
EndSplineSet
EndChar
StartChar: uni0E48.alt3
Encoding: 63251 63251 359
Width: 0
Flags: W
Fore
-3 801 m 1,0,-1
 42 801 l 1,1,-1
 7 639 l 1,2,-1
 -37 639 l 1,3,-1
 -3 801 l 1,0,-1
EndSplineSet
EndChar
StartChar: uni0E49.alt3
Encoding: 63252 63252 360
Width: 0
Flags: W
Fore
95 765 m 1,0,-1
 120 733 l 1,1,-1
 6 639 l 1,2,-1
 -147 639 l 1,3,-1
 -138 683 l 1,4,-1
 -110 683 l 1,5,-1
 -132 711 l 1,6,-1
 -121 764 l 1,7,-1
 -76 800 l 1,8,-1
 -24 800 l 1,9,-1
 5 764 l 1,10,-1
 -6 711 l 1,11,-1
 -40 683 l 1,12,-1
 -3 683 l 1,13,-1
 95 765 l 1,0,-1
-80 745 m 1,14,-1
 -83 730 l 1,15,-1
 -75 720 l 1,16,-1
 -60 720 l 1,17,-1
 -47 730 l 1,18,-1
 -44 745 l 1,19,-1
 -52 756 l 1,20,-1
 -67 756 l 1,21,-1
 -80 745 l 1,14,-1
EndSplineSet
EndChar
StartChar: uni0E4A.alt3
Encoding: 63253 63253 361
Width: 0
Flags: W
Fore
129 772 m 1,0,-1
 151 743 l 1,1,-1
 26 639 l 1,2,-1
 3 668 l 1,3,-1
 37 697 l 1,4,-1
 24 713 l 1,5,-1
 -55 648 l 1,6,-1
 -107 648 l 1,7,-1
 -136 685 l 1,8,-1
 -125 737 l 1,9,-1
 -80 774 l 1,10,-1
 -28 774 l 1,11,-1
 -3 743 l 1,12,-1
 34 774 l 1,13,-1
 72 725 l 1,14,-1
 129 772 l 1,0,-1
-87 704 m 1,15,-1
 -79 693 l 1,16,-1
 -64 693 l 1,17,-1
 -51 704 l 1,18,-1
 -48 719 l 1,19,-1
 -56 729 l 1,20,-1
 -71 729 l 1,21,-1
 -84 719 l 1,22,-1
 -87 704 l 1,15,-1
EndSplineSet
EndChar
StartChar: uni0E4B.alt3
Encoding: 63254 63254 362
Width: 0
Flags: W
Fore
76 734 m 1,0,-1
 67 689 l 1,1,-1
 17 689 l 1,2,-1
 7 640 l 1,3,-1
 -38 640 l 1,4,-1
 -28 689 l 1,5,-1
 -77 689 l 1,6,-1
 -68 734 l 1,7,-1
 -18 734 l 1,8,-1
 -8 783 l 1,9,-1
 37 783 l 1,10,-1
 27 734 l 1,11,-1
 76 734 l 1,12,-1
 76 734 l 1,0,-1
EndSplineSet
EndChar
StartChar: uni0E4C.alt3
Encoding: 63255 63255 363
Width: 0
Flags: W
Fore
47 758 m 1,0,-1
 -9 712 l 1,1,-1
 15 681 l 1,2,-1
 4 628 l 1,3,-1
 -41 592 l 1,4,-1
 -93 592 l 1,5,-1
 -122 628 l 1,6,-1
 -111 681 l 1,7,-1
 22 790 l 1,8,-1
 47 758 l 1,0,-1
-42 672 m 1,9,-1
 -57 672 l 1,10,-1
 -70 662 l 1,11,-1
 -73 647 l 1,12,-1
 -65 636 l 1,13,-1
 -50 636 l 1,14,-1
 -37 647 l 1,15,-1
 -34 662 l 1,16,-1
 -42 672 l 1,9,-1
EndSplineSet
EndChar
StartChar: uni0E38.alt1
Encoding: 63256 63256 364
Width: 0
Flags: W
Fore
-107 -253 m 1,0,-1
 -141 -414 l 1,1,-1
 -195 -414 l 1,2,-1
 -179 -342 l 1,3,-1
 -215 -342 l 1,4,-1
 -244 -305 l 1,5,-1
 -232 -253 l 1,6,-1
 -188 -216 l 1,7,-1
 -136 -216 l 1,8,-1
 -107 -253 l 1,0,-1
-171 -297 m 1,9,-1
 -159 -286 l 1,10,-1
 -155 -271 l 1,11,-1
 -164 -261 l 1,12,-1
 -179 -261 l 1,13,-1
 -191 -271 l 1,14,-1
 -195 -286 l 1,15,-1
 -186 -297 l 1,16,-1
 -171 -297 l 1,9,-1
EndSplineSet
EndChar
StartChar: uni0E39.alt1
Encoding: 63257 63257 365
Width: 0
Flags: W
Fore
-154 -215 m 1,0,-1
 -100 -215 l 1,1,-1
 -142 -413 l 1,2,-1
 -286 -413 l 1,3,-1
 -271 -341 l 1,4,-1
 -306 -341 l 1,5,-1
 -335 -304 l 1,6,-1
 -324 -252 l 1,7,-1
 -279 -215 l 1,8,-1
 -227 -215 l 1,9,-1
 -198 -252 l 1,10,-1
 -221 -359 l 1,11,-1
 -185 -359 l 1,12,-1
 -154 -215 l 1,0,-1
-278 -296 m 1,13,-1
 -263 -296 l 1,14,-1
 -250 -286 l 1,15,-1
 -247 -271 l 1,16,-1
 -255 -260 l 1,17,-1
 -270 -260 l 1,18,-1
 -283 -271 l 1,19,-1
 -286 -286 l 1,20,-1
 -278 -296 l 1,13,-1
EndSplineSet
EndChar
StartChar: uni0E3A.alt1
Encoding: 63258 63258 366
Width: 0
Flags: W
Fore
-105 -243 m 1,0,-1
 -113 -280 l 1,1,-1
 -144 -306 l 1,2,-1
 -181 -306 l 1,3,-1
 -203 -280 l 1,4,-1
 -195 -243 l 1,5,-1
 -162 -216 l 1,6,-1
 -125 -216 l 1,7,-1
 -105 -243 l 1,0,-1
EndSplineSet
EndChar
StartChar: uni0E0E.alt1
Encoding: 63259 63259 367
Width: 456
Flags: W
Fore
433 396 m 1,0,-1
 475 342 l 1,1,-1
 364 -180 l 1,2,-1
 310 -180 l 1,3,-1
 281 -143 l 1,4,-1
 236 -180 l 1,5,-1
 100 -180 l 1,6,-1
 67 -138 l 1,7,-1
 80 -78 l 1,8,-1
 131 -36 l 1,9,-1
 267 -36 l 1,10,-1
 325 -110 l 1,11,-1
 417 320 l 1,12,-1
 399 342 l 1,13,-1
 228 342 l 1,14,-1
 274 284 l 1,15,-1
 198 221 l 1,16,-1
 159 42 l 1,17,-1
 109 0 l 1,18,-1
 49 0 l 1,19,-1
 16 42 l 1,20,-1
 28 102 l 1,21,-1
 79 144 l 1,22,-1
 127 144 l 1,23,-1
 148 244 l 1,24,-1
 197 284 l 1,25,-1
 151 342 l 1,26,-1
 217 396 l 1,27,-1
 433 396 l 1,0,-1
119 61 m 1,28,-1
 123 83 l 1,29,-1
 111 99 l 1,30,-1
 89 99 l 1,31,-1
 69 83 l 1,32,-1
 65 61 l 1,33,-1
 77 45 l 1,34,-1
 99 45 l 1,35,-1
 119 61 l 1,28,-1
223 -126 m 1,36,-1
 245 -108 l 1,37,-1
 230 -90 l 1,38,-1
 141 -90 l 1,39,-1
 129 -100 l 1,40,-1
 126 -115 l 1,41,-1
 134 -126 l 1,42,-1
 223 -126 l 1,36,-1
EndSplineSet
EndChar
StartChar: uni0E0F.alt1
Encoding: 63260 63260 368
Width: 456
Flags: W
Fore
434 396 m 1,0,-1
 475 342 l 1,1,-1
 364 -180 l 1,2,-1
 310 -180 l 1,3,-1
 281 -142 l 1,4,-1
 235 -180 l 1,5,-1
 205 -143 l 1,6,-1
 160 -180 l 1,7,-1
 101 -180 l 1,8,-1
 68 -138 l 1,9,-1
 81 -78 l 1,10,-1
 132 -36 l 1,11,-1
 191 -36 l 1,12,-1
 250 -110 l 1,13,-1
 296 -72 l 1,14,-1
 325 -110 l 1,15,-1
 417 320 l 1,16,-1
 399 342 l 1,17,-1
 228 342 l 1,18,-1
 274 284 l 1,19,-1
 199 221 l 1,20,-1
 160 42 l 1,21,-1
 109 0 l 1,22,-1
 50 0 l 1,23,-1
 17 42 l 1,24,-1
 29 102 l 1,25,-1
 80 144 l 1,26,-1
 128 144 l 1,27,-1
 149 244 l 1,28,-1
 198 284 l 1,29,-1
 152 342 l 1,30,-1
 217 396 l 1,31,-1
 434 396 l 1,0,-1
119 61 m 1,32,-1
 123 83 l 1,33,-1
 112 99 l 1,34,-1
 89 99 l 1,35,-1
 70 83 l 1,36,-1
 66 61 l 1,37,-1
 77 45 l 1,38,-1
 100 45 l 1,39,-1
 119 61 l 1,32,-1
163 -115 m 1,40,-1
 166 -100 l 1,41,-1
 157 -90 l 1,42,-1
 142 -90 l 1,43,-1
 130 -100 l 1,44,-1
 127 -115 l 1,45,-1
 135 -126 l 1,46,-1
 150 -126 l 1,47,-1
 163 -115 l 1,40,-1
EndSplineSet
EndChar
StartChar: uni0E2C.alt1
Encoding: 63261 63261 369
Width: 457
Flags: W
Fore
470 311 m 1,0,-1
 404 0 l 1,1,-1
 350 0 l 1,2,-1
 284 158 l 1,3,-1
 152 0 l 1,4,-1
 98 0 l 1,5,-1
 151 251 l 1,6,-1
 103 251 l 1,7,-1
 70 294 l 1,8,-1
 83 353 l 1,9,-1
 134 395 l 1,10,-1
 194 395 l 1,11,-1
 227 353 l 1,12,-1
 171 93 l 1,13,-1
 304 251 l 1,14,-1
 369 93 l 1,15,-1
 407 269 l 1,16,-1
 359 269 l 1,17,-1
 326 311 l 1,18,-1
 338 371 l 1,19,-1
 389 413 l 1,20,-1
 448 413 l 1,21,-1
 478 376 l 1,22,-1
 523 413 l 1,23,-1
 551 379 l 1,24,-1
 470 311 l 1,0,-1
388 315 m 1,25,-1
 410 315 l 1,26,-1
 429 330 l 1,27,-1
 434 353 l 1,28,-1
 421 368 l 1,29,-1
 399 368 l 1,30,-1
 380 353 l 1,31,-1
 375 330 l 1,32,-1
 388 315 l 1,25,-1
132 297 m 1,33,-1
 154 297 l 1,34,-1
 173 312 l 1,35,-1
 178 335 l 1,36,-1
 165 350 l 1,37,-1
 143 350 l 1,38,-1
 124 335 l 1,39,-1
 119 312 l 1,40,-1
 132 297 l 1,33,-1
EndSplineSet
EndChar
StartChar: uni0E24.liga
Encoding: 63617 63617 371
Width: 639
Flags: W
Fore
615 395 m 1,0,-1
 657 342 l 1,1,-1
 546 -180 l 1,2,-1
 492 -180 l 1,3,-1
 598 319 l 1,4,-1
 581 341 l 1,5,-1
 445 341 l 1,6,-1
 418 319 l 1,7,-1
 312 -180 l 1,8,-1
 258 -180 l 1,9,-1
 364 319 l 1,10,-1
 347 341 l 1,11,-1
 176 341 l 1,12,-1
 222 283 l 1,13,-1
 146 221 l 1,14,-1
 129 143 l 1,15,-1
 177 143 l 1,16,-1
 210 101 l 1,17,-1
 198 42 l 1,18,-1
 147 0 l 1,19,-1
 87 0 l 1,20,-1
 54 42 l 1,21,-1
 96 243 l 1,22,-1
 146 283 l 1,23,-1
 99 342 l 1,24,-1
 165 395 l 1,25,-1
 381 395 l 1,26,-1
 402 368 l 1,27,-1
 435 395 l 1,28,-1
 615 395 l 1,0,-1
148 98 m 1,29,-1
 126 98 l 1,30,-1
 107 83 l 1,31,-1
 102 60 l 1,32,-1
 115 45 l 1,33,-1
 137 45 l 1,34,-1
 156 60 l 1,35,-1
 161 83 l 1,36,-1
 148 98 l 1,29,-1
EndSplineSet
Ligature: 0 0 'liga' uni0E24 uni0E45
Ligature: 0 0 'liga' uni0E24 uni0E32
EndChar
StartChar: uni0E26.liga
Encoding: 63618 63618 372
Width: 693
Flags: W
Fore
669 395 m 1,0,-1
 711 342 l 1,1,-1
 600 -180 l 1,2,-1
 546 -180 l 1,3,-1
 652 319 l 1,4,-1
 635 341 l 1,5,-1
 499 341 l 1,6,-1
 472 319 l 1,7,-1
 366 -180 l 1,8,-1
 312 -180 l 1,9,-1
 418 319 l 1,10,-1
 401 341 l 1,11,-1
 230 341 l 1,12,-1
 276 283 l 1,13,-1
 200 221 l 1,14,-1
 162 42 l 1,15,-1
 111 0 l 1,16,-1
 51 0 l 1,17,-1
 19 42 l 1,18,-1
 30 101 l 1,19,-1
 81 143 l 1,20,-1
 129 143 l 1,21,-1
 150 243 l 1,22,-1
 199 283 l 1,23,-1
 153 342 l 1,24,-1
 219 395 l 1,25,-1
 435 395 l 1,26,-1
 456 368 l 1,27,-1
 489 395 l 1,28,-1
 669 395 l 1,0,-1
120 60 m 1,29,-1
 125 83 l 1,30,-1
 112 98 l 1,31,-1
 90 98 l 1,32,-1
 71 83 l 1,33,-1
 66 60 l 1,34,-1
 79 45 l 1,35,-1
 101 45 l 1,36,-1
 120 60 l 1,29,-1
EndSplineSet
Ligature: 0 0 'liga' uni0E26 uni0E45
Ligature: 0 0 'liga' uni0E26 uni0E32
EndChar
StartChar: fi
Encoding: 64257 64257 373
Width: 260
Flags: W
Fore
139 279 m 1,0,-1
 265 279 l 1,1,-1
 206 0 l 1,2,-1
 152 0 l 1,3,-1
 200 225 l 1,4,-1
 128 225 l 1,5,-1
 80 0 l 1,6,-1
 27 0 l 1,7,-1
 106 378 l 1,8,-1
 171 431 l 1,9,-1
 261 431 l 1,10,-1
 250 377 l 1,11,-1
 182 377 l 1,12,-1
 155 355 l 1,13,-1
 139 279 l 1,0,-1
EndSplineSet
Ligature: 0 0 'liga' f i
EndChar
StartChar: fl
Encoding: 64258 64258 374
Width: 260
Flags: W
Fore
171 431 m 1,0,-1
 297 431 l 1,1,-1
 206 0 l 1,2,-1
 152 0 l 1,3,-1
 232 377 l 1,4,-1
 182 377 l 1,5,-1
 155 355 l 1,6,-1
 139 279 l 1,7,-1
 184 279 l 1,8,-1
 173 225 l 1,9,-1
 128 225 l 1,10,-1
 80 0 l 1,11,-1
 27 0 l 1,12,-1
 106 378 l 1,13,-1
 171 431 l 1,0,-1
EndSplineSet
Ligature: 0 0 'liga' f l
EndChar
StartChar: CHAKRA
Encoding: 65541 -1 375
Width: 1417
Flags: W
Fore
180 182 m 1,0,-1
 43 182 l 1,1,-1
 43 355 l 1,2,-1
 113 355 l 1,3,-1
 113 337 l 1,4,-1
 95 337 l 1,5,-1
 95 200 l 1,6,-1
 128 200 l 1,7,-1
 128 370 l 1,8,-1
 43 370 l 1,9,-1
 43 387 l 1,10,-1
 180 387 l 1,11,-1
 180 182 l 1,0,-1
230 430 m 1,12,-1
 230 415 l 1,13,-1
 128 415 l 1,14,-1
 128 447 l 1,15,-1
 180 447 l 1,16,-1
 180 430 l 1,17,-1
 230 430 l 1,12,-1
360 387 m 1,18,-1
 360 182 l 1,19,-1
 308 182 l 1,20,-1
 308 370 l 1,21,-1
 275 370 l 1,22,-1
 275 182 l 1,23,-1
 223 182 l 1,24,-1
 223 370 l 1,25,-1
 205 370 l 1,26,-1
 205 387 l 1,27,-1
 360 387 l 1,18,-1
540 327 m 1,28,-1
 540 182 l 1,29,-1
 403 182 l 1,30,-1
 403 370 l 1,31,-1
 385 370 l 1,32,-1
 385 387 l 1,33,-1
 455 387 l 1,34,-1
 455 200 l 1,35,-1
 488 200 l 1,36,-1
 488 327 l 1,37,-1
 470 327 l 1,38,-1
 470 345 l 1,39,-1
 488 345 l 1,40,-1
 488 387 l 1,41,-1
 540 387 l 1,42,-1
 540 345 l 1,43,-1
 558 345 l 1,44,-1
 558 327 l 1,45,-1
 540 327 l 1,28,-1
650 182 m 1,46,-1
 583 182 l 1,47,-1
 583 200 l 1,48,-1
 600 200 l 1,49,-1
 600 337 l 1,50,-1
 565 337 l 1,51,-1
 565 387 l 1,52,-1
 650 387 l 1,53,-1
 650 370 l 1,54,-1
 618 370 l 1,55,-1
 618 355 l 1,56,-1
 650 355 l 1,57,-1
 650 182 l 1,46,-1
883 422 m 1,58,-1
 883 182 l 1,59,-1
 763 182 l 1,60,-1
 748 337 l 1,61,-1
 728 337 l 1,62,-1
 728 200 l 1,63,-1
 745 200 l 1,64,-1
 745 182 l 1,65,-1
 678 182 l 1,66,-1
 678 355 l 1,67,-1
 798 355 l 1,68,-1
 813 200 l 1,69,-1
 830 200 l 1,70,-1
 830 370 l 1,71,-1
 678 370 l 1,72,-1
 678 387 l 1,73,-1
 830 387 l 1,74,-1
 830 422 l 1,75,-1
 883 422 l 1,58,-1
1070 182 m 1,76,-1
 1063 182 l 1,77,-1
 1063 175 l 1,78,-1
 1010 175 l 1,79,-1
 1010 182 l 1,80,-1
 925 182 l 1,81,-1
 925 370 l 1,82,-1
 908 370 l 1,83,-1
 908 387 l 1,84,-1
 978 387 l 1,85,-1
 978 200 l 1,86,-1
 1010 200 l 1,87,-1
 1010 387 l 1,88,-1
 1063 387 l 1,89,-1
 1063 200 l 1,90,-1
 1070 200 l 1,91,-1
 1070 182 l 1,76,-1
1173 387 m 1,92,-1
 1173 182 l 1,93,-1
 1123 182 l 1,94,-1
 1123 370 l 1,95,-1
 1088 370 l 1,96,-1
 1088 387 l 1,97,-1
 1173 387 l 1,92,-1
1363 182 m 1,98,-1
 1353 182 l 1,99,-1
 1353 175 l 1,100,-1
 1303 175 l 1,101,-1
 1303 182 l 1,102,-1
 1218 182 l 1,103,-1
 1218 370 l 1,104,-1
 1200 370 l 1,105,-1
 1200 387 l 1,106,-1
 1268 387 l 1,107,-1
 1268 200 l 1,108,-1
 1303 200 l 1,109,-1
 1303 387 l 1,110,-1
 1353 387 l 1,111,-1
 1353 200 l 1,112,-1
 1363 200 l 1,113,-1
 1363 182 l 1,98,-1
510 135 m 1,114,-1
 510 0 l 1,115,-1
 475 0 l 1,116,-1
 475 125 l 1,117,-1
 453 125 l 1,118,-1
 453 0 l 1,119,-1
 418 0 l 1,120,-1
 418 125 l 1,121,-1
 408 125 l 1,122,-1
 408 135 l 1,123,-1
 510 135 l 1,114,-1
585 0 m 1,124,-1
 538 0 l 1,125,-1
 538 10 l 1,126,-1
 550 10 l 1,127,-1
 550 102 l 1,128,-1
 528 102 l 1,129,-1
 528 135 l 1,130,-1
 585 135 l 1,131,-1
 585 125 l 1,132,-1
 563 125 l 1,133,-1
 563 112 l 1,134,-1
 585 112 l 1,135,-1
 585 0 l 1,124,-1
658 135 m 1,136,-1
 658 0 l 1,137,-1
 625 0 l 1,138,-1
 625 125 l 1,139,-1
 603 125 l 1,140,-1
 603 135 l 1,141,-1
 658 135 l 1,136,-1
875 157 m 1,142,-1
 875 0 l 1,143,-1
 795 0 l 1,144,-1
 785 125 l 1,145,-1
 778 125 l 1,146,-1
 768 0 l 1,147,-1
 688 0 l 1,148,-1
 688 125 l 1,149,-1
 675 125 l 1,150,-1
 675 135 l 1,151,-1
 720 135 l 1,152,-1
 720 10 l 1,153,-1
 733 10 l 1,154,-1
 743 135 l 1,155,-1
 818 135 l 1,156,-1
 828 10 l 1,157,-1
 840 10 l 1,158,-1
 840 157 l 1,159,-1
 875 157 l 1,142,-1
728 152 m 1,160,-1
 728 165 l 1,161,-1
 830 165 l 1,162,-1
 830 152 l 1,163,-1
 728 152 l 1,160,-1
995 135 m 1,164,-1
 995 0 l 1,165,-1
 960 0 l 1,166,-1
 960 125 l 1,167,-1
 938 125 l 1,168,-1
 938 0 l 1,169,-1
 903 0 l 1,170,-1
 903 125 l 1,171,-1
 893 125 l 1,172,-1
 893 135 l 1,173,-1
 995 135 l 1,164,-1
EndSplineSet
Ligature: 0 0 'liga' C H A K R A D e i g n parenleft c parenright
EndChar
StartChar: uni1ED7
Encoding: 7895 7895 432
Width: 401
Flags: W
Fore
393 528 m 1,0,-1
 312 470 l 1,1,-1
 265 501 l 1,2,-1
 210 477 l 1,3,-1
 197 496 l 1,4,-1
 277 552 l 1,5,-1
 323 522 l 1,6,-1
 380 547 l 1,7,-1
 393 528 l 1,0,-1
351 306 m 1,8,-1
 394 252 l 1,9,-1
 351 54 l 1,10,-1
 286 0 l 1,11,-1
 88 0 l 1,12,-1
 45 54 l 1,13,-1
 88 252 l 1,14,-1
 153 306 l 1,15,-1
 351 306 l 1,8,-1
302 76 m 1,16,-1
 335 230 l 1,17,-1
 317 252 l 1,18,-1
 164 252 l 1,19,-1
 137 230 l 1,20,-1
 104 77 l 1,21,-1
 121 54 l 1,22,-1
 275 54 l 1,23,-1
 302 76 l 1,16,-1
374 362 m 1,24,-1
 351 343 l 1,25,-1
 273 404 l 1,26,-1
 173 343 l 1,27,-1
 158 362 l 1,28,-1
 266 451 l 1,29,-1
 304 451 l 1,30,-1
 374 362 l 1,24,-1
EndSplineSet
Ligature: 0 0 'liga' ocircumflex tildecomb
EndChar
StartChar: uni1EDA
Encoding: 7898 7898 435
Width: 404
Flags: W
Fore
312 76 m 1,0,-1
 285 54 l 1,1,-1
 113 54 l 1,2,-1
 96 77 l 1,3,-1
 155 356 l 1,4,-1
 182 378 l 1,5,-1
 353 378 l 1,6,-1
 371 356 l 1,7,-1
 312 76 l 1,0,-1
465 468 m 1,8,-1
 411 468 l 1,9,-1
 403 431 l 1,10,-1
 395 424 l 1,11,-1
 389 432 l 1,12,-1
 173 432 l 1,13,-1
 107 378 l 1,14,-1
 39 54 l 1,15,-1
 81 0 l 1,16,-1
 297 0 l 1,17,-1
 362 54 l 1,18,-1
 431 378 l 1,19,-1
 425 386 l 1,20,-1
 453 409 l 1,21,-1
 465 468 l 1,8,-1
247 472 m 1,22,-1
 232 491 l 1,23,-1
 340 580 l 1,24,-1
 370 542 l 1,25,-1
 247 472 l 1,22,-1
EndSplineSet
Ligature: 0 0 'liga' Ohorn acutecomb
EndChar
StartChar: uni1EDC
Encoding: 7900 7900 437
Width: 404
Flags: W
Fore
371 356 m 1,0,-1
 353 378 l 1,1,-1
 182 378 l 1,2,-1
 155 356 l 1,3,-1
 96 77 l 1,4,-1
 113 54 l 1,5,-1
 285 54 l 1,6,-1
 312 76 l 1,7,-1
 371 356 l 1,0,-1
453 409 m 1,8,-1
 425 386 l 1,9,-1
 431 378 l 1,10,-1
 362 54 l 1,11,-1
 297 0 l 1,12,-1
 81 0 l 1,13,-1
 39 54 l 1,14,-1
 107 378 l 1,15,-1
 173 432 l 1,16,-1
 389 432 l 1,17,-1
 395 424 l 1,18,-1
 403 431 l 1,19,-1
 411 468 l 1,20,-1
 465 468 l 1,21,-1
 453 409 l 1,8,-1
230 542 m 1,22,-1
 276 580 l 1,23,-1
 346 491 l 1,24,-1
 323 472 l 1,25,-1
 230 542 l 1,22,-1
EndSplineSet
Ligature: 0 0 'liga' Ohorn gravecomb
EndChar
StartChar: uni1EDE
Encoding: 7902 7902 439
Width: 404
Flags: W
Fore
371 356 m 1,0,-1
 353 378 l 1,1,-1
 182 378 l 1,2,-1
 155 356 l 1,3,-1
 96 77 l 1,4,-1
 113 54 l 1,5,-1
 285 54 l 1,6,-1
 312 76 l 1,7,-1
 371 356 l 1,0,-1
453 409 m 1,8,-1
 425 386 l 1,9,-1
 431 378 l 1,10,-1
 362 54 l 1,11,-1
 297 0 l 1,12,-1
 81 0 l 1,13,-1
 39 54 l 1,14,-1
 107 378 l 1,15,-1
 173 432 l 1,16,-1
 389 432 l 1,17,-1
 395 424 l 1,18,-1
 403 431 l 1,19,-1
 411 468 l 1,20,-1
 465 468 l 1,21,-1
 453 409 l 1,8,-1
351 552 m 1,22,-1
 343 514 l 1,23,-1
 283 472 l 1,24,-1
 264 483 l 1,25,-1
 310 529 l 1,26,-1
 313 541 l 1,27,-1
 310 544 l 1,28,-1
 296 544 l 1,29,-1
 256 520 l 1,30,-1
 236 533 l 1,31,-1
 287 580 l 1,32,-1
 333 580 l 1,33,-1
 351 552 l 1,22,-1
EndSplineSet
Ligature: 0 0 'liga' Ohorn hookabovecomb
EndChar
StartChar: uni1EE0
Encoding: 7904 7904 441
Width: 404
Flags: W
Fore
371 356 m 1,0,-1
 353 378 l 1,1,-1
 182 378 l 1,2,-1
 155 356 l 1,3,-1
 96 77 l 1,4,-1
 113 54 l 1,5,-1
 285 54 l 1,6,-1
 312 76 l 1,7,-1
 371 356 l 1,0,-1
453 409 m 1,8,-1
 425 386 l 1,9,-1
 431 378 l 1,10,-1
 362 54 l 1,11,-1
 297 0 l 1,12,-1
 81 0 l 1,13,-1
 39 54 l 1,14,-1
 107 378 l 1,15,-1
 173 432 l 1,16,-1
 389 432 l 1,17,-1
 395 424 l 1,18,-1
 403 431 l 1,19,-1
 411 468 l 1,20,-1
 465 468 l 1,21,-1
 453 409 l 1,8,-1
398 550 m 1,22,-1
 317 492 l 1,23,-1
 269 523 l 1,24,-1
 215 499 l 1,25,-1
 202 518 l 1,26,-1
 281 575 l 1,27,-1
 328 544 l 1,28,-1
 385 569 l 1,29,-1
 398 550 l 1,22,-1
EndSplineSet
Ligature: 0 0 'liga' Ohorn tildecomb
EndChar
StartChar: uni1EE2
Encoding: 7906 7906 443
Width: 404
Flags: W
Fore
371 356 m 1,0,-1
 353 378 l 1,1,-1
 182 378 l 1,2,-1
 155 356 l 1,3,-1
 96 77 l 1,4,-1
 113 54 l 1,5,-1
 285 54 l 1,6,-1
 312 76 l 1,7,-1
 371 356 l 1,0,-1
453 409 m 1,8,-1
 425 386 l 1,9,-1
 431 378 l 1,10,-1
 362 54 l 1,11,-1
 297 0 l 1,12,-1
 81 0 l 1,13,-1
 39 54 l 1,14,-1
 107 378 l 1,15,-1
 173 432 l 1,16,-1
 389 432 l 1,17,-1
 395 424 l 1,18,-1
 403 431 l 1,19,-1
 411 468 l 1,20,-1
 465 468 l 1,21,-1
 453 409 l 1,8,-1
204 -92 m 1,22,-1
 175 -115 l 1,23,-1
 142 -115 l 1,24,-1
 123 -92 l 1,25,-1
 130 -58 l 1,26,-1
 159 -35 l 1,27,-1
 192 -35 l 1,28,-1
 211 -58 l 1,29,-1
 204 -92 l 1,22,-1
EndSplineSet
Ligature: 0 0 'liga' Ohorn dotbelowcomb
EndChar
StartChar: franc
Encoding: 8355 8355 467
Width: 364
Flags: W
Fore
179 377 m 1,0,-1
 152 355 l 1,1,-1
 128 243 l 1,2,-1
 343 243 l 1,3,-1
 332 189 l 1,4,-1
 117 189 l 1,5,-1
 105 135 l 1,6,-1
 204 135 l 1,7,-1
 193 81 l 1,8,-1
 94 81 l 1,9,-1
 77 0 l 1,10,-1
 24 0 l 1,11,-1
 41 81 l 1,12,-1
 14 81 l 1,13,-1
 25 135 l 1,14,-1
 51 135 l 1,15,-1
 103 378 l 1,16,-1
 168 431 l 1,17,-1
 401 431 l 1,18,-1
 390 377 l 1,19,-1
 179 377 l 1,0,-1
EndSplineSet
EndChar
StartChar: dong
Encoding: 8363 8363 468
Width: 386
Flags: W
Fore
431 395 m 1,0,-1
 458 395 l 1,1,-1
 447 341 l 1,2,-1
 420 341 l 1,3,-1
 359 54 l 1,4,-1
 293 0 l 1,5,-1
 95 0 l 1,6,-1
 54 53 l 1,7,-1
 96 252 l 1,8,-1
 161 306 l 1,9,-1
 304 306 l 1,10,-1
 304 305 l 1,11,-1
 347 251 l 1,12,-1
 366 341 l 1,13,-1
 321 341 l 1,14,-1
 332 395 l 1,15,-1
 377 395 l 1,16,-1
 385 431 l 1,17,-1
 439 431 l 1,18,-1
 431 395 l 1,0,-1
309 76 m 1,19,-1
 332 181 l 1,20,-1
 277 252 l 1,21,-1
 172 252 l 1,22,-1
 145 229 l 1,23,-1
 111 76 l 1,24,-1
 130 54 l 1,25,-1
 283 54 l 1,26,-1
 309 76 l 1,19,-1
26 -83 m 1,27,-1
 38 -29 l 1,28,-1
 333 -29 l 1,29,-1
 321 -83 l 1,30,-1
 26 -83 l 1,27,-1
EndSplineSet
EndChar
StartChar: Dcroat
Encoding: 272 272 475
Width: 413
Flags: W
Fore
397 431 m 1,0,-1
 440 378 l 1,1,-1
 371 54 l 1,2,-1
 306 0 l 1,3,-1
 54 0 l 1,4,-1
 94 189 l 1,5,-1
 67 189 l 1,6,-1
 78 243 l 1,7,-1
 105 243 l 1,8,-1
 145 431 l 1,9,-1
 397 431 l 1,0,-1
322 76 m 1,10,-1
 381 355 l 1,11,-1
 363 377 l 1,12,-1
 188 377 l 1,13,-1
 159 243 l 1,14,-1
 276 243 l 1,15,-1
 265 189 l 1,16,-1
 148 189 l 1,17,-1
 119 54 l 1,18,-1
 294 54 l 1,19,-1
 322 76 l 1,10,-1
EndSplineSet
EndChar
StartChar: dcroat
Encoding: 273 273 476
Width: 386
Flags: W
Fore
415 395 m 1,0,-1
 442 395 l 1,1,-1
 430 341 l 1,2,-1
 403 341 l 1,3,-1
 342 54 l 1,4,-1
 277 0 l 1,5,-1
 79 0 l 1,6,-1
 37 53 l 1,7,-1
 79 252 l 1,8,-1
 145 306 l 1,9,-1
 288 306 l 1,10,-1
 288 305 l 1,11,-1
 330 251 l 1,12,-1
 349 341 l 1,13,-1
 304 341 l 1,14,-1
 316 395 l 1,15,-1
 361 395 l 1,16,-1
 368 431 l 1,17,-1
 422 431 l 1,18,-1
 415 395 l 1,0,-1
293 76 m 1,19,-1
 315 181 l 1,20,-1
 260 252 l 1,21,-1
 155 252 l 1,22,-1
 128 229 l 1,23,-1
 95 76 l 1,24,-1
 113 54 l 1,25,-1
 266 54 l 1,26,-1
 293 76 l 1,19,-1
EndSplineSet
EndChar
StartChar: Idotaccent
Encoding: 304 304 481
Width: 134
Flags: W
Fore
80 0 m 1,0,-1
 27 0 l 1,1,-1
 118 432 l 1,2,-1
 172 432 l 1,3,-1
 80 0 l 1,4,-1
 80 0 l 1,0,-1
207 529 m 1,5,-1
 200 495 l 1,6,-1
 172 472 l 1,7,-1
 138 472 l 1,8,-1
 119 495 l 1,9,-1
 126 529 l 1,10,-1
 155 553 l 1,11,-1
 189 553 l 1,12,-1
 207 529 l 1,5,-1
EndSplineSet
EndChar
StartChar: dotlessi
Encoding: 305 305 482
Width: 137
Flags: W
Fore
30 0 m 1,0,-1
 94 306 l 1,1,-1
 147 306 l 1,2,-1
 82 0 l 1,3,-1
 30 0 l 1,4,-1
 30 0 l 1,0,-1
EndSplineSet
EndChar
StartChar: Scedilla
Encoding: 350 350 483
Width: 386
Flags: W
Fore
227 -74 m 1,0,-1
 215 -130 l 1,1,-1
 168 -169 l 1,2,-1
 99 -169 l 1,3,-1
 108 -125 l 1,4,-1
 158 -125 l 1,5,-1
 175 -112 l 1,6,-1
 179 -93 l 1,7,-1
 167 -80 l 1,8,-1
 117 -80 l 1,9,-1
 123 -52 l 1,10,-1
 181 0 l 1,11,-1
 89 0 l 1,12,-1
 46 54 l 1,13,-1
 56 99 l 1,14,-1
 110 99 l 1,15,-1
 105 76 l 1,16,-1
 122 54 l 1,17,-1
 267 54 l 1,18,-1
 294 76 l 1,19,-1
 317 184 l 1,20,-1
 300 207 l 1,21,-1
 124 207 l 1,22,-1
 81 260 l 1,23,-1
 106 378 l 1,24,-1
 171 431 l 1,25,-1
 360 431 l 1,26,-1
 403 377 l 1,27,-1
 393 332 l 1,28,-1
 339 332 l 1,29,-1
 344 355 l 1,30,-1
 327 377 l 1,31,-1
 182 377 l 1,32,-1
 155 355 l 1,33,-1
 140 283 l 1,34,-1
 157 261 l 1,35,-1
 333 261 l 1,36,-1
 376 207 l 1,37,-1
 343 53 l 1,38,-1
 278 0 l 1,39,-1
 221 0 l 1,40,-1
 196 -35 l 1,41,-1
 227 -74 l 1,0,-1
EndSplineSet
EndChar
StartChar: scedilla
Encoding: 351 351 484
Width: 385
Flags: W
Fore
229 -68 m 1,0,-1
 217 -124 l 1,1,-1
 170 -163 l 1,2,-1
 101 -163 l 1,3,-1
 110 -119 l 1,4,-1
 160 -119 l 1,5,-1
 177 -106 l 1,6,-1
 181 -87 l 1,7,-1
 169 -74 l 1,8,-1
 119 -74 l 1,9,-1
 125 -46 l 1,10,-1
 177 0 l 1,11,-1
 90 0 l 1,12,-1
 48 54 l 1,13,-1
 57 99 l 1,14,-1
 111 99 l 1,15,-1
 106 76 l 1,16,-1
 124 54 l 1,17,-1
 268 54 l 1,18,-1
 294 76 l 1,19,-1
 300 103 l 1,20,-1
 283 126 l 1,21,-1
 108 126 l 1,22,-1
 65 179 l 1,23,-1
 81 252 l 1,24,-1
 145 305 l 1,25,-1
 335 305 l 1,26,-1
 377 252 l 1,27,-1
 367 206 l 1,28,-1
 313 206 l 1,29,-1
 318 229 l 1,30,-1
 300 251 l 1,31,-1
 156 251 l 1,32,-1
 130 229 l 1,33,-1
 124 202 l 1,34,-1
 141 180 l 1,35,-1
 317 180 l 1,36,-1
 359 126 l 1,37,-1
 343 53 l 1,38,-1
 279 0 l 1,39,-1
 218 0 l 1,40,-1
 198 -29 l 1,41,-1
 229 -68 l 1,0,-1
EndSplineSet
EndChar
StartChar: Ohorn
Encoding: 416 416 487
Width: 404
Flags: W
Fore
312 76 m 1,0,-1
 371 356 l 1,1,-1
 353 378 l 1,2,-1
 182 378 l 1,3,-1
 155 356 l 1,4,-1
 96 77 l 1,5,-1
 113 54 l 1,6,-1
 285 54 l 1,7,-1
 312 76 l 1,0,-1
465 468 m 1,8,-1
 453 409 l 1,9,-1
 425 386 l 1,10,-1
 431 378 l 1,11,-1
 362 54 l 1,12,-1
 297 0 l 1,13,-1
 81 0 l 1,14,-1
 39 54 l 1,15,-1
 107 378 l 1,16,-1
 173 432 l 1,17,-1
 389 432 l 1,18,-1
 395 424 l 1,19,-1
 403 431 l 1,20,-1
 411 468 l 1,21,-1
 465 468 l 1,8,-1
EndSplineSet
EndChar
StartChar: ohorn
Encoding: 417 417 488
Width: 403
Flags: W
Fore
313 77 m 1,0,-1
 345 231 l 1,1,-1
 328 253 l 1,2,-1
 156 253 l 1,3,-1
 129 231 l 1,4,-1
 97 78 l 1,5,-1
 114 55 l 1,6,-1
 286 55 l 1,7,-1
 313 77 l 1,0,-1
436 342 m 1,8,-1
 423 283 l 1,9,-1
 397 261 l 1,10,-1
 404 252 l 1,11,-1
 362 54 l 1,12,-1
 296 0 l 1,13,-1
 80 0 l 1,14,-1
 38 54 l 1,15,-1
 80 253 l 1,16,-1
 145 306 l 1,17,-1
 361 306 l 1,18,-1
 367 299 l 1,19,-1
 375 305 l 1,20,-1
 383 342 l 1,21,-1
 436 342 l 1,8,-1
EndSplineSet
EndChar
StartChar: Uhorn
Encoding: 431 431 489
Width: 460
Flags: W
Fore
470 468 m 1,0,-1
 521 468 l 1,1,-1
 504 388 l 1,2,-1
 437 333 l 1,3,-1
 402 333 l 1,4,-1
 342 54 l 1,5,-1
 277 0 l 1,6,-1
 79 0 l 1,7,-1
 37 54 l 1,8,-1
 117 432 l 1,9,-1
 171 432 l 1,10,-1
 95 77 l 1,11,-1
 113 54 l 1,12,-1
 266 54 l 1,13,-1
 293 76 l 1,14,-1
 369 432 l 1,15,-1
 423 432 l 1,16,-1
 412 384 l 1,17,-1
 426 384 l 1,18,-1
 458 409 l 1,19,-1
 470 468 l 1,0,-1
EndSplineSet
EndChar
StartChar: uhorn
Encoding: 432 432 490
Width: 438
Flags: W
Fore
425 341 m 1,0,-1
 476 341 l 1,1,-1
 459 262 l 1,2,-1
 391 206 l 1,3,-1
 358 206 l 1,4,-1
 314 0 l 1,5,-1
 260 0 l 1,6,-1
 272 54 l 1,7,-1
 206 0 l 1,8,-1
 80 0 l 1,9,-1
 38 54 l 1,10,-1
 91 306 l 1,11,-1
 145 306 l 1,12,-1
 96 76 l 1,13,-1
 114 54 l 1,14,-1
 201 54 l 1,15,-1
 287 124 l 1,16,-1
 325 306 l 1,17,-1
 379 306 l 1,18,-1
 369 257 l 1,19,-1
 381 257 l 1,20,-1
 412 283 l 1,21,-1
 425 341 l 1,0,-1
EndSplineSet
EndChar
StartChar: hookabovecomb
Encoding: 777 777 491
Width: 208
Flags: W
Fore
163 535 m 1,0,-1
 155 497 l 1,1,-1
 95 455 l 1,2,-1
 76 466 l 1,3,-1
 122 512 l 1,4,-1
 125 524 l 1,5,-1
 122 527 l 1,6,-1
 108 527 l 1,7,-1
 68 503 l 1,8,-1
 48 516 l 1,9,-1
 99 563 l 1,10,-1
 145 563 l 1,11,-1
 163 535 l 1,0,-1
EndSplineSet
EndChar
StartChar: tildecomb
Encoding: 771 771 492
Width: 287
Flags: W
Fore
235 527 m 1,0,-1
 154 469 l 1,1,-1
 106 500 l 1,2,-1
 52 476 l 1,3,-1
 39 495 l 1,4,-1
 118 552 l 1,5,-1
 165 521 l 1,6,-1
 222 546 l 1,7,-1
 235 527 l 1,0,-1
EndSplineSet
EndChar
StartChar: acutecomb
Encoding: 769 769 493
Width: 224
Flags: W
Fore
54 455 m 1,0,-1
 39 474 l 1,1,-1
 147 563 l 1,2,-1
 177 525 l 1,3,-1
 54 455 l 1,0,-1
EndSplineSet
EndChar
StartChar: dotbelowcomb
Encoding: 803 803 494
Width: 178
Flags: W
Fore
121 -93 m 1,0,-1
 92 -116 l 1,1,-1
 59 -116 l 1,2,-1
 40 -93 l 1,3,-1
 47 -59 l 1,4,-1
 76 -36 l 1,5,-1
 109 -36 l 1,6,-1
 128 -59 l 1,7,-1
 121 -93 l 1,0,-1
EndSplineSet
EndChar
StartChar: gravecomb
Encoding: 768 768 495
Width: 225
Flags: W
Fore
51 525 m 1,0,-1
 97 563 l 1,1,-1
 167 474 l 1,2,-1
 144 455 l 1,3,-1
 51 525 l 1,0,-1
EndSplineSet
EndChar
